<svg id="Layer_1" data-name="Layer 1" xmlns="http://www.w3.org/2000/svg" width="864.34" height="958.58" viewBox="0 0 864.34 958.58"><defs><style>.cls-1,.cls-3,.cls-4,.cls-5,.cls-8,.cls-9{fill:none;}.cls-1,.cls-3{stroke:#304752;}.cls-1,.cls-3,.cls-5,.cls-9{stroke-linecap:round;stroke-linejoin:round;}.cls-1,.cls-8{stroke-width:4px;}.cls-2{fill:#304752;}.cls-3,.cls-4,.cls-6{stroke-width:3.17px;}.cls-4,.cls-6,.cls-8{stroke:#14bf96;stroke-miterlimit:10;}.cls-5,.cls-9{stroke:#10a7e3;}.cls-5{stroke-width:2.64px;}.cls-6{fill:#fff;}.cls-7{fill:#b32471;}.cls-9{stroke-width:3.34px;}</style></defs><title>pig latin v3</title><line class="cls-1" x1="248.01" y1="245" x2="554.69" y2="245"/><polygon class="cls-2" points="547.95 253.89 551.72 245 547.95 236.11 569.01 245 547.95 253.89"/><path class="cls-3" d="M576.51,932.5C325.22,801.72,219,571.42,134.68,282.4"/><polygon class="cls-2" points="143.02 285.49 135.42 284.63 129.52 289.5 131.51 271.5 143.02 285.49"/><line class="cls-3" x1="534.3" y1="672.65" x2="645.68" y2="896.94"/><polygon class="cls-2" points="637 895.29 644.64 894.83 649.61 889.02 650.73 907.1 637 895.29"/><line class="cls-3" x1="765.58" y1="835.02" x2="660.34" y2="901.07"/><polygon class="cls-2" points="661.12 892.27 662.33 899.82 668.61 904.19 650.73 907.1 661.12 892.27"/><line class="cls-3" x1="706.17" y1="568.1" x2="757.28" y2="615.8"/><polygon class="cls-2" points="748.57 617.31 755.56 614.2 758.18 607.02 765.58 623.55 748.57 617.31"/><line class="cls-3" x1="602.41" y1="575.23" x2="547.32" y2="616.72"/><polygon class="cls-2" points="547.35 607.89 549.2 615.31 555.82 619.13 538.26 623.55 547.35 607.89"/><line class="cls-3" x1="650.73" y1="357.42" x2="650.73" y2="376.17"/><polygon class="cls-2" points="643.69 370.83 650.73 373.82 657.77 370.83 650.73 387.52 643.69 370.83"/><path d="M632.82,242.83a.73.73,0,0,1-.22.26.45.45,0,0,1-.29.08.72.72,0,0,1-.39-.13c-.14-.09-.3-.19-.5-.3a4,4,0,0,0-.68-.29,2.82,2.82,0,0,0-.92-.14,2.66,2.66,0,0,0-.84.12,1.86,1.86,0,0,0-.61.32,1.33,1.33,0,0,0-.36.49,1.69,1.69,0,0,0-.12.64,1.08,1.08,0,0,0,.24.72,2.08,2.08,0,0,0,.65.5,5.68,5.68,0,0,0,.92.37l1,.35a8.72,8.72,0,0,1,1.06.43,3.62,3.62,0,0,1,.91.61,2.79,2.79,0,0,1,.65.92,3,3,0,0,1,.25,1.31,4.29,4.29,0,0,1-.29,1.57,3.56,3.56,0,0,1-.84,1.28,4.06,4.06,0,0,1-1.35.86,4.94,4.94,0,0,1-1.83.31,6.42,6.42,0,0,1-1.16-.11,6.5,6.5,0,0,1-1.11-.33,6.64,6.64,0,0,1-1-.52,4.52,4.52,0,0,1-.82-.67l.68-1.1a.74.74,0,0,1,.22-.21.6.6,0,0,1,.29-.08.84.84,0,0,1,.47.18c.16.12.36.25.59.39a5,5,0,0,0,.8.39,3,3,0,0,0,1.1.17,2.27,2.27,0,0,0,1.53-.46,1.68,1.68,0,0,0,.54-1.34,1.2,1.2,0,0,0-.25-.8,1.89,1.89,0,0,0-.65-.52,4.79,4.79,0,0,0-.91-.36c-.35-.09-.69-.2-1-.31a10.28,10.28,0,0,1-1-.42,3.24,3.24,0,0,1-.92-.62,2.8,2.8,0,0,1-.65-1,3.69,3.69,0,0,1-.24-1.42,3.4,3.4,0,0,1,.27-1.33,3.62,3.62,0,0,1,.78-1.14,3.86,3.86,0,0,1,1.27-.79,4.65,4.65,0,0,1,1.73-.3,5.81,5.81,0,0,1,2,.34,4.61,4.61,0,0,1,1.57,1Z"/><path d="M644.28,242.47h-3.73V253h-2.31v-10.5H634.5v-1.9h9.78Z"/><path d="M655.33,253h-1.78a.75.75,0,0,1-.49-.15,1,1,0,0,1-.29-.37l-.92-2.53h-5.14l-.93,2.53a.79.79,0,0,1-.26.36.74.74,0,0,1-.49.16h-1.8l4.88-12.4h2.35Zm-4.07-4.68-1.51-4.12c-.08-.19-.15-.4-.24-.65s-.16-.53-.24-.82c-.07.29-.15.57-.23.82s-.15.48-.23.66l-1.5,4.11Z"/><path d="M666.3,253h-2.09a.9.9,0,0,1-.85-.46l-2.61-4a1.08,1.08,0,0,0-.32-.32,1.18,1.18,0,0,0-.52-.09h-1V253h-2.3v-12.4h3.78a8,8,0,0,1,2.16.26,4.16,4.16,0,0,1,1.49.74,2.84,2.84,0,0,1,.85,1.13,3.73,3.73,0,0,1,.27,1.44,3.79,3.79,0,0,1-.18,1.18,3.34,3.34,0,0,1-1.39,1.81,4.26,4.26,0,0,1-1.16.54,2.45,2.45,0,0,1,.41.31,2.32,2.32,0,0,1,.34.41Zm-5.94-6.5a3.52,3.52,0,0,0,1.14-.16,2.29,2.29,0,0,0,.8-.45,1.75,1.75,0,0,0,.46-.68,2.21,2.21,0,0,0,.16-.87,1.78,1.78,0,0,0-.62-1.45,3,3,0,0,0-1.9-.5h-1.48v4.11Z"/><path d="M676,242.47h-3.74V253h-2.31v-10.5h-3.74v-1.9H676Z"/><ellipse class="cls-4" cx="650.63" cy="246.93" rx="81.58" ry="24.95"/><rect class="cls-5" x="553.32" y="306.33" width="194.84" height="49.11"/><path d="M616.43,335.83h-1.79a.73.73,0,0,1-.48-.15.87.87,0,0,1-.29-.37l-.92-2.53h-5.14l-.93,2.53a.79.79,0,0,1-.26.36.74.74,0,0,1-.49.16h-1.8l4.88-12.4h2.35Zm-4.08-4.68-1.5-4.13a6.57,6.57,0,0,1-.24-.65q-.12-.37-.24-.81c-.07.29-.15.56-.23.82s-.16.47-.23.66l-1.5,4.11Z"/><path d="M621.74,323.43a7.29,7.29,0,0,1,2.16.29,4.31,4.31,0,0,1,1.5.82,3.24,3.24,0,0,1,.88,1.25,4.32,4.32,0,0,1,.28,1.59,4.4,4.4,0,0,1-.3,1.65,3.42,3.42,0,0,1-.9,1.29,4.2,4.2,0,0,1-1.5.85,6.73,6.73,0,0,1-2.12.3H620v4.36h-2.31v-12.4Zm0,6.23a3.63,3.63,0,0,0,1.11-.15,2.11,2.11,0,0,0,.79-.46,1.93,1.93,0,0,0,.46-.72,2.59,2.59,0,0,0,.16-.95,2.36,2.36,0,0,0-.16-.9,1.68,1.68,0,0,0-.46-.68,2.12,2.12,0,0,0-.78-.44,3.75,3.75,0,0,0-1.12-.15H620v4.45Z"/><path d="M632.36,323.43a7.17,7.17,0,0,1,2.15.29,4.14,4.14,0,0,1,1.5.82,3.13,3.13,0,0,1,.88,1.25,4.32,4.32,0,0,1,.29,1.59,4.4,4.4,0,0,1-.3,1.65,3.42,3.42,0,0,1-.9,1.29,4.17,4.17,0,0,1-1.51.85,6.67,6.67,0,0,1-2.11.3h-1.72v4.36h-2.31v-12.4Zm0,6.23a3.73,3.73,0,0,0,1.11-.15,2.15,2.15,0,0,0,.78-.46,1.84,1.84,0,0,0,.47-.72,2.83,2.83,0,0,0,.15-.95,2.57,2.57,0,0,0-.15-.9,1.78,1.78,0,0,0-.46-.68,2.08,2.08,0,0,0-.79-.44,3.63,3.63,0,0,0-1.11-.15h-1.72v4.45Z"/><path d="M641.26,325.27v3.43h4.34v1.78h-4.34V334h5.51v1.84H639v-12.4h7.82v1.84Z"/><path d="M659.26,323.43v12.4h-1.18a1,1,0,0,1-.46-.09,1.19,1.19,0,0,1-.36-.3l-6.47-8.27c0,.38.05.73.05,1.05v7.61h-2v-12.4h1.46l.19.05a.83.83,0,0,1,.16.12,1.12,1.12,0,0,1,.17.19l6.5,8.3c0-.2,0-.4,0-.59a5.25,5.25,0,0,1,0-.54v-7.54Z"/><path d="M673,329.63a6.74,6.74,0,0,1-.45,2.5,5.74,5.74,0,0,1-1.28,2,5.83,5.83,0,0,1-2,1.28,7,7,0,0,1-2.57.45H662v-12.4h4.73a6.84,6.84,0,0,1,2.57.46,5.69,5.69,0,0,1,2,1.28,5.6,5.6,0,0,1,1.28,2A6.74,6.74,0,0,1,673,329.63Zm-2.36,0a5.77,5.77,0,0,0-.27-1.83,3.75,3.75,0,0,0-.78-1.37,3.38,3.38,0,0,0-1.24-.86,4.23,4.23,0,0,0-1.63-.3h-2.41V334h2.41a4.05,4.05,0,0,0,1.63-.31,3.38,3.38,0,0,0,1.24-.86,3.75,3.75,0,0,0,.78-1.37A5.77,5.77,0,0,0,670.67,329.63Z"/><path d="M679.21,327.86a4.25,4.25,0,0,1-.56-1.41,3.88,3.88,0,0,1,.48-2.82,4.19,4.19,0,0,1,1-1.18l.66.41a.27.27,0,0,1,.16.27.45.45,0,0,1-.12.26,2.58,2.58,0,0,0-.34.56,3.16,3.16,0,0,0-.23.79,3,3,0,0,0,0,.94,2.7,2.7,0,0,0,.38,1,.52.52,0,0,1,.09.43.46.46,0,0,1-.29.27Zm2.84,0a4.22,4.22,0,0,1-.55-1.41,3.94,3.94,0,0,1,0-1.45,4.12,4.12,0,0,1,.5-1.37,4.4,4.4,0,0,1,1-1.18l.66.41a.28.28,0,0,1,.15.27.44.44,0,0,1-.11.26,2.58,2.58,0,0,0-.34.56,2.79,2.79,0,0,0-.23.79,3.3,3.3,0,0,0,0,.94,2.56,2.56,0,0,0,.39,1,.48.48,0,0,1,.08.43.44.44,0,0,1-.28.27Z"/><path d="M685.46,329.77h4.44v1.76h-4.44Z"/><path d="M693.1,322.6a4.47,4.47,0,0,1,.56,1.41,4.13,4.13,0,0,1-1.5,4l-.67-.4a.29.29,0,0,1-.12-.13.19.19,0,0,1,0-.14.4.4,0,0,1,0-.15.83.83,0,0,1,.08-.12,2.58,2.58,0,0,0,.35-.56,3.16,3.16,0,0,0,.22-.79,2.79,2.79,0,0,0-.4-1.93.52.52,0,0,1-.09-.43.43.43,0,0,1,.28-.26Zm2.85,0a4.22,4.22,0,0,1,.55,1.41,3.93,3.93,0,0,1,0,1.45,4.12,4.12,0,0,1-.5,1.37,4.4,4.4,0,0,1-1,1.18l-.67-.4a.49.49,0,0,1-.12-.13.39.39,0,0,1,0-.14.83.83,0,0,1,0-.15l.08-.12a2.58,2.58,0,0,0,.34-.56,2.79,2.79,0,0,0,.23-.79,2.93,2.93,0,0,0,0-.93,2.54,2.54,0,0,0-.39-1,.55.55,0,0,1-.08-.43.41.41,0,0,1,.28-.26Z"/><rect class="cls-5" x="668.15" y="786.31" width="194.84" height="49.11"/><path d="M700.61,815.81h-2.09a.92.92,0,0,1-.86-.46l-2.6-4a1,1,0,0,0-.32-.32,1.18,1.18,0,0,0-.52-.09h-1v4.84h-2.31v-12.4h3.79a8,8,0,0,1,2.16.26,4.11,4.11,0,0,1,1.48.74,2.91,2.91,0,0,1,.86,1.12,4,4,0,0,1,.09,2.63,3.36,3.36,0,0,1-.53,1,3.65,3.65,0,0,1-.86.8,4.26,4.26,0,0,1-1.16.54,2.94,2.94,0,0,1,.41.31,2,2,0,0,1,.34.41Zm-5.94-6.5a3.57,3.57,0,0,0,1.14-.16,2.16,2.16,0,0,0,.79-.45,1.77,1.77,0,0,0,.47-.68,2.28,2.28,0,0,0,.16-.87,1.75,1.75,0,0,0-.63-1.45,2.92,2.92,0,0,0-1.89-.5h-1.48v4.11Z"/><path d="M704.27,805.25v3.44h4.34v1.77h-4.34V814h5.5v1.84H702v-12.4h7.82v1.84Z"/><path d="M725.26,803.41v12.4h-2v-8a9.74,9.74,0,0,1,0-1l-3.75,7a.87.87,0,0,1-.81.51h-.33a.85.85,0,0,1-.81-.51l-3.79-7.06c0,.19,0,.37,0,.56s0,.35,0,.5v8h-2v-12.4h2l.2,0a.46.46,0,0,1,.16.11,1,1,0,0,1,.15.21l3.71,6.89a5.77,5.77,0,0,1,.27.56l.24.6c.08-.21.17-.41.25-.61s.18-.39.28-.57l3.66-6.87a.7.7,0,0,1,.14-.21.82.82,0,0,1,.17-.11l.2,0h2Z"/><path d="M739.85,809.61a7,7,0,0,1-.45,2.53,6,6,0,0,1-1.28,2,5.93,5.93,0,0,1-2,1.32,7.09,7.09,0,0,1-5.13,0,5.87,5.87,0,0,1-2-1.32,6,6,0,0,1-1.28-2,6.77,6.77,0,0,1-.46-2.53,6.68,6.68,0,0,1,.46-2.52,6,6,0,0,1,1.28-2,5.87,5.87,0,0,1,2-1.32,6.6,6.6,0,0,1,2.56-.48,7.15,7.15,0,0,1,1.77.22,6.13,6.13,0,0,1,1.53.62,5.8,5.8,0,0,1,2.19,2.24,6.37,6.37,0,0,1,.58,1.53A7,7,0,0,1,739.85,809.61Zm-2.36,0a5.5,5.5,0,0,0-.28-1.83,3.88,3.88,0,0,0-.78-1.38,3.29,3.29,0,0,0-1.23-.86,4.19,4.19,0,0,0-1.63-.3,4.28,4.28,0,0,0-1.64.3,3.46,3.46,0,0,0-1.23.86,3.88,3.88,0,0,0-.78,1.38,6.12,6.12,0,0,0,0,3.66,3.75,3.75,0,0,0,.78,1.37,3.36,3.36,0,0,0,1.23.87,4.28,4.28,0,0,0,1.64.3,4.19,4.19,0,0,0,1.63-.3,3.21,3.21,0,0,0,1.23-.87,3.75,3.75,0,0,0,.78-1.37A5.5,5.5,0,0,0,737.49,809.61Z"/><path d="M752.1,803.41l-5,12.4H745l-5-12.4h1.85a.75.75,0,0,1,.49.15.8.8,0,0,1,.28.37l2.93,7.57a8.41,8.41,0,0,1,.28.81c.09.29.17.6.25.92.07-.32.14-.63.22-.92a6.4,6.4,0,0,1,.27-.81l2.91-7.57a.8.8,0,0,1,.76-.52Z"/><path d="M755.7,805.25v3.44H760v1.77H755.7V814h5.51v1.84h-7.82v-12.4h7.82v1.84Z"/><path d="M767.71,815.81v-7.2l-.77-.12a1.06,1.06,0,0,1-.4-.18.43.43,0,0,1-.15-.35v-.87h1.32v-.28a4.3,4.3,0,0,1,.26-1.5,3.27,3.27,0,0,1,.81-1.2,3.89,3.89,0,0,1,1.37-.79,6,6,0,0,1,2-.29c.24,0,.48,0,.73,0a3.39,3.39,0,0,1,.65.13l-.07,1.09a.24.24,0,0,1-.22.24,2.21,2.21,0,0,1-.48,0,6.11,6.11,0,0,0-1.4.14,2.49,2.49,0,0,0-.91.44,1.57,1.57,0,0,0-.49.72,3.07,3.07,0,0,0-.15,1v.21h5.45v8.72h-2.12V808.6h-3.27v7.21Z"/><path d="M779.38,808.54a3.67,3.67,0,0,1,1-1.24,2.06,2.06,0,0,1,1.33-.45,1.61,1.61,0,0,1,1,.27l-.14,1.58a.39.39,0,0,1-.12.22.36.36,0,0,1-.22.06,2.31,2.31,0,0,1-.38,0,2.77,2.77,0,0,0-.49,0,1.74,1.74,0,0,0-.63.1,1.54,1.54,0,0,0-.49.3,1.81,1.81,0,0,0-.39.47,5.11,5.11,0,0,0-.31.62v5.42h-2.12V807h1.24a.69.69,0,0,1,.46.12.71.71,0,0,1,.17.41Z"/><path d="M789.12,808.73a.66.66,0,0,1-.18.19.43.43,0,0,1-.24.06.75.75,0,0,1-.33-.09l-.41-.19a4,4,0,0,0-.53-.2,2.78,2.78,0,0,0-.69-.08,1.62,1.62,0,0,0-1,.27.82.82,0,0,0-.35.69.68.68,0,0,0,.18.48,1.83,1.83,0,0,0,.49.33,4.52,4.52,0,0,0,.69.27c.26.07.52.16.79.25s.52.19.78.31a2.74,2.74,0,0,1,.69.45,2,2,0,0,1,.49.65,2.06,2.06,0,0,1,.18.9,2.94,2.94,0,0,1-.22,1.17,2.49,2.49,0,0,1-.68.93,3.15,3.15,0,0,1-1.1.61,4.66,4.66,0,0,1-1.51.22,5.26,5.26,0,0,1-.89-.08,5.32,5.32,0,0,1-.83-.23,5,5,0,0,1-.74-.34,3.9,3.9,0,0,1-.59-.43l.48-.81a.68.68,0,0,1,.23-.22.61.61,0,0,1,.32-.08.76.76,0,0,1,.38.11,3.52,3.52,0,0,0,.4.24,3.13,3.13,0,0,0,.55.24,2.25,2.25,0,0,0,.79.11,2.46,2.46,0,0,0,.65-.08,1.4,1.4,0,0,0,.44-.24.84.84,0,0,0,.26-.34.92.92,0,0,0,.08-.4.71.71,0,0,0-.18-.5,1.54,1.54,0,0,0-.49-.35,5.93,5.93,0,0,0-.69-.26l-.8-.25a7.85,7.85,0,0,1-.8-.32,2.8,2.8,0,0,1-.69-.47,2,2,0,0,1-.49-.7,2.27,2.27,0,0,1-.19-1,2.45,2.45,0,0,1,.22-1,2.36,2.36,0,0,1,.63-.85,3.13,3.13,0,0,1,1-.59,4.55,4.55,0,0,1,1.44-.21,4.42,4.42,0,0,1,1.66.3,3.86,3.86,0,0,1,1.24.78Z"/><path d="M794.22,816a2.32,2.32,0,0,1-1.76-.65,2.49,2.49,0,0,1-.61-1.79V808.6H791a.44.44,0,0,1-.3-.11.45.45,0,0,1-.12-.34v-.84l1.42-.23.44-2.4a.55.55,0,0,1,.17-.27.5.5,0,0,1,.31-.09H794v2.77h2.35v1.51H794v4.77a.91.91,0,0,0,.21.64.69.69,0,0,0,.55.23.82.82,0,0,0,.33,0l.23-.09.18-.1a.3.3,0,0,1,.15,0,.25.25,0,0,1,.15,0,.6.6,0,0,1,.13.14l.64,1a3.22,3.22,0,0,1-1.06.58A4.09,4.09,0,0,1,794.22,816Z"/><path d="M804,803.07v12.74h-2.12V803.07Z"/><path d="M807.73,811.68a3.9,3.9,0,0,0,.24,1.17,2.19,2.19,0,0,0,.5.81,1.79,1.79,0,0,0,.73.48,2.54,2.54,0,0,0,.94.16,2.84,2.84,0,0,0,.88-.12,5.35,5.35,0,0,0,.66-.26l.49-.27a.77.77,0,0,1,.4-.12.45.45,0,0,1,.4.2l.61.77a4,4,0,0,1-.79.69,5,5,0,0,1-1.89.68,6.16,6.16,0,0,1-.95.07,4.6,4.6,0,0,1-1.71-.31,3.8,3.8,0,0,1-1.37-.9,4.19,4.19,0,0,1-.92-1.47,5.78,5.78,0,0,1-.33-2,5,5,0,0,1,.29-1.69,3.88,3.88,0,0,1,.84-1.38,3.94,3.94,0,0,1,1.32-.93,4.42,4.42,0,0,1,1.78-.34,4.24,4.24,0,0,1,1.53.26,3.41,3.41,0,0,1,1.21.78,3.47,3.47,0,0,1,.79,1.25,4.68,4.68,0,0,1,.29,1.69,1.37,1.37,0,0,1-.1.65.44.44,0,0,1-.4.17Zm4-1.28a2.5,2.5,0,0,0-.12-.78,1.9,1.9,0,0,0-.35-.64,1.69,1.69,0,0,0-.58-.43,2.15,2.15,0,0,0-.83-.16,2,2,0,0,0-1.45.53,2.58,2.58,0,0,0-.67,1.48Z"/><path d="M818.1,816a2.32,2.32,0,0,1-1.76-.65,2.49,2.49,0,0,1-.61-1.79V808.6h-.9a.42.42,0,0,1-.29-.11.45.45,0,0,1-.12-.34v-.84l1.41-.23.45-2.4a.53.53,0,0,1,.16-.27.5.5,0,0,1,.31-.09h1.1v2.77h3.66l.45-2.41a.53.53,0,0,1,.16-.27.5.5,0,0,1,.31-.09h1.09v2.77h2.35v1.51h-2.35v4.77a.91.91,0,0,0,.21.64.72.72,0,0,0,.56.23.8.8,0,0,0,.32,0l.24-.09.17-.1a.37.37,0,0,1,.16,0,.25.25,0,0,1,.15,0,.6.6,0,0,1,.13.14l.64,1a3.17,3.17,0,0,1-1.07.58,4,4,0,0,1-1.24.2,2.33,2.33,0,0,1-1.77-.65,2.49,2.49,0,0,1-.61-1.79V808.6h-3.56v4.77a.91.91,0,0,0,.2.64.7.7,0,0,0,.55.23.82.82,0,0,0,.33,0l.23-.09.18-.1a.3.3,0,0,1,.15,0,.25.25,0,0,1,.16,0,.92.92,0,0,1,.13.14l.63,1a3.12,3.12,0,0,1-1.06.58A4,4,0,0,1,818.1,816Z"/><path d="M828.79,811.68a3.9,3.9,0,0,0,.24,1.17,2.19,2.19,0,0,0,.5.81,1.79,1.79,0,0,0,.73.48,2.58,2.58,0,0,0,.94.16,3,3,0,0,0,.89-.12,5.16,5.16,0,0,0,.65-.26l.49-.27a.8.8,0,0,1,.4-.12.45.45,0,0,1,.4.2l.61.77a4,4,0,0,1-.79.69,4.09,4.09,0,0,1-.92.44,4,4,0,0,1-1,.24,6.39,6.39,0,0,1-1,.07,4.6,4.6,0,0,1-1.71-.31,3.8,3.8,0,0,1-1.37-.9,4.19,4.19,0,0,1-.92-1.47,5.78,5.78,0,0,1-.33-2,5,5,0,0,1,.29-1.69,4,4,0,0,1,.84-1.38,3.88,3.88,0,0,1,1.33-.93,4.33,4.33,0,0,1,1.77-.34,4.24,4.24,0,0,1,1.53.26,3.41,3.41,0,0,1,1.21.78,3.47,3.47,0,0,1,.79,1.25,4.47,4.47,0,0,1,.29,1.69,1.37,1.37,0,0,1-.1.65.44.44,0,0,1-.4.17Zm4-1.28a2.5,2.5,0,0,0-.12-.78,1.74,1.74,0,0,0-.35-.64,1.69,1.69,0,0,0-.58-.43,2.15,2.15,0,0,0-.83-.16,2,2,0,0,0-1.44.53,2.53,2.53,0,0,0-.68,1.48Z"/><path d="M838.32,808.54a3.78,3.78,0,0,1,1-1.24,2.11,2.11,0,0,1,1.34-.45,1.63,1.63,0,0,1,1,.27l-.14,1.58a.45.45,0,0,1-.12.22.38.38,0,0,1-.22.06,2.21,2.21,0,0,1-.38,0,2.89,2.89,0,0,0-.5,0,1.72,1.72,0,0,0-.62.1,1.44,1.44,0,0,0-.49.3,1.81,1.81,0,0,0-.39.47,4,4,0,0,0-.31.62v5.42h-2.12V807h1.24a.69.69,0,0,1,.46.12.71.71,0,0,1,.17.41Z"/><rect class="cls-5" x="668.17" y="623.35" width="194.84" height="49.11"/><path d="M703.14,652.85h-1.78a.77.77,0,0,1-.49-.15.88.88,0,0,1-.28-.38l-.93-2.53h-5.14l-.92,2.53a.78.78,0,0,1-.27.36.73.73,0,0,1-.49.17H691l4.88-12.4h2.35Zm-4.07-4.68L697.56,644c-.07-.18-.15-.4-.23-.65s-.16-.52-.24-.82c-.08.3-.15.57-.23.82s-.16.48-.23.67l-1.51,4.11Z"/><path d="M708.46,640.45a6.86,6.86,0,0,1,2.15.29,4.13,4.13,0,0,1,1.5.81,3.21,3.21,0,0,1,.88,1.25,4.62,4.62,0,0,1,0,3.25,3.42,3.42,0,0,1-.9,1.29,4.15,4.15,0,0,1-1.51.84,6.71,6.71,0,0,1-2.11.3h-1.72v4.37h-2.31v-12.4Zm0,6.23a3.42,3.42,0,0,0,1.11-.16,2,2,0,0,0,.78-.45,2,2,0,0,0,.47-.72,2.87,2.87,0,0,0,.15-1,2.57,2.57,0,0,0-.15-.9,1.84,1.84,0,0,0-.47-.69,2,2,0,0,0-.78-.43,3.63,3.63,0,0,0-1.11-.15h-1.72v4.45Z"/><path d="M719.08,640.45a7,7,0,0,1,2.15.29,4.3,4.3,0,0,1,1.5.81,3.31,3.31,0,0,1,.88,1.25,4.37,4.37,0,0,1,.28,1.6,4.61,4.61,0,0,1-.29,1.65,3.56,3.56,0,0,1-.91,1.29,4.19,4.19,0,0,1-1.5.84,6.71,6.71,0,0,1-2.11.3h-1.73v4.37h-2.3v-12.4Zm0,6.23a3.31,3.31,0,0,0,1.1-.16,2,2,0,0,0,.79-.45,1.82,1.82,0,0,0,.46-.72,2.63,2.63,0,0,0,.16-1,2.36,2.36,0,0,0-.16-.9,1.71,1.71,0,0,0-.46-.69,2.1,2.1,0,0,0-.78-.43,3.68,3.68,0,0,0-1.11-.15h-1.73v4.45Z"/><path d="M728,642.28v3.44h4.34v1.78H728V651h5.5v1.85h-7.82v-12.4h7.82v1.83Z"/><path d="M746,640.45v12.4h-1.19a1.08,1.08,0,0,1-.46-.09,1,1,0,0,1-.35-.31l-6.48-8.26a9.62,9.62,0,0,1,0,1v7.62h-2v-12.4H737a.74.74,0,0,1,.19,0,.57.57,0,0,1,.16.11l.17.2,6.5,8.3c0-.2,0-.4,0-.59s0-.38,0-.55v-7.53Z"/><path d="M759.75,646.65a6.54,6.54,0,0,1-.46,2.5,5.53,5.53,0,0,1-3.25,3.24,6.89,6.89,0,0,1-2.58.46h-4.72v-12.4h4.72a6.89,6.89,0,0,1,2.58.46,5.55,5.55,0,0,1,3.25,3.23A6.6,6.6,0,0,1,759.75,646.65Zm-2.37,0a5.77,5.77,0,0,0-.27-1.83,3.88,3.88,0,0,0-.78-1.38,3.46,3.46,0,0,0-1.23-.86,4.28,4.28,0,0,0-1.64-.3h-2.41V651h2.41a4.28,4.28,0,0,0,1.64-.3,3.46,3.46,0,0,0,1.23-.86,3.75,3.75,0,0,0,.78-1.37A5.77,5.77,0,0,0,757.38,646.65Z"/><path d="M766.24,652.85v-7.21l-.76-.12a.87.87,0,0,1-.4-.17.43.43,0,0,1-.15-.36v-.86h1.31v-.29a4.07,4.07,0,0,1,.27-1.49,3.13,3.13,0,0,1,.8-1.2,3.74,3.74,0,0,1,1.37-.79,6,6,0,0,1,2-.29,6.06,6.06,0,0,1,.73,0,3.44,3.44,0,0,1,.65.12l-.07,1.1a.25.25,0,0,1-.21.24,3.23,3.23,0,0,1-.49,0,5.46,5.46,0,0,0-1.39.14,2.34,2.34,0,0,0-.91.43,1.62,1.62,0,0,0-.5.72,3.11,3.11,0,0,0-.15,1v.22h5.45v8.72h-2.12v-7.22h-3.26v7.22Z"/><path d="M777.91,645.58a3.67,3.67,0,0,1,1-1.24,2.06,2.06,0,0,1,1.33-.45,1.6,1.6,0,0,1,1,.26l-.13,1.59a.43.43,0,0,1-.13.22.36.36,0,0,1-.22.06,2.31,2.31,0,0,1-.38,0,2.77,2.77,0,0,0-.49,0,1.74,1.74,0,0,0-.63.1,1.72,1.72,0,0,0-.49.29,2,2,0,0,0-.39.47,4.63,4.63,0,0,0-.31.63v5.42h-2.12v-8.8h1.25a.74.74,0,0,1,.45.11.68.68,0,0,1,.17.42Z"/><path d="M787.65,645.76a.51.51,0,0,1-.18.2.54.54,0,0,1-.24,0,.88.88,0,0,1-.33-.08l-.41-.2a4.41,4.41,0,0,0-.52-.19,2.45,2.45,0,0,0-.7-.08,1.57,1.57,0,0,0-1,.26.83.83,0,0,0-.36.7.67.67,0,0,0,.18.47,1.84,1.84,0,0,0,.49.34,5.52,5.52,0,0,0,.69.26l.79.25c.26.1.53.2.78.32a2.71,2.71,0,0,1,.69.44,2,2,0,0,1,.68,1.56,3,3,0,0,1-.23,1.17,2.58,2.58,0,0,1-.67.93,3.29,3.29,0,0,1-1.11.61,4.92,4.92,0,0,1-1.51.21,4.4,4.4,0,0,1-.89-.08,4.6,4.6,0,0,1-1.57-.57,3.32,3.32,0,0,1-.59-.43l.49-.8a.58.58,0,0,1,.22-.22.56.56,0,0,1,.33-.08.64.64,0,0,1,.37.11l.41.24a4.76,4.76,0,0,0,.54.24,2.5,2.5,0,0,0,.79.11,2.08,2.08,0,0,0,.65-.09,1.37,1.37,0,0,0,.45-.24.88.88,0,0,0,.25-.33,1,1,0,0,0,.09-.4.73.73,0,0,0-.19-.51,1.57,1.57,0,0,0-.49-.34,3.68,3.68,0,0,0-.69-.26c-.26-.08-.53-.16-.8-.26a6.07,6.07,0,0,1-.8-.32,2.77,2.77,0,0,1-.69-.46,2.1,2.1,0,0,1-.49-.7,2.47,2.47,0,0,1-.18-1,2.56,2.56,0,0,1,.21-1,2.39,2.39,0,0,1,.63-.86,3.24,3.24,0,0,1,1-.58,4.17,4.17,0,0,1,1.43-.22,4.42,4.42,0,0,1,1.66.3,3.62,3.62,0,0,1,1.24.79Z"/><path d="M792.75,653a2.32,2.32,0,0,1-1.76-.64,2.49,2.49,0,0,1-.61-1.79v-4.92h-.9a.38.38,0,0,1-.29-.11.42.42,0,0,1-.12-.33v-.84l1.41-.23.45-2.4a.46.46,0,0,1,.16-.27.5.5,0,0,1,.31-.09h1.1v2.77h2.35v1.5H792.5v4.77a.94.94,0,0,0,.2.65.7.7,0,0,0,.55.23,1,1,0,0,0,.33,0,1,1,0,0,0,.23-.1l.18-.1a.28.28,0,0,1,.15,0,.25.25,0,0,1,.16,0,.92.92,0,0,1,.13.14l.63,1a3.15,3.15,0,0,1-1.06.59A4,4,0,0,1,792.75,653Z"/><path d="M802.51,640.1v12.75h-2.12V640.1Z"/><path d="M806.26,648.71a3.77,3.77,0,0,0,.24,1.17,2.47,2.47,0,0,0,.5.82,2,2,0,0,0,.73.48,2.58,2.58,0,0,0,.94.16,3,3,0,0,0,.89-.12,4,4,0,0,0,.65-.27l.49-.26a.8.8,0,0,1,.4-.12.45.45,0,0,1,.4.19l.61.78a4,4,0,0,1-.79.69,4.76,4.76,0,0,1-.91.44,5.5,5.5,0,0,1-1,.24,8,8,0,0,1-1,.07,4.81,4.81,0,0,1-1.71-.31,3.8,3.8,0,0,1-1.37-.9,4.38,4.38,0,0,1-.92-1.47,5.82,5.82,0,0,1-.33-2,4.92,4.92,0,0,1,.29-1.69,4,4,0,0,1,.84-1.38,3.77,3.77,0,0,1,1.33-.94,4.5,4.5,0,0,1,1.77-.34,4.24,4.24,0,0,1,1.53.27,3.26,3.26,0,0,1,1.21.77,3.68,3.68,0,0,1,.8,1.26,4.64,4.64,0,0,1,.28,1.69,1.37,1.37,0,0,1-.1.65.42.42,0,0,1-.39.16Zm4-1.27a2.45,2.45,0,0,0-.12-.78,1.79,1.79,0,0,0-.34-.64,1.61,1.61,0,0,0-.59-.43,2,2,0,0,0-.83-.16A1.94,1.94,0,0,0,807,646a2.56,2.56,0,0,0-.68,1.49Z"/><path d="M816.64,653a2.33,2.33,0,0,1-1.77-.64,2.54,2.54,0,0,1-.61-1.79v-4.92h-.9a.39.39,0,0,1-.29-.11.42.42,0,0,1-.12-.33v-.84l1.41-.23.45-2.4a.46.46,0,0,1,.16-.27.52.52,0,0,1,.31-.09h1.1v2.77H820l.46-2.41a.45.45,0,0,1,.15-.27.53.53,0,0,1,.32-.09h1.09v2.77h2.35v1.5h-2.35v4.77a.94.94,0,0,0,.2.65.74.74,0,0,0,.56.23,1,1,0,0,0,.32,0,.91.91,0,0,0,.24-.1l.18-.1a.28.28,0,0,1,.15,0,.27.27,0,0,1,.16,0,.58.58,0,0,1,.12.14l.64,1a3.15,3.15,0,0,1-1.06.59,4,4,0,0,1-1.25.19,2.36,2.36,0,0,1-1.77-.64,2.49,2.49,0,0,1-.61-1.79v-4.92h-3.56v4.77a1,1,0,0,0,.2.65.72.72,0,0,0,.55.23,1,1,0,0,0,.33,0,1.33,1.33,0,0,0,.24-.1l.17-.1a.29.29,0,0,1,.16,0,.24.24,0,0,1,.15,0,.92.92,0,0,1,.13.14l.63,1a3.15,3.15,0,0,1-1.06.59A4,4,0,0,1,816.64,653Z"/><path d="M827.32,648.71a4.46,4.46,0,0,0,.24,1.17,2.47,2.47,0,0,0,.5.82,2,2,0,0,0,.73.48,2.58,2.58,0,0,0,.94.16,3,3,0,0,0,.89-.12,4,4,0,0,0,.65-.27c.19-.09.35-.18.49-.26a.81.81,0,0,1,.41-.12.44.44,0,0,1,.39.19l.61.78a4,4,0,0,1-.79.69,4.76,4.76,0,0,1-.91.44,5.5,5.5,0,0,1-1,.24,8,8,0,0,1-1,.07,4.71,4.71,0,0,1-1.7-.31,3.75,3.75,0,0,1-1.38-.9,4.21,4.21,0,0,1-.91-1.47,5.59,5.59,0,0,1-.34-2,4.92,4.92,0,0,1,.29-1.69,4.19,4.19,0,0,1,.84-1.38,3.87,3.87,0,0,1,1.33-.94,4.5,4.5,0,0,1,1.77-.34,4.2,4.2,0,0,1,1.53.27,3.18,3.18,0,0,1,1.21.77,3.53,3.53,0,0,1,.8,1.26,4.64,4.64,0,0,1,.28,1.69,1.37,1.37,0,0,1-.1.65.42.42,0,0,1-.39.16Zm4-1.27a2.45,2.45,0,0,0-.12-.78,1.79,1.79,0,0,0-.34-.64,1.61,1.61,0,0,0-.59-.43A2.25,2.25,0,0,0,828,646a2.62,2.62,0,0,0-.68,1.49Z"/><path d="M836.85,645.58a3.67,3.67,0,0,1,1-1.24,2.06,2.06,0,0,1,1.33-.45,1.6,1.6,0,0,1,1,.26l-.14,1.59a.51.51,0,0,1-.12.22.36.36,0,0,1-.22.06,2.31,2.31,0,0,1-.38,0,2.77,2.77,0,0,0-.49,0,1.74,1.74,0,0,0-.63.1,1.72,1.72,0,0,0-.49.29,2,2,0,0,0-.39.47,4.63,4.63,0,0,0-.31.63v5.42h-2.12v-8.8h1.24a.51.51,0,0,1,.63.53Z"/><rect class="cls-5" x="668.15" y="705.52" width="194.84" height="49.11"/><path d="M725.74,735H724a.77.77,0,0,1-.49-.15.93.93,0,0,1-.28-.37l-.93-2.53h-5.13l-.93,2.53a.82.82,0,0,1-.27.36.72.72,0,0,1-.49.16h-1.8l4.88-12.4h2.35Zm-4.07-4.68-1.51-4.13c-.07-.18-.15-.4-.23-.65s-.16-.52-.24-.81c-.07.29-.15.56-.23.82s-.16.47-.23.66l-1.5,4.11Z"/><path d="M731.06,722.62a7.17,7.17,0,0,1,2.15.29,4.14,4.14,0,0,1,1.5.82,3.13,3.13,0,0,1,.88,1.25,4.62,4.62,0,0,1,0,3.25,3.42,3.42,0,0,1-.9,1.29,4.15,4.15,0,0,1-1.51.84,6.67,6.67,0,0,1-2.11.3h-1.72V735H727v-12.4Zm0,6.24a3.71,3.71,0,0,0,1.11-.16,2.15,2.15,0,0,0,.78-.46,1.71,1.71,0,0,0,.47-.72,2.81,2.81,0,0,0,.15-.94,2.59,2.59,0,0,0-.15-.91A1.86,1.86,0,0,0,733,725a2.1,2.1,0,0,0-.78-.43,3.75,3.75,0,0,0-1.12-.15h-1.72v4.45Z"/><path d="M741.68,722.62a7.22,7.22,0,0,1,2.15.29,4.23,4.23,0,0,1,1.5.82,3.24,3.24,0,0,1,.88,1.25,4.62,4.62,0,0,1,0,3.25,3.42,3.42,0,0,1-.9,1.29,4.24,4.24,0,0,1-1.51.84,6.71,6.71,0,0,1-2.11.3H740V735h-2.3v-12.4Zm0,6.24a3.6,3.6,0,0,0,1.1-.16,2.11,2.11,0,0,0,.79-.46,1.81,1.81,0,0,0,.47-.72,2.81,2.81,0,0,0,.15-.94,2.59,2.59,0,0,0-.15-.91,1.89,1.89,0,0,0-.47-.68,2,2,0,0,0-.78-.43,3.63,3.63,0,0,0-1.11-.15H740v4.45Z"/><path d="M750.58,724.46v3.44h4.34v1.77h-4.34v3.51h5.5V735h-7.82v-12.4h7.82v1.84Z"/><path d="M768.58,722.62V735h-1.19a1.08,1.08,0,0,1-.46-.09,1.06,1.06,0,0,1-.35-.3l-6.48-8.27a10.09,10.09,0,0,1,.06,1V735h-2v-12.4h1.47a.48.48,0,0,1,.18.06.42.42,0,0,1,.16.11,1.72,1.72,0,0,1,.17.19l6.5,8.3c0-.2,0-.4,0-.59s0-.37,0-.54v-7.54Z"/><path d="M782.35,728.82a6.6,6.6,0,0,1-.46,2.51,5.67,5.67,0,0,1-1.27,2,5.83,5.83,0,0,1-2,1.28,7.09,7.09,0,0,1-2.58.45h-4.72v-12.4h4.72a7.09,7.09,0,0,1,2.58.46,5.83,5.83,0,0,1,2,1.28,5.58,5.58,0,0,1,1.27,2A6.54,6.54,0,0,1,782.35,728.82Zm-2.37,0a5.77,5.77,0,0,0-.27-1.83,3.75,3.75,0,0,0-.78-1.37,3.34,3.34,0,0,0-1.23-.86,4.28,4.28,0,0,0-1.64-.3h-2.41v8.73h2.41a4.28,4.28,0,0,0,1.64-.3,3.46,3.46,0,0,0,1.23-.86,3.88,3.88,0,0,0,.78-1.38A5.77,5.77,0,0,0,780,728.82Z"/><path d="M788.52,727.06a4.36,4.36,0,0,1-.55-1.42,3.93,3.93,0,0,1,0-1.45,4.2,4.2,0,0,1,.5-1.37,4.56,4.56,0,0,1,1-1.18l.66.41a.28.28,0,0,1,.15.27.42.42,0,0,1-.11.26,2.24,2.24,0,0,0-.34.56,2.79,2.79,0,0,0-.23.79,3.3,3.3,0,0,0,0,.94,2.56,2.56,0,0,0,.39,1,.5.5,0,0,1,.08.44.43.43,0,0,1-.28.26Zm2.85,0a4.62,4.62,0,0,1-.56-1.42,4.16,4.16,0,0,1,0-1.45,4,4,0,0,1,.5-1.37,4.51,4.51,0,0,1,1-1.18l.66.41a.27.27,0,0,1,.16.27.42.42,0,0,1-.11.26,2.58,2.58,0,0,0-.35.56,2.79,2.79,0,0,0-.22.79,3,3,0,0,0,0,.94,2.56,2.56,0,0,0,.39,1,.5.5,0,0,1,.08.44.43.43,0,0,1-.28.26Z"/><path d="M794.3,727.45a5.18,5.18,0,0,1,3.65-1.39,3.57,3.57,0,0,1,1.38.25,3,3,0,0,1,1,.71,3.11,3.11,0,0,1,.64,1.07,4.32,4.32,0,0,1,.22,1.37V735h-1a1,1,0,0,1-.46-.09.65.65,0,0,1-.26-.36l-.18-.64a7.3,7.3,0,0,1-.66.53,3.64,3.64,0,0,1-.66.38,3.47,3.47,0,0,1-.73.24,4.57,4.57,0,0,1-.86.08,3.37,3.37,0,0,1-1-.15,2.21,2.21,0,0,1-.81-.45,2.07,2.07,0,0,1-.54-.75,2.7,2.7,0,0,1-.19-1,1.93,1.93,0,0,1,.12-.67,1.83,1.83,0,0,1,.36-.63,3.16,3.16,0,0,1,.66-.57,4.36,4.36,0,0,1,1-.46,8.28,8.28,0,0,1,1.36-.32,15,15,0,0,1,1.79-.15v-.52a1.92,1.92,0,0,0-.38-1.3,1.39,1.39,0,0,0-1.09-.43,2.55,2.55,0,0,0-.85.12,3.37,3.37,0,0,0-.6.27l-.46.27a.94.94,0,0,1-.47.12.66.66,0,0,1-.38-.11,1.06,1.06,0,0,1-.25-.27Zm4.85,3.82a11.79,11.79,0,0,0-1.55.15,4.28,4.28,0,0,0-1,.3,1.34,1.34,0,0,0-.54.42.89.89,0,0,0-.16.52.91.91,0,0,0,.33.8,1.43,1.43,0,0,0,.86.24,2.51,2.51,0,0,0,1.13-.24,3.12,3.12,0,0,0,.93-.71Z"/><path d="M811,726.22l-4.8,11.22a.8.8,0,0,1-.24.34.73.73,0,0,1-.46.11h-1.58l1.65-3.53L802,726.22h1.86a.57.57,0,0,1,.39.12.69.69,0,0,1,.21.28l1.87,4.56a4.19,4.19,0,0,1,.16.46l.12.48c.06-.16.11-.32.16-.48s.11-.31.17-.47l1.77-4.55a.63.63,0,0,1,.22-.29.66.66,0,0,1,.36-.11Z"/><path d="M813.44,721.79a4.25,4.25,0,0,1,.56,1.41,3.88,3.88,0,0,1-.48,2.82,4.19,4.19,0,0,1-1,1.18l-.67-.4a.29.29,0,0,1-.12-.13.35.35,0,0,1,0-.14.33.33,0,0,1,0-.14.25.25,0,0,1,.08-.12,2.68,2.68,0,0,0,.34-.57,3,3,0,0,0,.23-.79,3.25,3.25,0,0,0,0-.93,2.6,2.6,0,0,0-.39-1,.51.51,0,0,1-.08-.43.41.41,0,0,1,.28-.26Zm2.85,0a4.47,4.47,0,0,1,.56,1.41,4.16,4.16,0,0,1,0,1.45,3.91,3.91,0,0,1-.5,1.37,4.19,4.19,0,0,1-1,1.18l-.67-.4a.29.29,0,0,1-.12-.13.24.24,0,0,1,0-.14.32.32,0,0,1,0-.14.36.36,0,0,1,.08-.12,2.68,2.68,0,0,0,.57-1.36,2.91,2.91,0,0,0,0-.93,3,3,0,0,0-.39-1,.52.52,0,0,1-.09-.43.45.45,0,0,1,.28-.26Z"/><line class="cls-3" x1="765.58" y1="675.03" x2="765.58" y2="693.78"/><polygon class="cls-2" points="758.54 688.44 765.58 691.43 772.62 688.44 765.58 705.13 758.54 688.44"/><line class="cls-3" x1="765.58" y1="755.82" x2="765.58" y2="774.57"/><polygon class="cls-2" points="758.54 769.23 765.58 772.22 772.62 769.23 765.58 785.92 758.54 769.23"/><line class="cls-3" x1="650.73" y1="275.05" x2="650.73" y2="293.8"/><polygon class="cls-2" points="643.69 288.46 650.73 291.45 657.77 288.46 650.73 305.14 643.69 288.46"/><ellipse class="cls-6" cx="650.43" cy="932.05" rx="81.58" ry="24.95"/><path d="M636.07,927.53V931h4.33v1.77h-4.33v3.51h5.5v1.84h-7.82v-12.4h7.82v1.84Z"/><path d="M654.06,925.69v12.4h-1.18a1.08,1.08,0,0,1-.46-.09,1.06,1.06,0,0,1-.35-.3l-6.48-8.27a9.92,9.92,0,0,1,0,1.05v7.61h-2v-12.4h1.21l.25,0a.53.53,0,0,1,.19,0,.57.57,0,0,1,.16.11,1.72,1.72,0,0,1,.17.19l6.5,8.3c0-.2,0-.39,0-.59s0-.37,0-.54v-7.54Z"/><path d="M667.84,931.89a6.6,6.6,0,0,1-.46,2.51,5.7,5.7,0,0,1-1.28,2,5.51,5.51,0,0,1-2,1.28,7,7,0,0,1-2.57.45h-4.72v-12.4h4.72a7,7,0,0,1,2.57.46,5.79,5.79,0,0,1,2,1.28,5.7,5.7,0,0,1,1.28,2A6.58,6.58,0,0,1,667.84,931.89Zm-2.37,0a5.77,5.77,0,0,0-.27-1.83,3.83,3.83,0,0,0-.78-1.37,3.41,3.41,0,0,0-1.24-.86,4.19,4.19,0,0,0-1.63-.3h-2.41v8.73h2.41a4.19,4.19,0,0,0,1.63-.3,3.41,3.41,0,0,0,1.24-.86,3.83,3.83,0,0,0,.78-1.37A5.79,5.79,0,0,0,665.47,931.89Z"/><rect class="cls-5" x="553.31" y="387.91" width="194.84" height="49.11"/><path d="M584.26,407.27a.84.84,0,0,1-.22.26.52.52,0,0,1-.29.08.72.72,0,0,1-.39-.13l-.5-.3a4,4,0,0,0-.68-.3,3.14,3.14,0,0,0-.92-.13,2.66,2.66,0,0,0-.84.12,1.61,1.61,0,0,0-.61.32,1.33,1.33,0,0,0-.36.49,1.61,1.61,0,0,0-.12.63,1.11,1.11,0,0,0,.24.73,2,2,0,0,0,.65.5,5.68,5.68,0,0,0,.92.37l1.05.34c.36.13.71.27,1.06.43a3.85,3.85,0,0,1,.91.62,2.74,2.74,0,0,1,.65.91,3.24,3.24,0,0,1,.25,1.32,4.29,4.29,0,0,1-.29,1.57,3.65,3.65,0,0,1-.84,1.28,4.06,4.06,0,0,1-1.35.86,5.16,5.16,0,0,1-1.83.31,5.64,5.64,0,0,1-1.16-.12,5.09,5.09,0,0,1-1.11-.33,5.78,5.78,0,0,1-1-.51,4.52,4.52,0,0,1-.82-.67l.68-1.11a.71.71,0,0,1,.22-.2.6.6,0,0,1,.29-.08.79.79,0,0,1,.46.18l.6.39a4.59,4.59,0,0,0,.8.39,3.22,3.22,0,0,0,1.1.17,2.22,2.22,0,0,0,1.53-.47,1.66,1.66,0,0,0,.54-1.34,1.29,1.29,0,0,0-.25-.8,2,2,0,0,0-.65-.51,4.79,4.79,0,0,0-.91-.36c-.35-.1-.69-.2-1.05-.32a9.1,9.1,0,0,1-1-.41,3.57,3.57,0,0,1-.91-.62,2.8,2.8,0,0,1-.65-1,3.75,3.75,0,0,1-.24-1.43,3.22,3.22,0,0,1,.27-1.32,3.41,3.41,0,0,1,.78-1.14,3.88,3.88,0,0,1,1.27-.8,4.65,4.65,0,0,1,1.73-.3,5.81,5.81,0,0,1,2,.35,4.61,4.61,0,0,1,1.57,1Z"/><path d="M595.72,406.91H592v10.5h-2.3v-10.5h-3.74V405h9.78Z"/><path d="M608.77,411.21a7,7,0,0,1-.45,2.53,6,6,0,0,1-1.28,2,5.93,5.93,0,0,1-2,1.32,7.09,7.09,0,0,1-5.13,0,5.87,5.87,0,0,1-2-1.32,6,6,0,0,1-1.28-2,7,7,0,0,1-.46-2.53,6.89,6.89,0,0,1,.46-2.52,6,6,0,0,1,1.28-2,5.87,5.87,0,0,1,2-1.32,6.6,6.6,0,0,1,2.56-.48,7.15,7.15,0,0,1,1.77.22,6.13,6.13,0,0,1,1.53.62A5.8,5.8,0,0,1,608,408a6.39,6.39,0,0,1,.59,1.53A7.52,7.52,0,0,1,608.77,411.21Zm-2.36,0a5.5,5.5,0,0,0-.28-1.83,3.88,3.88,0,0,0-.78-1.38,3.29,3.29,0,0,0-1.23-.86,4.58,4.58,0,0,0-3.26,0,3.41,3.41,0,0,0-1.24.86,3.88,3.88,0,0,0-.78,1.38,6.12,6.12,0,0,0,0,3.66,3.75,3.75,0,0,0,.78,1.37,3.32,3.32,0,0,0,1.24.87,4.58,4.58,0,0,0,3.26,0,3.21,3.21,0,0,0,1.23-.87,3.75,3.75,0,0,0,.78-1.37A5.5,5.5,0,0,0,606.41,411.21Z"/><path d="M620.48,417.41H618.4a.91.91,0,0,1-.86-.46l-2.61-4a.82.82,0,0,0-.32-.32,1.18,1.18,0,0,0-.52-.09h-1v4.84H610.8V405h3.78a8.11,8.11,0,0,1,2.17.26,4.19,4.19,0,0,1,1.48.74,2.79,2.79,0,0,1,.85,1.12,3.61,3.61,0,0,1,.28,1.45,3.52,3.52,0,0,1-.19,1.18,3.36,3.36,0,0,1-.53,1,3.47,3.47,0,0,1-.86.8,4.13,4.13,0,0,1-1.16.54,2.1,2.1,0,0,1,.41.31,2,2,0,0,1,.35.41Zm-5.93-6.5a3.5,3.5,0,0,0,1.13-.16,2.2,2.2,0,0,0,.8-.45,1.77,1.77,0,0,0,.47-.68,2.49,2.49,0,0,0,.15-.87,1.78,1.78,0,0,0-.62-1.45,3,3,0,0,0-1.9-.51h-1.47v4.12Z"/><path d="M624.14,406.85v3.44h4.34v1.77h-4.34v3.51h5.51v1.84h-7.82V405h7.82v1.84Z"/><path d="M636.15,417.41v-7.2l-.76-.12a.87.87,0,0,1-.4-.18.43.43,0,0,1-.15-.35v-.87h1.31v-.28a4.3,4.3,0,0,1,.26-1.5,3.27,3.27,0,0,1,.81-1.2,3.89,3.89,0,0,1,1.37-.79,6,6,0,0,1,1.95-.29c.24,0,.48,0,.73,0a3.39,3.39,0,0,1,.65.13l-.07,1.09a.24.24,0,0,1-.21.24,2.31,2.31,0,0,1-.49,0,6.11,6.11,0,0,0-1.4.14,2.37,2.37,0,0,0-.9.44,1.52,1.52,0,0,0-.5.72,3.07,3.07,0,0,0-.15,1v.21h5.45v8.72h-2.12V410.2h-3.26v7.21Z"/><path d="M647.82,410.14a3.67,3.67,0,0,1,1-1.24,2.06,2.06,0,0,1,1.33-.45,1.61,1.61,0,0,1,1,.27L651,410.3a.35.35,0,0,1-.12.22.36.36,0,0,1-.22.06,2.31,2.31,0,0,1-.38,0,2.77,2.77,0,0,0-.49,0,1.74,1.74,0,0,0-.63.1,1.54,1.54,0,0,0-.49.3,1.81,1.81,0,0,0-.39.47,5.11,5.11,0,0,0-.31.62v5.42h-2.12v-8.8h1.24a.69.69,0,0,1,.46.12.71.71,0,0,1,.17.41Z"/><path d="M657.56,410.33a.66.66,0,0,1-.18.19.43.43,0,0,1-.24.06.75.75,0,0,1-.33-.09l-.41-.19a4.36,4.36,0,0,0-.52-.2,2.93,2.93,0,0,0-.7-.08,1.62,1.62,0,0,0-1,.27.82.82,0,0,0-.35.69.68.68,0,0,0,.18.48,1.83,1.83,0,0,0,.49.33,4.52,4.52,0,0,0,.69.27c.26.07.52.16.79.25s.52.19.78.31a2.74,2.74,0,0,1,.69.45,2,2,0,0,1,.49.65,2.06,2.06,0,0,1,.19.9,2.94,2.94,0,0,1-.23,1.17,2.49,2.49,0,0,1-.68.93,3.15,3.15,0,0,1-1.1.61,4.66,4.66,0,0,1-1.51.22,5.26,5.26,0,0,1-.89-.08,5.64,5.64,0,0,1-.83-.23,5,5,0,0,1-.74-.34,3.9,3.9,0,0,1-.59-.43l.48-.81a.68.68,0,0,1,.23-.22.61.61,0,0,1,.32-.08.76.76,0,0,1,.38.11,3.52,3.52,0,0,0,.4.24,3.13,3.13,0,0,0,.55.24,2.25,2.25,0,0,0,.79.11,2.08,2.08,0,0,0,.65-.09,1.22,1.22,0,0,0,.44-.23.84.84,0,0,0,.26-.34.92.92,0,0,0,.08-.4.71.71,0,0,0-.18-.5,1.54,1.54,0,0,0-.49-.35,5.93,5.93,0,0,0-.69-.26l-.8-.25a7.85,7.85,0,0,1-.8-.32,2.8,2.8,0,0,1-.69-.47,2,2,0,0,1-.49-.7,2.59,2.59,0,0,1,0-2,2.28,2.28,0,0,1,.63-.85,3.08,3.08,0,0,1,1-.59,4.85,4.85,0,0,1,3.09.09,3.86,3.86,0,0,1,1.24.78Z"/><path d="M662.66,417.55a2.32,2.32,0,0,1-1.76-.65,2.49,2.49,0,0,1-.61-1.79V410.2h-.9a.4.4,0,0,1-.41-.45v-.84l1.41-.23.45-2.4A.47.47,0,0,1,661,406a.5.5,0,0,1,.31-.09h1.1v2.77h2.35v1.51h-2.35V415a.91.91,0,0,0,.2.64.7.7,0,0,0,.55.23.82.82,0,0,0,.33,0l.23-.09.18-.1a.3.3,0,0,1,.15-.05.28.28,0,0,1,.16.05.92.92,0,0,1,.13.14l.63,1a3.12,3.12,0,0,1-1.06.58A4,4,0,0,1,662.66,417.55Z"/><path d="M672.42,404.67v12.74H670.3V404.67Z"/><path d="M676.17,413.28a3.9,3.9,0,0,0,.24,1.17,2.19,2.19,0,0,0,.5.81,1.79,1.79,0,0,0,.73.48,2.54,2.54,0,0,0,.94.16,3,3,0,0,0,.89-.12,5.86,5.86,0,0,0,.65-.26l.49-.27a.8.8,0,0,1,.4-.12.45.45,0,0,1,.4.2l.61.77a4,4,0,0,1-.79.69,4.59,4.59,0,0,1-1.88.68,6.39,6.39,0,0,1-1,.07,4.8,4.8,0,0,1-1.71-.3,4,4,0,0,1-1.37-.91,4.19,4.19,0,0,1-.92-1.47,5.78,5.78,0,0,1-.33-2,5,5,0,0,1,.29-1.69,3.88,3.88,0,0,1,.84-1.38,3.94,3.94,0,0,1,1.32-.93,4.42,4.42,0,0,1,1.78-.34,4.24,4.24,0,0,1,1.53.26,3.41,3.41,0,0,1,1.21.78,3.47,3.47,0,0,1,.79,1.25,4.68,4.68,0,0,1,.29,1.69,1.37,1.37,0,0,1-.1.65.44.44,0,0,1-.4.17Zm4-1.28a2.54,2.54,0,0,0-.12-.78,1.9,1.9,0,0,0-.35-.64,1.69,1.69,0,0,0-.58-.43,2.15,2.15,0,0,0-.83-.16,2,2,0,0,0-1.45.53,2.58,2.58,0,0,0-.67,1.48Z"/><path d="M686.54,417.55a2.32,2.32,0,0,1-1.76-.65,2.49,2.49,0,0,1-.61-1.79V410.2h-.9a.42.42,0,0,1-.29-.11.45.45,0,0,1-.12-.34v-.84l1.41-.23.45-2.4a.53.53,0,0,1,.16-.27.5.5,0,0,1,.31-.09h1.1v2.77H690l.45-2.41a.53.53,0,0,1,.16-.27.51.51,0,0,1,.32-.09H692v2.77h2.35v1.51H692V415a.91.91,0,0,0,.21.64.72.72,0,0,0,.56.23.8.8,0,0,0,.32,0l.24-.09.18-.1a.3.3,0,0,1,.15-.05.25.25,0,0,1,.15.05.6.6,0,0,1,.13.14l.64,1a3.17,3.17,0,0,1-1.07.58,4,4,0,0,1-1.24.2,2.35,2.35,0,0,1-1.77-.65,2.49,2.49,0,0,1-.61-1.79V410.2h-3.56V415a.91.91,0,0,0,.2.64.7.7,0,0,0,.55.23.82.82,0,0,0,.33,0l.23-.09.18-.1a.3.3,0,0,1,.15-.05.25.25,0,0,1,.16.05.92.92,0,0,1,.13.14l.63,1a3.12,3.12,0,0,1-1.06.58A4,4,0,0,1,686.54,417.55Z"/><path d="M697.23,413.28a3.9,3.9,0,0,0,.24,1.17,2.32,2.32,0,0,0,.5.81,1.79,1.79,0,0,0,.73.48,2.58,2.58,0,0,0,.94.16,3,3,0,0,0,.89-.12,5.16,5.16,0,0,0,.65-.26l.49-.27a.8.8,0,0,1,.4-.12.45.45,0,0,1,.4.2l.61.77a4,4,0,0,1-.79.69,4.81,4.81,0,0,1-.91.45,4.72,4.72,0,0,1-1,.23,6.39,6.39,0,0,1-1,.07,4.8,4.8,0,0,1-1.71-.3,4,4,0,0,1-1.37-.91,4.19,4.19,0,0,1-.92-1.47,5.78,5.78,0,0,1-.33-2,5,5,0,0,1,.29-1.69,4,4,0,0,1,.84-1.38,3.88,3.88,0,0,1,1.33-.93,4.33,4.33,0,0,1,1.77-.34,4.24,4.24,0,0,1,1.53.26,3.41,3.41,0,0,1,1.21.78,3.63,3.63,0,0,1,.8,1.25,4.68,4.68,0,0,1,.28,1.69,1.37,1.37,0,0,1-.1.65.43.43,0,0,1-.39.17Zm4-1.28a2.54,2.54,0,0,0-.12-.78,1.74,1.74,0,0,0-.35-.64,1.6,1.6,0,0,0-.58-.43,2.15,2.15,0,0,0-.83-.16,2,2,0,0,0-1.44.53,2.53,2.53,0,0,0-.68,1.48Z"/><path d="M706.76,410.14a3.78,3.78,0,0,1,1-1.24,2.11,2.11,0,0,1,1.34-.45,1.63,1.63,0,0,1,1,.27l-.14,1.58a.41.41,0,0,1-.12.22.38.38,0,0,1-.22.06,2.21,2.21,0,0,1-.38,0,2.89,2.89,0,0,0-.5,0,1.72,1.72,0,0,0-.62.1,1.54,1.54,0,0,0-.49.3,1.81,1.81,0,0,0-.39.47,4,4,0,0,0-.31.62v5.42h-2.12v-8.8H706a.69.69,0,0,1,.46.12.71.71,0,0,1,.17.41Z"/><line class="cls-3" x1="650.73" y1="439" x2="650.73" y2="457.75"/><polygon class="cls-2" points="643.69 452.41 650.73 455.4 657.77 452.41 650.73 469.1 643.69 452.41"/><path class="cls-7" d="M650.43,609.29a2.27,2.27,0,0,1-1.31-.39l-96.73-69.64a1.09,1.09,0,0,1,0-1.88l96.73-69.64a2.48,2.48,0,0,1,2.62,0l96.73,69.64a1.09,1.09,0,0,1,0,1.88L651.74,608.9A2.27,2.27,0,0,1,650.43,609.29Zm-94.12-71,94.12,67.76,94.12-67.76-94.12-67.76Z"/><path d="M583.52,544.14v-7l-.74-.11a.89.89,0,0,1-.38-.17.43.43,0,0,1-.15-.35v-.84h1.27v-.27a4,4,0,0,1,.26-1.45,3.09,3.09,0,0,1,.78-1.17,3.66,3.66,0,0,1,1.33-.76,5.62,5.62,0,0,1,1.89-.28,5.74,5.74,0,0,1,.71,0,2.71,2.71,0,0,1,.63.12l-.07,1.06a.24.24,0,0,1-.2.23,3.08,3.08,0,0,1-.48,0,5.18,5.18,0,0,0-1.35.14,2.12,2.12,0,0,0-.88.42,1.43,1.43,0,0,0-.48.7,2.86,2.86,0,0,0-.15,1v.21h5.29v8.46h-2v-7h-3.17v7Z"/><path d="M594.84,537.09a3.82,3.82,0,0,1,.95-1.21,2,2,0,0,1,1.3-.43,1.5,1.5,0,0,1,.94.26l-.13,1.53a.51.51,0,0,1-.12.22.33.33,0,0,1-.21.06l-.37,0a2.59,2.59,0,0,0-.48,0,1.66,1.66,0,0,0-.61.1,1.5,1.5,0,0,0-.47.28,1.9,1.9,0,0,0-.38.46,3.73,3.73,0,0,0-.3.6v5.26H592.9v-8.53h1.21a.63.63,0,0,1,.44.11.68.68,0,0,1,.17.4Z"/><path d="M604.29,537.27a.55.55,0,0,1-.18.19.52.52,0,0,1-.23,0,.79.79,0,0,1-.32-.08l-.39-.19a3.84,3.84,0,0,0-.52-.19A2.62,2.62,0,0,0,602,537a1.59,1.59,0,0,0-1,.26.79.79,0,0,0-.34.67.63.63,0,0,0,.18.46,1.52,1.52,0,0,0,.47.33,4.69,4.69,0,0,0,.67.26l.76.24c.26.09.51.19.76.3a2.59,2.59,0,0,1,.67.44,2,2,0,0,1,.48.62,2,2,0,0,1,.18.89,3,3,0,0,1-.22,1.13,2.45,2.45,0,0,1-.66.9,3.06,3.06,0,0,1-1.07.59,4.63,4.63,0,0,1-1.46.21,4,4,0,0,1-.86-.08,4.4,4.4,0,0,1-.81-.22,4,4,0,0,1-.72-.33,3.76,3.76,0,0,1-.58-.42l.48-.78a.63.63,0,0,1,.22-.21.57.57,0,0,1,.31-.08.66.66,0,0,1,.36.11l.4.23a2.63,2.63,0,0,0,.53.23,2.09,2.09,0,0,0,.77.11,2.22,2.22,0,0,0,.62-.08,1.52,1.52,0,0,0,.44-.23,1.11,1.11,0,0,0,.25-.33,1.07,1.07,0,0,0,.07-.39.73.73,0,0,0-.17-.49,1.46,1.46,0,0,0-.48-.33,4.69,4.69,0,0,0-.67-.26l-.78-.24a7.28,7.28,0,0,1-.77-.31,2.42,2.42,0,0,1-.67-.46,2,2,0,0,1-.48-.67,2.35,2.35,0,0,1-.18-1,2.42,2.42,0,0,1,.21-1,2.35,2.35,0,0,1,.61-.83,3,3,0,0,1,1-.56,4,4,0,0,1,1.39-.22,4.35,4.35,0,0,1,1.61.29,3.65,3.65,0,0,1,1.2.77Z"/><path d="M609.24,544.27a2.22,2.22,0,0,1-1.71-.63,2.4,2.4,0,0,1-.6-1.73v-4.77h-.87a.39.39,0,0,1-.28-.1.43.43,0,0,1-.12-.33v-.81l1.37-.23.44-2.33a.43.43,0,0,1,.15-.25.49.49,0,0,1,.3-.1H609v2.69h2.28v1.46H609v4.63a.9.9,0,0,0,.19.62.68.68,0,0,0,.54.23,1,1,0,0,0,.32,0l.22-.09.17-.1a.3.3,0,0,1,.15,0,.23.23,0,0,1,.15,0,.92.92,0,0,1,.13.14l.61,1a3.2,3.2,0,0,1-1,.56A3.77,3.77,0,0,1,609.24,544.27Z"/><path d="M618.7,531.78v12.36h-2.05V531.78Z"/><path d="M622.34,540.13a4,4,0,0,0,.23,1.14,2.24,2.24,0,0,0,.48.78,1.88,1.88,0,0,0,.71.47,2.67,2.67,0,0,0,.91.15,2.72,2.72,0,0,0,.86-.11,5.66,5.66,0,0,0,.64-.26l.47-.26a.75.75,0,0,1,.39-.11.43.43,0,0,1,.39.19l.59.75a3.74,3.74,0,0,1-.77.67,4.47,4.47,0,0,1-.88.43,5.16,5.16,0,0,1-.94.23,7.5,7.5,0,0,1-.93.06,4.53,4.53,0,0,1-1.66-.29,3.73,3.73,0,0,1-1.33-.88,4.19,4.19,0,0,1-.89-1.43,5.61,5.61,0,0,1-.32-2,4.67,4.67,0,0,1,.28-1.64,3.94,3.94,0,0,1,.81-1.34,3.74,3.74,0,0,1,1.29-.9,4.13,4.13,0,0,1,1.72-.34,4.24,4.24,0,0,1,1.49.26,3.26,3.26,0,0,1,1.17.75,3.53,3.53,0,0,1,.77,1.22,4.41,4.41,0,0,1,.28,1.64,1.31,1.31,0,0,1-.1.63.42.42,0,0,1-.38.16Zm3.91-1.24a2.27,2.27,0,0,0-.11-.75,1.86,1.86,0,0,0-.34-.62,1.51,1.51,0,0,0-.57-.42,2,2,0,0,0-.8-.15,1.89,1.89,0,0,0-1.4.5,2.48,2.48,0,0,0-.65,1.44Z"/><path d="M632.4,544.27a2.25,2.25,0,0,1-1.71-.63,2.39,2.39,0,0,1-.59-1.73v-4.77h-.88a.4.4,0,0,1-.28-.1.43.43,0,0,1-.12-.33v-.81l1.37-.23.44-2.33a.43.43,0,0,1,.15-.25.49.49,0,0,1,.3-.1h1.07v2.69h3.55l.44-2.34a.48.48,0,0,1,.15-.25.5.5,0,0,1,.31-.1h1v2.69h2.28v1.46h-2.28v4.63a.91.91,0,0,0,.2.62.71.71,0,0,0,.54.23,1,1,0,0,0,.32,0l.23-.09.17-.1a.3.3,0,0,1,.15,0,.25.25,0,0,1,.15,0,.58.58,0,0,1,.12.14l.62,1a3.31,3.31,0,0,1-1,.56,3.78,3.78,0,0,1-1.21.19,2.25,2.25,0,0,1-1.71-.63,2.4,2.4,0,0,1-.6-1.73v-4.77h-3.45v4.63a.9.9,0,0,0,.19.62.68.68,0,0,0,.54.23,1,1,0,0,0,.32,0l.23-.09.17-.1a.3.3,0,0,1,.15,0,.2.2,0,0,1,.14,0,.6.6,0,0,1,.13.14l.62,1a3.36,3.36,0,0,1-1,.56A3.72,3.72,0,0,1,632.4,544.27Z"/><path d="M642.76,540.13a4,4,0,0,0,.23,1.14,2.4,2.4,0,0,0,.48.78,1.91,1.91,0,0,0,.72.47,2.59,2.59,0,0,0,.91.15,2.76,2.76,0,0,0,.86-.11,4.81,4.81,0,0,0,.63-.26l.47-.26a.78.78,0,0,1,.4-.11.41.41,0,0,1,.38.19l.59.75a3.69,3.69,0,0,1-.76.67,4.55,4.55,0,0,1-.89.43,5.16,5.16,0,0,1-.94.23,7.5,7.5,0,0,1-.93.06,4.48,4.48,0,0,1-1.65-.29,3.64,3.64,0,0,1-1.33-.88,4,4,0,0,1-.89-1.43,5.38,5.38,0,0,1-.33-2,4.68,4.68,0,0,1,.29-1.64,3.94,3.94,0,0,1,.81-1.34,3.74,3.74,0,0,1,1.29-.9,4.08,4.08,0,0,1,1.71-.34,4.2,4.2,0,0,1,1.49.26,3.22,3.22,0,0,1,1.18.75,3.51,3.51,0,0,1,.76,1.22,4.41,4.41,0,0,1,.28,1.64,1.31,1.31,0,0,1-.1.63.4.4,0,0,1-.38.16Zm3.92-1.24a2.27,2.27,0,0,0-.12-.75,1.68,1.68,0,0,0-.33-.62,1.51,1.51,0,0,0-.57-.42,2,2,0,0,0-.8-.15,1.92,1.92,0,0,0-1.41.5,2.54,2.54,0,0,0-.65,1.44Z"/><path d="M652,537.09a3.82,3.82,0,0,1,1-1.21,2,2,0,0,1,1.3-.43,1.52,1.52,0,0,1,.94.26l-.13,1.53a.51.51,0,0,1-.12.22.33.33,0,0,1-.21.06l-.37,0a2.74,2.74,0,0,0-.48,0,1.66,1.66,0,0,0-.61.1,1.44,1.44,0,0,0-.48.28,2.13,2.13,0,0,0-.37.46,3.73,3.73,0,0,0-.3.6v5.26h-2.06v-8.53h1.21a.63.63,0,0,1,.44.11.62.62,0,0,1,.16.4Z"/><path d="M660.08,536.32h7.37v1.52h-7.37Zm0,2.93h7.37v1.53h-7.37Z"/><path d="M680.94,535.61l-3.38,8.53h-1.87l-3.38-8.53H674a.65.65,0,0,1,.38.1.63.63,0,0,1,.21.28l1.64,4.56a7.67,7.67,0,0,1,.23.78c.07.25.13.51.18.76l.18-.76q.1-.39.24-.78l1.68-4.56a.63.63,0,0,1,.21-.28.61.61,0,0,1,.36-.1Z"/><path d="M685.54,535.47a4.7,4.7,0,0,1,1.72.31,3.66,3.66,0,0,1,2.19,2.25,5.73,5.73,0,0,1,0,3.66,4,4,0,0,1-.85,1.38,3.75,3.75,0,0,1-1.34.89,4.7,4.7,0,0,1-1.72.3,4.81,4.81,0,0,1-1.74-.3,3.71,3.71,0,0,1-1.33-.89,3.89,3.89,0,0,1-.86-1.38,5.73,5.73,0,0,1,0-3.66,3.89,3.89,0,0,1,.86-1.38,3.94,3.94,0,0,1,1.33-.87A4.81,4.81,0,0,1,685.54,535.47Zm0,7.21a1.81,1.81,0,0,0,1.58-.71,4.58,4.58,0,0,0,0-4.2,1.83,1.83,0,0,0-1.58-.73,1.85,1.85,0,0,0-1.6.73,3.58,3.58,0,0,0-.52,2.1,3.5,3.5,0,0,0,.52,2.09A1.85,1.85,0,0,0,685.54,542.68Z"/><path d="M703.36,535.61l-2.71,8.53H699c-.18,0-.32-.12-.39-.37l-1.53-4.93c-.05-.17-.09-.33-.13-.49a4.48,4.48,0,0,1-.11-.5c0,.17-.07.34-.11.5s-.09.34-.14.51L695,543.77a.44.44,0,0,1-.44.37H693l-2.71-8.53H692a.65.65,0,0,1,.38.1.51.51,0,0,1,.21.28l1.22,4.56c.07.24.12.49.17.73l.12.71c.06-.24.12-.47.19-.71l.22-.73,1.42-4.58a.47.47,0,0,1,.19-.27.55.55,0,0,1,.36-.11h.9a.56.56,0,0,1,.37.11.56.56,0,0,1,.21.27l1.37,4.58c.07.24.14.49.2.73s.13.48.19.72a11.41,11.41,0,0,1,.31-1.45l1.25-4.56a.63.63,0,0,1,.21-.28.61.61,0,0,1,.36-.1Z"/><path d="M706,540.13a4,4,0,0,0,.23,1.14,2.24,2.24,0,0,0,.48.78,1.88,1.88,0,0,0,.71.47,2.67,2.67,0,0,0,.91.15,2.72,2.72,0,0,0,.86-.11,5.66,5.66,0,0,0,.64-.26l.47-.26a.75.75,0,0,1,.39-.11.43.43,0,0,1,.39.19l.59.75a3.74,3.74,0,0,1-.77.67,4.47,4.47,0,0,1-.88.43,5.16,5.16,0,0,1-.94.23,7.5,7.5,0,0,1-.93.06,4.53,4.53,0,0,1-1.66-.29,3.73,3.73,0,0,1-1.33-.88,4.19,4.19,0,0,1-.89-1.43,5.61,5.61,0,0,1-.32-2,4.67,4.67,0,0,1,.28-1.64,3.94,3.94,0,0,1,.81-1.34,3.74,3.74,0,0,1,1.29-.9,4.13,4.13,0,0,1,1.72-.34,4.24,4.24,0,0,1,1.49.26,3.26,3.26,0,0,1,1.17.75,3.53,3.53,0,0,1,.77,1.22,4.41,4.41,0,0,1,.28,1.64,1.31,1.31,0,0,1-.1.63.42.42,0,0,1-.38.16Zm3.91-1.24a2.27,2.27,0,0,0-.11-.75,1.86,1.86,0,0,0-.34-.62,1.51,1.51,0,0,0-.57-.42,2,2,0,0,0-.8-.15,1.89,1.89,0,0,0-1.4.5,2.48,2.48,0,0,0-.65,1.44Z"/><path d="M715.35,531.78v12.36h-2.06V531.78Z"/><rect class="cls-5" x="440.85" y="623.35" width="194.84" height="49.11"/><path d="M493.85,652.85h-1.79a.77.77,0,0,1-.49-.15,1,1,0,0,1-.28-.38l-.93-2.53h-5.13l-.93,2.53a.7.7,0,0,1-.26.36.77.77,0,0,1-.49.17h-1.8l4.88-12.4H489Zm-4.08-4.68L488.26,644c-.07-.18-.15-.4-.23-.65s-.16-.52-.24-.82c-.07.3-.15.57-.23.82s-.16.48-.23.67l-1.5,4.11Z"/><path d="M499.16,640.45a6.86,6.86,0,0,1,2.15.29,4.26,4.26,0,0,1,1.51.81,3.29,3.29,0,0,1,.87,1.25,4.18,4.18,0,0,1,.29,1.6,4.4,4.4,0,0,1-.3,1.65,3.42,3.42,0,0,1-.9,1.29,4.19,4.19,0,0,1-1.5.84,6.78,6.78,0,0,1-2.12.3h-1.72v4.37h-2.31v-12.4Zm0,6.23a3.38,3.38,0,0,0,1.11-.16,2,2,0,0,0,.78-.45,1.84,1.84,0,0,0,.47-.72,2.87,2.87,0,0,0,.16-1,2.57,2.57,0,0,0-.16-.9,1.82,1.82,0,0,0-.46-.69,2.1,2.1,0,0,0-.78-.43,3.75,3.75,0,0,0-1.12-.15h-1.72v4.45Z"/><path d="M509.78,640.45a6.91,6.91,0,0,1,2.15.29,4.13,4.13,0,0,1,1.5.81,3.21,3.21,0,0,1,.88,1.25,4.62,4.62,0,0,1,0,3.25,3.42,3.42,0,0,1-.9,1.29,4.15,4.15,0,0,1-1.51.84,6.71,6.71,0,0,1-2.11.3h-1.73v4.37h-2.3v-12.4Zm0,6.23a3.42,3.42,0,0,0,1.11-.16,2,2,0,0,0,.78-.45,2,2,0,0,0,.47-.72,2.87,2.87,0,0,0,.15-1,2.57,2.57,0,0,0-.15-.9,1.84,1.84,0,0,0-.47-.69,2,2,0,0,0-.78-.43,3.63,3.63,0,0,0-1.11-.15h-1.73v4.45Z"/><path d="M518.68,642.28v3.44H523v1.78h-4.34V651h5.5v1.85h-7.82v-12.4h7.82v1.83Z"/><path d="M536.68,640.45v12.4H535.5a.92.92,0,0,1-.82-.4l-6.47-8.26c0,.37,0,.72,0,1v7.62h-2v-12.4h1.46l.19,0,.16.11.17.2,6.5,8.3c0-.2,0-.4-.05-.59s0-.38,0-.55v-7.53Z"/><path d="M550.45,646.65a6.74,6.74,0,0,1-.45,2.5,5.89,5.89,0,0,1-1.28,2,5.81,5.81,0,0,1-2,1.27,6.84,6.84,0,0,1-2.57.46h-4.73v-12.4h4.73a6.84,6.84,0,0,1,2.57.46,5.6,5.6,0,0,1,3.26,3.23A6.79,6.79,0,0,1,550.45,646.65Zm-2.37,0a5.77,5.77,0,0,0-.27-1.83,3.88,3.88,0,0,0-.78-1.38,3.46,3.46,0,0,0-1.23-.86,4.23,4.23,0,0,0-1.63-.3h-2.41V651h2.41a4.23,4.23,0,0,0,1.63-.3,3.46,3.46,0,0,0,1.23-.86,3.75,3.75,0,0,0,.78-1.37A5.77,5.77,0,0,0,548.08,646.65Z"/><path d="M556.62,644.88a4.22,4.22,0,0,1-.55-1.41,3.94,3.94,0,0,1,0-1.45,4.12,4.12,0,0,1,.5-1.37,4.4,4.4,0,0,1,1-1.18l.66.4a.3.3,0,0,1,.15.28.39.39,0,0,1-.11.25,3,3,0,0,0-.34.57,2.79,2.79,0,0,0-.23.79,3.23,3.23,0,0,0,0,.93,2.54,2.54,0,0,0,.39,1,.52.52,0,0,1,.09.43.45.45,0,0,1-.29.26Zm2.85,0a4.47,4.47,0,0,1-.56-1.41,4.16,4.16,0,0,1,0-1.45,4.12,4.12,0,0,1,.5-1.37,4.23,4.23,0,0,1,1-1.18l.66.4a.3.3,0,0,1,.15.28.39.39,0,0,1-.11.25,2.52,2.52,0,0,0-.34.57,2.79,2.79,0,0,0-.23.79,3.23,3.23,0,0,0,0,.93,2.54,2.54,0,0,0,.39,1,.48.48,0,0,1,.08.43.43.43,0,0,1-.28.26Z"/><path d="M570.94,644.05l-4.8,11.22a.77.77,0,0,1-.24.33.72.72,0,0,1-.46.12h-1.58l1.65-3.53L562,644.05h1.86a.57.57,0,0,1,.39.12.66.66,0,0,1,.21.27l1.87,4.57a3.57,3.57,0,0,1,.16.46l.12.47c.06-.16.11-.32.16-.48s.11-.31.17-.46l1.77-4.56a.6.6,0,0,1,.22-.28.66.66,0,0,1,.36-.11Z"/><path d="M571.59,645.28a5.2,5.2,0,0,1,3.65-1.39,3.5,3.5,0,0,1,1.38.25,2.9,2.9,0,0,1,1,.7,3.07,3.07,0,0,1,.64,1.08,4,4,0,0,1,.22,1.37v5.56h-1a.94.94,0,0,1-.46-.09.6.6,0,0,1-.26-.37l-.19-.63c-.22.2-.44.37-.65.53a4.34,4.34,0,0,1-.66.38,3.54,3.54,0,0,1-.74.23,3.81,3.81,0,0,1-.86.08,3.42,3.42,0,0,1-1-.15,2.29,2.29,0,0,1-.81-.45,1.9,1.9,0,0,1-.53-.74,2.57,2.57,0,0,1-.19-1,2.17,2.17,0,0,1,.11-.66,2,2,0,0,1,.36-.63,3.16,3.16,0,0,1,.66-.57,4.14,4.14,0,0,1,1-.46,7.49,7.49,0,0,1,1.37-.32,12.77,12.77,0,0,1,1.78-.16v-.51a1.9,1.9,0,0,0-.38-1.31,1.37,1.37,0,0,0-1.08-.42,2.62,2.62,0,0,0-.86.12,3.6,3.6,0,0,0-.59.27l-.47.27a.94.94,0,0,1-.47.12.57.57,0,0,1-.37-.12A.72.72,0,0,1,572,646Zm4.85,3.81a11.44,11.44,0,0,0-1.54.16,4.7,4.7,0,0,0-1,.29,1.41,1.41,0,0,0-.55.43,1,1,0,0,0-.16.52.93.93,0,0,0,.33.8,1.43,1.43,0,0,0,.86.24,2.48,2.48,0,0,0,1.13-.24,3.34,3.34,0,0,0,.93-.72Z"/><path d="M588.24,644.05l-4.79,11.22a.78.78,0,0,1-.25.33.71.71,0,0,1-.45.12h-1.58l1.64-3.53-3.55-8.14h1.86a.61.61,0,0,1,.39.12.9.9,0,0,1,.21.27l1.87,4.57a3.53,3.53,0,0,1,.15.46c0,.15.09.31.13.47l.15-.48c.05-.15.11-.31.17-.46l1.77-4.56a.62.62,0,0,1,.23-.28.61.61,0,0,1,.35-.11Z"/><path d="M590.74,639.62a4.47,4.47,0,0,1,.56,1.41,4.1,4.1,0,0,1,0,1.44,4.17,4.17,0,0,1-.5,1.38,4.54,4.54,0,0,1-1,1.18l-.67-.41a.23.23,0,0,1-.12-.12.21.21,0,0,1,0-.15.35.35,0,0,1,0-.14.83.83,0,0,1,.08-.12,2.24,2.24,0,0,0,.34-.56,2.79,2.79,0,0,0,.23-.79,3,3,0,0,0,0-.94,2.56,2.56,0,0,0-.39-1,.55.55,0,0,1-.08-.43.44.44,0,0,1,.28-.27Zm2.85,0a4.22,4.22,0,0,1,.55,1.41,3.88,3.88,0,0,1,0,1.44,4.17,4.17,0,0,1-.5,1.38,4.4,4.4,0,0,1-1,1.18l-.67-.41a.34.34,0,0,1-.12-.12.4.4,0,0,1,0-.15.74.74,0,0,1,0-.14.42.42,0,0,1,.08-.12,2.58,2.58,0,0,0,.34-.56,2.79,2.79,0,0,0,.23-.79,3,3,0,0,0,0-.94,2.56,2.56,0,0,0-.39-1,.51.51,0,0,1-.08-.43.42.42,0,0,1,.28-.27Z"/><path d="M102.2,28.32a1.05,1.05,0,0,1-.28.33.61.61,0,0,1-.36.11.93.93,0,0,1-.49-.17l-.64-.38a5.41,5.41,0,0,0-.86-.37,3.68,3.68,0,0,0-1.16-.17,3.35,3.35,0,0,0-1.06.15,2.17,2.17,0,0,0-.77.41,1.65,1.65,0,0,0-.46.62,2.06,2.06,0,0,0-.15.79,1.35,1.35,0,0,0,.31.92,2.52,2.52,0,0,0,.82.63,7,7,0,0,0,1.16.47c.43.13.87.28,1.33.44a10.89,10.89,0,0,1,1.33.54,4.38,4.38,0,0,1,1.16.78,3.59,3.59,0,0,1,.82,1.15,4.1,4.1,0,0,1,.3,1.66,5.4,5.4,0,0,1-.36,2,4.51,4.51,0,0,1-1.06,1.62,4.9,4.9,0,0,1-1.71,1.08,6.3,6.3,0,0,1-2.3.39,7.18,7.18,0,0,1-1.47-.14,7.74,7.74,0,0,1-1.39-.42,7.48,7.48,0,0,1-1.26-.65,5.71,5.71,0,0,1-1-.84l.85-1.4a1,1,0,0,1,.28-.25.72.72,0,0,1,.37-.11,1,1,0,0,1,.58.23l.75.49a6.34,6.34,0,0,0,1,.49,3.88,3.88,0,0,0,1.4.22,2.79,2.79,0,0,0,1.92-.59,2.1,2.1,0,0,0,.69-1.69,1.62,1.62,0,0,0-.31-1,2.44,2.44,0,0,0-.82-.65,5.84,5.84,0,0,0-1.16-.45l-1.32-.4a12.47,12.47,0,0,1-1.32-.52,4.66,4.66,0,0,1-1.16-.79,3.69,3.69,0,0,1-.82-1.22,4.76,4.76,0,0,1-.31-1.8,4.24,4.24,0,0,1,.35-1.67,4.13,4.13,0,0,1,1-1.44,4.71,4.71,0,0,1,1.6-1,5.91,5.91,0,0,1,2.19-.38,7.26,7.26,0,0,1,2.55.44,5.63,5.63,0,0,1,2,1.21Z"/><path d="M116.67,27.87H112V41.13H109V27.87h-4.72V25.48h12.35Z"/><path d="M130.62,41.13h-2.25a.94.94,0,0,1-.62-.19,1.12,1.12,0,0,1-.36-.47l-1.17-3.19h-6.48l-1.17,3.19a1,1,0,0,1-.34.46,1,1,0,0,1-.62.2h-2.27l6.16-15.65h3Zm-5.15-5.91L123.57,30a8.36,8.36,0,0,1-.29-.82c-.1-.32-.21-.66-.31-1-.09.37-.19.71-.29,1s-.2.61-.29.84l-1.9,5.19Z"/><path d="M144.46,41.13h-2.63a1.15,1.15,0,0,1-1.08-.58l-3.29-5a1.19,1.19,0,0,0-.41-.4,1.36,1.36,0,0,0-.65-.12h-1.25v6.12h-2.91V25.48H137a9.93,9.93,0,0,1,2.74.33,5.11,5.11,0,0,1,1.87.92,3.58,3.58,0,0,1,1.08,1.43,4.69,4.69,0,0,1,.35,1.82,4.56,4.56,0,0,1-.24,1.49,4.23,4.23,0,0,1-.67,1.28,4.55,4.55,0,0,1-1.08,1,5.52,5.52,0,0,1-1.47.68,3.31,3.31,0,0,1,.52.38,2.88,2.88,0,0,1,.44.53ZM137,32.92a4.47,4.47,0,0,0,1.44-.2,2.85,2.85,0,0,0,1-.57,2.21,2.21,0,0,0,.59-.86,3,3,0,0,0,.2-1.09,2.19,2.19,0,0,0-.79-1.83,3.72,3.72,0,0,0-2.4-.64h-1.86v5.19Z"/><path d="M156.69,27.87H152V41.13h-2.92V27.87h-4.72V25.48h12.36Z"/><ellipse class="cls-8" cx="124.68" cy="33.5" rx="103" ry="31.5"/><line class="cls-1" x1="124.01" y1="65" x2="124.01" y2="88.67"/><polygon class="cls-2" points="115.13 81.93 124.01 85.71 132.9 81.93 124.01 103 115.13 81.93"/><rect class="cls-9" x="1.68" y="207.5" width="246" height="62"/><path d="M33.82,231.32V236h5.87v2.33H33.82v6.38H30.9V229h9.87v2.32Z"/><path d="M57.94,236.82a9,9,0,0,1-.56,3.19,7.49,7.49,0,0,1-1.61,2.54,7.25,7.25,0,0,1-2.5,1.68,9.08,9.08,0,0,1-6.49,0,7.37,7.37,0,0,1-2.5-1.67A7.46,7.46,0,0,1,42.66,240a9.06,9.06,0,0,1,0-6.38,7.59,7.59,0,0,1,1.61-2.54,7.41,7.41,0,0,1,2.51-1.67,8.42,8.42,0,0,1,3.24-.6,9,9,0,0,1,2.24.27,7.81,7.81,0,0,1,1.92.78,7,7,0,0,1,1.58,1.22A7.54,7.54,0,0,1,57,232.71a8,8,0,0,1,.74,1.93A9.1,9.1,0,0,1,57.94,236.82Zm-3,0a7.29,7.29,0,0,0-.35-2.32,4.81,4.81,0,0,0-1-1.73,4.22,4.22,0,0,0-1.55-1.1A5.4,5.4,0,0,0,50,231.3a5.61,5.61,0,0,0-2.07.38,4.22,4.22,0,0,0-1.55,1.1,4.77,4.77,0,0,0-1,1.74,7.8,7.8,0,0,0,0,4.62,4.81,4.81,0,0,0,1,1.73A4.31,4.31,0,0,0,48,242a5.77,5.77,0,0,0,4.12,0,4.31,4.31,0,0,0,1.56-1.09,5,5,0,0,0,1-1.73A7.27,7.27,0,0,0,55,236.83Z"/><path d="M72.74,244.65H70.11a1.17,1.17,0,0,1-1.09-.59l-3.29-5a1.11,1.11,0,0,0-.41-.4,1.36,1.36,0,0,0-.65-.12H63.42v6.12H60.51V229h4.77a10,10,0,0,1,2.74.33,5.2,5.2,0,0,1,1.87.93A3.55,3.55,0,0,1,71,231.67a4.68,4.68,0,0,1,.34,1.82,4.62,4.62,0,0,1-.23,1.5,4.29,4.29,0,0,1-1.75,2.28,5.53,5.53,0,0,1-1.47.69,2.77,2.77,0,0,1,.52.38,2.55,2.55,0,0,1,.43.53Zm-7.5-8.21a4.77,4.77,0,0,0,1.44-.2,2.85,2.85,0,0,0,1-.57,2.29,2.29,0,0,0,.59-.86,3,3,0,0,0,.2-1.1,2.25,2.25,0,0,0-.79-1.83,3.72,3.72,0,0,0-2.4-.63H63.42v5.19Z"/><path d="M94.69,233.53l-3.53,11.11H89q-.37,0-.51-.48l-2-6.42c-.07-.21-.13-.43-.18-.64s-.1-.43-.14-.64c0,.21-.09.43-.14.65l-.18.66-2,6.4a.55.55,0,0,1-.57.47H81.22l-3.52-11.1h2.13a.89.89,0,0,1,.5.13.67.67,0,0,1,.27.36L82.2,240q.12.49.21,1c.06.31.11.62.16.93.07-.31.16-.62.25-.93s.18-.63.29-1l1.83-6a.76.76,0,0,1,.26-.36.78.78,0,0,1,.46-.14h1.18a.83.83,0,0,1,.48.14.74.74,0,0,1,.27.36l1.78,6q.15.49.27,1l.24.94c.1-.62.23-1.25.4-1.9L91.92,234a.69.69,0,0,1,.27-.36.78.78,0,0,1,.46-.14Z"/><path d="M100.94,233.35a6.16,6.16,0,0,1,2.24.4,4.92,4.92,0,0,1,1.73,1.14,5,5,0,0,1,1.11,1.8,6.77,6.77,0,0,1,.4,2.37,6.87,6.87,0,0,1-.39,2.38,5.11,5.11,0,0,1-1.11,1.81,4.9,4.9,0,0,1-1.73,1.15,6.25,6.25,0,0,1-2.25.4,6.06,6.06,0,0,1-2.26-.4,4.85,4.85,0,0,1-1.74-1.15,5.28,5.28,0,0,1-1.12-1.81,7.43,7.43,0,0,1,0-4.75,5,5,0,0,1,1.12-1.8,4.92,4.92,0,0,1,1.73-1.14A6.32,6.32,0,0,1,100.94,233.35Zm0,9.39a2.35,2.35,0,0,0,2-.93,4.7,4.7,0,0,0,.66-2.73,4.76,4.76,0,0,0-.66-2.74,2.34,2.34,0,0,0-2-.94,2.4,2.4,0,0,0-2.09.95,4.66,4.66,0,0,0-.67,2.73,4.61,4.61,0,0,0,.67,2.72A2.41,2.41,0,0,0,100.94,242.74Z"/><path d="M111,235.45a4.73,4.73,0,0,1,1.24-1.56,2.62,2.62,0,0,1,1.69-.57,2.08,2.08,0,0,1,1.23.33l-.17,2a.53.53,0,0,1-.16.28.41.41,0,0,1-.28.08,4.3,4.3,0,0,1-.48,0,3.34,3.34,0,0,0-.62-.06,2.38,2.38,0,0,0-.79.13,2.07,2.07,0,0,0-.62.38,2.37,2.37,0,0,0-.49.59,5.29,5.29,0,0,0-.39.79v6.84h-2.68V233.52H110a.85.85,0,0,1,.57.15.87.87,0,0,1,.22.52Z"/><path d="M125.89,228.54v16.09h-1.64a.63.63,0,0,1-.67-.49l-.23-1.07a5.54,5.54,0,0,1-1.54,1.24,4.14,4.14,0,0,1-2,.48,3.6,3.6,0,0,1-1.67-.38,3.68,3.68,0,0,1-1.3-1.1,5.17,5.17,0,0,1-.85-1.78,8.85,8.85,0,0,1-.3-2.42,7.44,7.44,0,0,1,.34-2.3,5.46,5.46,0,0,1,1-1.84,4.64,4.64,0,0,1,1.5-1.22,4.42,4.42,0,0,1,2-.44,3.84,3.84,0,0,1,1.6.3,3.88,3.88,0,0,1,1.18.79v-5.86Zm-2.67,7.82a2.71,2.71,0,0,0-1-.78,2.8,2.8,0,0,0-1.16-.23,2.42,2.42,0,0,0-1.09.23,2.25,2.25,0,0,0-.83.68,3.33,3.33,0,0,0-.53,1.17,6.42,6.42,0,0,0-.19,1.68,7.67,7.67,0,0,0,.16,1.65,3.41,3.41,0,0,0,.45,1.1,1.7,1.7,0,0,0,.72.62,2.35,2.35,0,0,0,.94.19,2.77,2.77,0,0,0,1.42-.35,4.18,4.18,0,0,0,1.1-1Z"/><path d="M137.14,244.62h-2.92V229h2.93Z"/><path d="M153.83,229v15.66h-1.5a1.17,1.17,0,0,1-1-.5l-8.18-10.44q.06.72.06,1.32v9.62h-2.57V229h1.52l.32,0a.84.84,0,0,1,.24.06.87.87,0,0,1,.2.15,2.85,2.85,0,0,1,.22.24l8.21,10.48c0-.26,0-.51-.06-.75s0-.47,0-.68V229Z"/><path d="M177.58,233.5l-3.53,11.11h-2.14q-.37,0-.51-.48l-2-6.42c-.06-.21-.12-.43-.17-.64s-.1-.43-.14-.65q-.06.33-.15.66c-.05.22-.11.44-.17.65l-2,6.4a.55.55,0,0,1-.57.48h-2.06l-3.52-11.11h2.13a.89.89,0,0,1,.5.14.67.67,0,0,1,.27.36l1.6,5.93c.07.33.15.65.21,1s.11.62.15.93c.08-.31.17-.62.26-.93s.18-.63.28-1l1.84-6a.68.68,0,0,1,.26-.36.76.76,0,0,1,.46-.14h1.18a.83.83,0,0,1,.48.14.63.63,0,0,1,.26.36l1.79,6q.15.49.27,1l.24.94c.1-.62.23-1.25.4-1.9l1.64-5.93a.69.69,0,0,1,.27-.36.78.78,0,0,1,.46-.14Z"/><path d="M183.82,233.32a6.17,6.17,0,0,1,2.25.4,4.92,4.92,0,0,1,1.73,1.14,5,5,0,0,1,1.11,1.8,6.77,6.77,0,0,1,.39,2.37,6.87,6.87,0,0,1-.38,2.38,5.11,5.11,0,0,1-1.11,1.81,4.88,4.88,0,0,1-1.73,1.14,6,6,0,0,1-2.25.41,6.23,6.23,0,0,1-2.26-.4,4.85,4.85,0,0,1-1.74-1.15,5.13,5.13,0,0,1-1.12-1.81,7.43,7.43,0,0,1,0-4.75,4.82,4.82,0,0,1,2.85-2.94A6.27,6.27,0,0,1,183.82,233.32Zm0,9.39a2.35,2.35,0,0,0,2-.93,4.7,4.7,0,0,0,.66-2.73,4.76,4.76,0,0,0-.66-2.74,2.34,2.34,0,0,0-2-.94,2.38,2.38,0,0,0-2.09.95,4.66,4.66,0,0,0-.67,2.73,4.61,4.61,0,0,0,.67,2.72A2.4,2.4,0,0,0,183.83,242.71Z"/><path d="M193.87,235.42a4.77,4.77,0,0,1,1.24-1.57,2.58,2.58,0,0,1,1.68-.56,2,2,0,0,1,1.24.33l-.17,2a.58.58,0,0,1-.16.28.47.47,0,0,1-.28.08,3.89,3.89,0,0,1-.48,0,3.34,3.34,0,0,0-.62-.06,2.38,2.38,0,0,0-.79.13,1.89,1.89,0,0,0-.62.38,2.37,2.37,0,0,0-.49.59,6.44,6.44,0,0,0-.4.79v6.84h-2.68V233.49h1.57a.85.85,0,0,1,.57.15.87.87,0,0,1,.22.52Z"/><path d="M208.78,228.5v16.09h-1.63a.62.62,0,0,1-.67-.48l-.23-1.07a5.72,5.72,0,0,1-1.54,1.24,4.14,4.14,0,0,1-2,.48,3.64,3.64,0,0,1-3-1.48,5.35,5.35,0,0,1-.84-1.78,8.9,8.9,0,0,1-.3-2.42,7.39,7.39,0,0,1,.34-2.3,5.46,5.46,0,0,1,1-1.84,4.51,4.51,0,0,1,1.5-1.22,4.39,4.39,0,0,1,2-.44,4,4,0,0,1,1.59.29,4.33,4.33,0,0,1,1.19.79v-5.85Zm-2.67,7.82a2.94,2.94,0,0,0-1-.78,3,3,0,0,0-1.16-.22,2.56,2.56,0,0,0-1.09.22,2.41,2.41,0,0,0-.84.69,3.52,3.52,0,0,0-.53,1.17,6.92,6.92,0,0,0-.18,1.68,7.14,7.14,0,0,0,.16,1.65,3,3,0,0,0,.45,1.1,1.68,1.68,0,0,0,.71.62,2.44,2.44,0,0,0,1,.19,2.73,2.73,0,0,0,1.41-.35,4.21,4.21,0,0,0,1.11-1Z"/><path d="M218.2,235.65a.76.76,0,0,1-.23.24.56.56,0,0,1-.3.07.88.88,0,0,1-.42-.11l-.51-.24a4.73,4.73,0,0,0-.67-.24,2.9,2.9,0,0,0-.88-.11,2.05,2.05,0,0,0-1.24.33,1.06,1.06,0,0,0-.45.88.85.85,0,0,0,.23.6,2,2,0,0,0,.62.43,7.22,7.22,0,0,0,.87.33c.33.1.66.2,1,.32s.67.25,1,.39a3.5,3.5,0,0,1,.88.57,2.58,2.58,0,0,1,.61.81,2.54,2.54,0,0,1,.24,1.15,3.76,3.76,0,0,1-.29,1.48,3.15,3.15,0,0,1-.85,1.17,4.14,4.14,0,0,1-1.39.77,6.46,6.46,0,0,1-1.91.28,5.91,5.91,0,0,1-1.12-.11,6.72,6.72,0,0,1-1.05-.28,5.72,5.72,0,0,1-.93-.44,4,4,0,0,1-.76-.54l.62-1a.93.93,0,0,1,.28-.28.86.86,0,0,1,.41-.09.79.79,0,0,1,.47.14l.52.3a3.75,3.75,0,0,0,.69.3,2.83,2.83,0,0,0,1,.14,2.69,2.69,0,0,0,.81-.11,1.91,1.91,0,0,0,.57-.3,1.1,1.1,0,0,0,.32-.43,1.25,1.25,0,0,0,.11-.5.89.89,0,0,0-.24-.64,1.9,1.9,0,0,0-.61-.43,5.59,5.59,0,0,0-.88-.33l-1-.32a9.71,9.71,0,0,1-1-.41,3.26,3.26,0,0,1-.87-.59,2.6,2.6,0,0,1-.62-.87,3,3,0,0,1-.23-1.26,3.22,3.22,0,0,1,.27-1.3,3.08,3.08,0,0,1,.79-1.08,4,4,0,0,1,1.31-.73,5.29,5.29,0,0,1,1.81-.28,5.56,5.56,0,0,1,2.09.38,4.58,4.58,0,0,1,1.57,1Z"/><rect class="cls-9" x="1.68" y="103.5" width="246" height="62"/><path d="M76.27,127.93a.84.84,0,0,1-.27.33.61.61,0,0,1-.36.11,1,1,0,0,1-.5-.17c-.17-.11-.38-.24-.63-.37a4.93,4.93,0,0,0-.86-.38,3.68,3.68,0,0,0-1.16-.17,3.46,3.46,0,0,0-1.07.15,2.22,2.22,0,0,0-.76.41,1.65,1.65,0,0,0-.46.62,2.06,2.06,0,0,0-.15.79,1.35,1.35,0,0,0,.31.92,2.42,2.42,0,0,0,.82.63,6.87,6.87,0,0,0,1.15.47l1.34.44a11.58,11.58,0,0,1,1.33.54,4.38,4.38,0,0,1,1.16.78,3.56,3.56,0,0,1,.81,1.15,4,4,0,0,1,.31,1.66,5.4,5.4,0,0,1-.36,2,4.65,4.65,0,0,1-1.06,1.62,5,5,0,0,1-1.71,1.08,6.33,6.33,0,0,1-2.3.4,7.36,7.36,0,0,1-1.48-.15,8.26,8.26,0,0,1-1.39-.42,7.05,7.05,0,0,1-1.25-.65,6.16,6.16,0,0,1-1-.84l.86-1.4a.85.85,0,0,1,.28-.25.72.72,0,0,1,.37-.11,1,1,0,0,1,.58.23l.75.49a6.34,6.34,0,0,0,1,.49,3.86,3.86,0,0,0,1.39.22,2.82,2.82,0,0,0,1.93-.59,2.1,2.1,0,0,0,.68-1.69,1.56,1.56,0,0,0-.31-1,2.3,2.3,0,0,0-.81-.65,5.84,5.84,0,0,0-1.16-.45l-1.32-.4a12.47,12.47,0,0,1-1.32-.52,4.25,4.25,0,0,1-1.16-.79,3.69,3.69,0,0,1-.82-1.22,4.57,4.57,0,0,1-.31-1.8,4.33,4.33,0,0,1,1.33-3.11,4.85,4.85,0,0,1,1.61-1,5.89,5.89,0,0,1,2.18-.38,7.28,7.28,0,0,1,2.56.44,5.63,5.63,0,0,1,2,1.21Z"/><path d="M90.75,127.48H86v13.26H83.12V127.48H78.4v-2.39H90.75Z"/><path d="M107.22,132.91a8.74,8.74,0,0,1-.57,3.19,7.49,7.49,0,0,1-1.61,2.54,7.13,7.13,0,0,1-2.5,1.67,8.91,8.91,0,0,1-6.48,0,7.27,7.27,0,0,1-2.51-1.67,7.37,7.37,0,0,1-1.62-2.54,9.18,9.18,0,0,1,0-6.37,7.37,7.37,0,0,1,1.62-2.54,7.29,7.29,0,0,1,2.51-1.68,9,9,0,0,1,5.47-.32,7.51,7.51,0,0,1,1.93.78,7,7,0,0,1,1.58,1.22,7.5,7.5,0,0,1,1.18,1.61,7.58,7.58,0,0,1,.74,1.93A9.1,9.1,0,0,1,107.22,132.91Zm-3,0a7,7,0,0,0-.35-2.31,5.09,5.09,0,0,0-1-1.74,4.27,4.27,0,0,0-1.55-1.09,5.8,5.8,0,0,0-4.13,0,4.31,4.31,0,0,0-1.56,1.09,5,5,0,0,0-1,1.74,7.83,7.83,0,0,0,0,4.63,4.9,4.9,0,0,0,1,1.73,4.44,4.44,0,0,0,1.56,1.09,5.95,5.95,0,0,0,4.13,0,4.4,4.4,0,0,0,1.55-1.09,5,5,0,0,0,1-1.73A7,7,0,0,0,104.24,132.91Z"/><path d="M122,140.74h-2.63a1.17,1.17,0,0,1-1.09-.58l-3.29-5a1.27,1.27,0,0,0-.4-.4,1.44,1.44,0,0,0-.66-.12H112.7v6.12h-2.92V125.09h4.78a9.9,9.9,0,0,1,2.73.33,5.41,5.41,0,0,1,1.88.92,3.65,3.65,0,0,1,1.07,1.43,4.69,4.69,0,0,1,.35,1.82,4.79,4.79,0,0,1-.23,1.49,4.25,4.25,0,0,1-.68,1.28,4.55,4.55,0,0,1-1.08,1,5.6,5.6,0,0,1-1.46.68,3.21,3.21,0,0,1,.52.39,2.84,2.84,0,0,1,.43.52Zm-7.49-8.2a4.44,4.44,0,0,0,1.43-.21,2.9,2.9,0,0,0,1-.57,2.32,2.32,0,0,0,.59-.86,3,3,0,0,0,.19-1.09A2.21,2.21,0,0,0,117,128a3.76,3.76,0,0,0-2.4-.64H112.7v5.2Z"/><path d="M126.63,127.4v4.34h5.48V134h-5.48v4.42h7v2.33h-9.87V125.09h9.87v2.31Z"/><path d="M156.41,129.63l-3.52,11.11h-2.15c-.24,0-.41-.16-.51-.47l-2-6.42-.18-.65c-.05-.21-.1-.43-.13-.64l-.15.65q-.08.33-.18.66l-2,6.4a.57.57,0,0,1-.58.47H143l-3.52-11.11h2.13a.89.89,0,0,1,.5.14.67.67,0,0,1,.27.36l1.59,5.93q.12.49.21,1c.06.31.12.62.16.93.08-.31.16-.62.25-.93s.19-.63.29-1l1.84-5.95a.7.7,0,0,1,.26-.36.74.74,0,0,1,.46-.14h1.18a.87.87,0,0,1,.48.14.7.7,0,0,1,.26.36l1.79,5.95c.09.33.18.65.26,1s.17.63.25.94a18,18,0,0,1,.4-1.9l1.63-5.93a.78.78,0,0,1,.27-.36.82.82,0,0,1,.47-.14Z"/><path d="M162.66,129.46a6,6,0,0,1,2.25.4,4.86,4.86,0,0,1,2.84,2.93,7.46,7.46,0,0,1,0,4.76,5.11,5.11,0,0,1-1.11,1.81,4.88,4.88,0,0,1-1.73,1.14,6.56,6.56,0,0,1-4.51,0,4.83,4.83,0,0,1-1.74-1.14,5.11,5.11,0,0,1-1.11-1.81,7.28,7.28,0,0,1,0-4.76,5,5,0,0,1,1.11-1.79,5,5,0,0,1,1.74-1.14A6.06,6.06,0,0,1,162.66,129.46Zm0,9.39a2.34,2.34,0,0,0,2.05-.93,4.62,4.62,0,0,0,.67-2.73,4.68,4.68,0,0,0-.67-2.74,2.32,2.32,0,0,0-2.05-.94,2.38,2.38,0,0,0-2.08.94,4.72,4.72,0,0,0-.68,2.74,4.61,4.61,0,0,0,.68,2.72A2.4,2.4,0,0,0,162.66,138.85Z"/><path d="M172.71,131.56a5,5,0,0,1,1.23-1.56,2.64,2.64,0,0,1,1.69-.57,2.12,2.12,0,0,1,1.24.33l-.18,2a.49.49,0,0,1-.15.27.41.41,0,0,1-.28.08,2.58,2.58,0,0,1-.48-.05,3.31,3.31,0,0,0-.62,0,2.15,2.15,0,0,0-.79.13,1.9,1.9,0,0,0-.63.37,2.58,2.58,0,0,0-.48.59,5.28,5.28,0,0,0-.4.79v6.84h-2.67V129.63h1.57a.85.85,0,0,1,.57.15.87.87,0,0,1,.22.52Z"/><path d="M187.62,124.65v16.09H186a.63.63,0,0,1-.67-.49l-.23-1.07a5.43,5.43,0,0,1-1.54,1.25,4.14,4.14,0,0,1-2,.47,3.72,3.72,0,0,1-1.67-.37,3.79,3.79,0,0,1-1.3-1.1,5.26,5.26,0,0,1-.85-1.78,9.41,9.41,0,0,1-.29-2.43,7.75,7.75,0,0,1,.33-2.3,5.77,5.77,0,0,1,1-1.84,4.39,4.39,0,0,1,1.5-1.21,4.26,4.26,0,0,1,2-.44,3.83,3.83,0,0,1,1.59.29,4.14,4.14,0,0,1,1.18.79v-5.86Zm-2.68,7.82a2.55,2.55,0,0,0-1-.78,2.91,2.91,0,0,0-1.15-.23,2.53,2.53,0,0,0-1.09.23,2.14,2.14,0,0,0-.84.69,3.25,3.25,0,0,0-.53,1.17,6.83,6.83,0,0,0-.18,1.67,7.74,7.74,0,0,0,.15,1.65,3.57,3.57,0,0,0,.45,1.11,1.74,1.74,0,0,0,.72.61,2.19,2.19,0,0,0,.94.19,2.74,2.74,0,0,0,1.42-.34,4.2,4.2,0,0,0,1.1-1Z"/><path d="M197,131.8a.76.76,0,0,1-.23.24.56.56,0,0,1-.3.07.88.88,0,0,1-.42-.11l-.51-.24a4.73,4.73,0,0,0-.67-.24,3.25,3.25,0,0,0-.88-.11,2.05,2.05,0,0,0-1.24.33,1.06,1.06,0,0,0-.45.88.85.85,0,0,0,.23.6,2.12,2.12,0,0,0,.62.43,6.12,6.12,0,0,0,.87.33c.32.1.65.2,1,.32s.67.25,1,.39a3.28,3.28,0,0,1,.87.57,2.46,2.46,0,0,1,.85,2,3.75,3.75,0,0,1-.28,1.48,3.39,3.39,0,0,1-.85,1.17,4.1,4.1,0,0,1-1.4.77,6.15,6.15,0,0,1-1.91.28,6,6,0,0,1-1.12-.11,7.37,7.37,0,0,1-1-.28,6.63,6.63,0,0,1-.93-.44,4.23,4.23,0,0,1-.75-.54l.62-1a.93.93,0,0,1,.28-.28.83.83,0,0,1,.41-.1.92.92,0,0,1,.47.14l.51.31a4.46,4.46,0,0,0,.69.3,2.9,2.9,0,0,0,1,.14,2.81,2.81,0,0,0,.82-.11,1.74,1.74,0,0,0,.56-.3,1.06,1.06,0,0,0,.33-.43,1.24,1.24,0,0,0,.1-.5.93.93,0,0,0-.23-.64,2,2,0,0,0-.62-.43,4.49,4.49,0,0,0-.88-.33l-1-.32a8.89,8.89,0,0,1-1-.41,3.31,3.31,0,0,1-.88-.59,2.66,2.66,0,0,1-.61-.88,2.93,2.93,0,0,1-.24-1.25,3.19,3.19,0,0,1,.27-1.3,3.11,3.11,0,0,1,.8-1.08,4,4,0,0,1,1.31-.73,5.29,5.29,0,0,1,1.81-.28,5.56,5.56,0,0,1,2.09.38,4.68,4.68,0,0,1,1.57,1Z"/><line class="cls-1" x1="125.01" y1="167" x2="125.01" y2="190.67"/><polygon class="cls-2" points="116.13 183.93 125.01 187.71 133.9 183.93 125.01 205 116.13 183.93"/><line class="cls-1" x1="125.01" y1="272" x2="125.01" y2="890.67"/><polygon class="cls-2" points="116.13 883.93 125.01 887.71 133.9 883.93 125.01 905 116.13 883.93"/><path d="M112.07,925.53V929h4.33v1.77h-4.33v3.51h5.5v1.84h-7.82v-12.4h7.82v1.84Z"/><path d="M130.06,923.69v12.4h-1.18a1.08,1.08,0,0,1-.46-.09,1.06,1.06,0,0,1-.35-.3l-6.48-8.27a9.92,9.92,0,0,1,0,1.05v7.61h-2v-12.4h1.21l.25,0a.53.53,0,0,1,.19,0,.57.57,0,0,1,.16.11,1.72,1.72,0,0,1,.17.19l6.5,8.3c0-.2,0-.39,0-.59s0-.37,0-.54v-7.54Z"/><path d="M143.84,929.89a6.6,6.6,0,0,1-.46,2.51,5.7,5.7,0,0,1-1.28,2,5.51,5.51,0,0,1-2,1.28,7,7,0,0,1-2.57.45h-4.72v-12.4h4.72a7,7,0,0,1,2.57.46,5.79,5.79,0,0,1,2,1.28,5.7,5.7,0,0,1,1.28,2A6.58,6.58,0,0,1,143.84,929.89Zm-2.37,0a5.77,5.77,0,0,0-.27-1.83,3.83,3.83,0,0,0-.78-1.37,3.41,3.41,0,0,0-1.24-.86,4.19,4.19,0,0,0-1.63-.3h-2.41v8.73h2.41a4.19,4.19,0,0,0,1.63-.3,3.41,3.41,0,0,0,1.24-.86,3.83,3.83,0,0,0,.78-1.37A5.79,5.79,0,0,0,141.47,929.89Z"/><ellipse class="cls-4" cx="126.43" cy="930.05" rx="81.58" ry="24.95"/><path d="M562.22,598.38a2.26,2.26,0,0,1-1.75.51,2.43,2.43,0,0,1-1.51-1L556.11,594l-.7.52a.41.41,0,0,1-.29.08.46.46,0,0,1-.29-.19l-.48-.66,1-1-1-2.13a.53.53,0,0,1,0-.3.46.46,0,0,1,.19-.25l.85-.64,1.61,2.15,1.82-1.36.88,1.18-1.83,1.36,2.76,3.71a.93.93,0,0,0,.53.38.68.68,0,0,0,.57-.14,1,1,0,0,0,.23-.23,1.13,1.13,0,0,0,.12-.21,1.42,1.42,0,0,0,.08-.18.27.27,0,0,1,.09-.12.24.24,0,0,1,.15-.06l.18,0,1.09.43a3,3,0,0,1-.49,1.07A3.74,3.74,0,0,1,562.22,598.38Z"/><path d="M562.16,589.46a3.69,3.69,0,0,1,0-1.53,2,2,0,0,1,.78-1.13,1.67,1.67,0,0,1,.92-.36l.81,1.32a.35.35,0,0,1,0,.24.41.41,0,0,1-.13.18,2.61,2.61,0,0,1-.32.18,2.39,2.39,0,0,0-.41.26,1.53,1.53,0,0,0-.64,1,1.94,1.94,0,0,0,0,.59,4.53,4.53,0,0,0,.12.67l3.14,4.22-1.65,1.22-5.1-6.84,1-.72a.64.64,0,0,1,.42-.17.66.66,0,0,1,.38.22Z"/><path d="M570.59,581.33l5.1,6.85-1,.75a.47.47,0,0,1-.63,0l-.52-.46a4.61,4.61,0,0,1-.42,1.38,3.43,3.43,0,0,1-2.12,1.7,2.4,2.4,0,0,1-1.13,0,2.91,2.91,0,0,1-1.06-.49,4.61,4.61,0,0,1-.93-.94l-3.24-4.35,1.65-1.22,3.24,4.34a1.85,1.85,0,0,0,1,.76,1.36,1.36,0,0,0,1.13-.31,2.26,2.26,0,0,0,.66-.78,3.39,3.39,0,0,0,.31-1l-3.68-5Z"/><path d="M576.19,582.8a4.08,4.08,0,0,0,.87.78,2.33,2.33,0,0,0,.85.34,1.88,1.88,0,0,0,.85,0,2.5,2.5,0,0,0,.83-.42,3,3,0,0,0,.62-.61,4.71,4.71,0,0,0,.35-.58c.09-.18.16-.35.23-.49a.71.71,0,0,1,.24-.33.44.44,0,0,1,.42-.08l.93.25a3.72,3.72,0,0,1-.22,1,4.48,4.48,0,0,1-.45.87,4.94,4.94,0,0,1-.62.75,7.69,7.69,0,0,1-.7.6,4.4,4.4,0,0,1-1.5.75,3.73,3.73,0,0,1-1.59.1,3.94,3.94,0,0,1-1.57-.62,5.52,5.52,0,0,1-1.44-1.39,4.73,4.73,0,0,1-.76-1.48,4.19,4.19,0,0,1-.15-1.56,3.86,3.86,0,0,1,.5-1.5,4.21,4.21,0,0,1,1.18-1.29,4.09,4.09,0,0,1,1.35-.68,3.28,3.28,0,0,1,1.39-.1,3.49,3.49,0,0,1,1.34.52,4.32,4.32,0,0,1,1.2,1.15,1.33,1.33,0,0,1,.3.56.41.41,0,0,1-.21.36Zm2.4-3.33a2.76,2.76,0,0,0-.54-.54,1.76,1.76,0,0,0-.64-.29,1.65,1.65,0,0,0-.7,0,2,2,0,0,0-.74.36,1.87,1.87,0,0,0-.82,1.24,2.49,2.49,0,0,0,.34,1.55Z"/><path d="M726.08,578.31l4.62-5.24-.48-.57a.86.86,0,0,1-.18-.39.41.41,0,0,1,.12-.35l.56-.63.95.84.42-.47a3.5,3.5,0,0,1,1-.84,2.72,2.72,0,0,1,1.13-.33,2.81,2.81,0,0,1,1.16.2,3.74,3.74,0,0,1,1.14.72,4,4,0,0,1,.72.84l-.72.75a.32.32,0,0,1-.17.09.32.32,0,0,1-.19,0,.62.62,0,0,1-.19-.11,1.46,1.46,0,0,1-.21-.16,2.37,2.37,0,0,0-.54-.37,1.08,1.08,0,0,0-.55-.12,1.27,1.27,0,0,0-.57.18,2.78,2.78,0,0,0-.6.53l-.38.43,1.67,1.46-1,1.1-1.62-1.42-4.62,5.24Z"/><path d="M734.79,576.21a5.06,5.06,0,0,1,3.55,1.33,3.6,3.6,0,0,1,.84,1.07,2.88,2.88,0,0,1,.29,1.17,2.76,2.76,0,0,1-.22,1.19,3.9,3.9,0,0,1-.72,1.14l-3.57,4-.7-.61a1,1,0,0,1-.28-.37.62.62,0,0,1,0-.43l.27-.58q-.43,0-.81,0a4.29,4.29,0,0,1-.73-.15,3.13,3.13,0,0,1-.68-.3,4.13,4.13,0,0,1-.68-.49,3.29,3.29,0,0,1-.65-.77,2.19,2.19,0,0,1-.31-.85,2.11,2.11,0,0,1,.1-.89,2.68,2.68,0,0,1,.52-.87,2.24,2.24,0,0,1,.51-.41,2,2,0,0,1,.67-.23,3,3,0,0,1,.84,0,4.25,4.25,0,0,1,1,.3,8.94,8.94,0,0,1,1.2.64,13.16,13.16,0,0,1,1.39,1l.33-.37a1.89,1.89,0,0,0,.57-1.2,1.34,1.34,0,0,0-.52-1,2.33,2.33,0,0,0-.7-.46,3.26,3.26,0,0,0-.61-.19l-.51-.1a1.06,1.06,0,0,1-.42-.22.56.56,0,0,1-.19-.32.87.87,0,0,1,0-.36Zm1.08,5.89a10.19,10.19,0,0,0-1.23-.88,4.29,4.29,0,0,0-.92-.43,1.28,1.28,0,0,0-.66,0,.89.89,0,0,0-.45.28.87.87,0,0,0-.27.79,1.33,1.33,0,0,0,.47.73,2.52,2.52,0,0,0,1,.55,3.21,3.21,0,0,0,1.14.07Z"/><path d="M746.14,579.54,738,588.81l-1.53-1.36,8.17-9.27Z"/><path d="M748,588.46a.59.59,0,0,1-.25,0,.57.57,0,0,1-.21-.12.69.69,0,0,1-.19-.27c0-.12-.1-.25-.17-.4a2.83,2.83,0,0,0-.26-.48,2.57,2.57,0,0,0-.45-.51,1.53,1.53,0,0,0-.89-.44.8.8,0,0,0-.7.28.62.62,0,0,0-.17.46,1.4,1.4,0,0,0,.14.56,3.84,3.84,0,0,0,.33.63l.41.69c.13.24.26.48.37.73a2.68,2.68,0,0,1,.21.77,1.73,1.73,0,0,1-.06.78,1.84,1.84,0,0,1-.45.78,2.78,2.78,0,0,1-.91.71,2.52,2.52,0,0,1-1.09.24,3,3,0,0,1-1.19-.27,4.53,4.53,0,0,1-1.24-.81,3.9,3.9,0,0,1-.59-.63,4.36,4.36,0,0,1-.46-.69,5.07,5.07,0,0,1-.32-.73,3.06,3.06,0,0,1-.15-.69l.87-.28a.77.77,0,0,1,.3,0,.58.58,0,0,1,.29.15.63.63,0,0,1,.2.32c0,.13.08.28.14.44a4.59,4.59,0,0,0,.24.52,2.21,2.21,0,0,0,.51.59,1.94,1.94,0,0,0,.53.35,1.48,1.48,0,0,0,.47.12,1,1,0,0,0,.41-.09,1.19,1.19,0,0,0,.31-.23.69.69,0,0,0,.19-.49,1.51,1.51,0,0,0-.13-.56,5,5,0,0,0-.34-.64l-.42-.69a7.45,7.45,0,0,1-.37-.75,2.8,2.8,0,0,1-.21-.79,2.35,2.35,0,0,1,.09-.82,2.56,2.56,0,0,1,.51-.84,2.48,2.48,0,0,1,.82-.61,2.39,2.39,0,0,1,1-.21,3,3,0,0,1,1.13.24,4.17,4.17,0,0,1,1.19.76,4.25,4.25,0,0,1,1,1.28,3.5,3.5,0,0,1,.4,1.37Z"/><path d="M748.82,593a4.19,4.19,0,0,0-.57,1,2.35,2.35,0,0,0-.17.91,2,2,0,0,0,.23.82,2.59,2.59,0,0,0,.58.72,2.81,2.81,0,0,0,.72.48,4.26,4.26,0,0,0,.65.23l.52.12a.83.83,0,0,1,.38.17.44.44,0,0,1,.16.4l-.06,1a3.11,3.11,0,0,1-1,0,3.82,3.82,0,0,1-1-.26,4.39,4.39,0,0,1-.86-.45,6,6,0,0,1-.74-.56,4.5,4.5,0,0,1-1-1.32,3.44,3.44,0,0,1-.42-1.53,4,4,0,0,1,.28-1.67,5.62,5.62,0,0,1,1.06-1.69,4.73,4.73,0,0,1,1.3-1,3.93,3.93,0,0,1,1.49-.47,3.87,3.87,0,0,1,1.57.18,4.51,4.51,0,0,1,2.45,2.06,3.26,3.26,0,0,1,.38,1.34,3.42,3.42,0,0,1-.23,1.42,4.62,4.62,0,0,1-.87,1.42,1.42,1.42,0,0,1-.49.4.42.42,0,0,1-.4-.13Zm3.76,1.67a2.48,2.48,0,0,0,.41-.64,1.73,1.73,0,0,0,.16-.69,1.44,1.44,0,0,0-.15-.69,1.87,1.87,0,0,0-.5-.65,1.89,1.89,0,0,0-1.38-.54,2.55,2.55,0,0,0-1.45.64Z"/><path d="M110.92,289.2h-4.34v5.48h-2.24V289.2H99.91v6.95H97.59v-9.87h15.66v9.88h-2.32Z"/><path d="M113.25,311.92H97.59v-1.5a1.43,1.43,0,0,1,.11-.58,1.57,1.57,0,0,1,.39-.45l10.43-8.18a12.45,12.45,0,0,1-1.32.07H97.59v-2.56h15.65v1.53a3.11,3.11,0,0,1,0,.32.84.84,0,0,1-.07.24.81.81,0,0,1-.14.2l-.24.21-10.48,8.21.75-.05c.24,0,.47,0,.68,0h9.52Z"/><path d="M105.43,329.31a8.55,8.55,0,0,1-3.17-.57,7,7,0,0,1-4.09-4.12,9,9,0,0,1-.58-3.24v-6h15.66v6a8.67,8.67,0,0,1-.58,3.25,7.09,7.09,0,0,1-4.08,4.11A8.34,8.34,0,0,1,105.43,329.31Zm0-3a7.3,7.3,0,0,0,2.32-.34,4.81,4.81,0,0,0,1.73-1,4.44,4.44,0,0,0,1.09-1.56,5.37,5.37,0,0,0,.37-2.06v-3h-11v3.05a5.4,5.4,0,0,0,.38,2.06,4.31,4.31,0,0,0,1.09,1.56,4.8,4.8,0,0,0,1.73,1A7.24,7.24,0,0,0,105.42,326.32Z"/><path d="M105.43,352.07a8.68,8.68,0,0,1-3.18-.57,7.34,7.34,0,0,1-2.54-1.61,7.15,7.15,0,0,1-1.68-2.5,9,9,0,0,1,0-6.48,7.41,7.41,0,0,1,1.67-2.51,7.62,7.62,0,0,1,2.54-1.62,9.21,9.21,0,0,1,6.38,0,7.46,7.46,0,0,1,2.54,1.62,7.37,7.37,0,0,1,1.67,2.5,8.5,8.5,0,0,1,.6,3.24,9,9,0,0,1-.27,2.24,8.48,8.48,0,0,1-.78,1.93,7.31,7.31,0,0,1-2.83,2.76,7.72,7.72,0,0,1-1.93.74A9.13,9.13,0,0,1,105.43,352.07Zm0-3a6.92,6.92,0,0,0,2.31-.35,4.91,4.91,0,0,0,1.74-1,4.34,4.34,0,0,0,1.1-1.56,5.37,5.37,0,0,0,.37-2.06,5.22,5.22,0,0,0-.38-2.06,4.19,4.19,0,0,0-1.09-1.56,5,5,0,0,0-1.74-1,7.8,7.8,0,0,0-4.62,0,4.81,4.81,0,0,0-1.73,1,4.19,4.19,0,0,0-1.09,1.56,5.8,5.8,0,0,0,0,4.13,4.27,4.27,0,0,0,1.09,1.55,5,5,0,0,0,1.73,1A7.19,7.19,0,0,0,105.43,349.09Z"/><path d="M111,357.56h-4.64v5.86H104v-5.87H97.61v-2.92h15.65v9.87H111Z"/><path d="M108.73,386.63,97.62,383.1V381c0-.25.16-.42.47-.51l6.42-2,.65-.18c.21,0,.43-.1.64-.13l-.65-.15-.66-.18-6.4-2a.55.55,0,0,1-.47-.57v-2.06l11.11-3.52v2.13a.82.82,0,0,1-.14.5.6.6,0,0,1-.36.27l-5.93,1.59-1,.22-.93.15.93.26,1,.28,6,1.84a.7.7,0,0,1,.36.26.76.76,0,0,1,.14.46v1.18a.87.87,0,0,1-.14.48.7.7,0,0,1-.36.26l-6,1.79-1,.27-.94.24c.61.1,1.25.23,1.9.4l5.93,1.63a.78.78,0,0,1,.36.27.82.82,0,0,1,.14.47Z"/><path d="M108.9,392.87a6,6,0,0,1-.4,2.25,4.86,4.86,0,0,1-1.13,1.73,5,5,0,0,1-1.8,1.11,7.43,7.43,0,0,1-4.75,0,5.23,5.23,0,0,1-1.81-1.1,4.85,4.85,0,0,1-1.15-1.74,6,6,0,0,1-.4-2.24,6.11,6.11,0,0,1,.4-2.27A4.9,4.9,0,0,1,99,388.88a5.09,5.09,0,0,1,1.8-1.12,6.92,6.92,0,0,1,2.39-.4,6.62,6.62,0,0,1,2.37.4,5,5,0,0,1,1.79,1.11,4.83,4.83,0,0,1,1.14,1.74A6.06,6.06,0,0,1,108.9,392.87Zm-9.38,0a2.36,2.36,0,0,0,.93,2.05,4.7,4.7,0,0,0,2.73.66,4.76,4.76,0,0,0,2.74-.66,2.74,2.74,0,0,0,0-4.14,5.82,5.82,0,0,0-5.46,0A2.41,2.41,0,0,0,99.52,392.88Z"/><path d="M106.81,402.92a5,5,0,0,1,1.56,1.23,2.64,2.64,0,0,1,.57,1.69,2.09,2.09,0,0,1-.33,1.24l-2-.18a.44.44,0,0,1-.27-.15.41.41,0,0,1-.08-.28,2.58,2.58,0,0,1,0-.48,3.31,3.31,0,0,0,0-.62,2.15,2.15,0,0,0-.13-.79,2,2,0,0,0-.37-.63,2.58,2.58,0,0,0-.59-.48,7.25,7.25,0,0,0-.79-.4H97.63V400.4h11.11V402a.85.85,0,0,1-.14.57.87.87,0,0,1-.53.22Z"/><path d="M113.72,417.83H97.63V416.2a.62.62,0,0,1,.49-.67l1.07-.23a5.76,5.76,0,0,1-1.25-1.54,4.28,4.28,0,0,1-.47-2,3.69,3.69,0,0,1,.37-1.67,3.82,3.82,0,0,1,1.1-1.31,5.44,5.44,0,0,1,1.78-.84,9,9,0,0,1,2.43-.3,7.64,7.64,0,0,1,2.29.33,5.71,5.71,0,0,1,1.85,1,4.48,4.48,0,0,1,1.21,1.5,4.26,4.26,0,0,1,.44,2,3.83,3.83,0,0,1-.29,1.59,3.94,3.94,0,0,1-.79,1.18h5.86Zm-7.82-2.68a2.55,2.55,0,0,0,.78-1,2.91,2.91,0,0,0,.23-1.15,2.56,2.56,0,0,0-.23-1.09,2.14,2.14,0,0,0-.69-.84,3.34,3.34,0,0,0-1.17-.53,6.83,6.83,0,0,0-1.67-.18,7.09,7.09,0,0,0-1.65.16,3.14,3.14,0,0,0-1.11.45,1.65,1.65,0,0,0-.61.71,2.23,2.23,0,0,0-.19.94,2.65,2.65,0,0,0,.35,1.42,4.35,4.35,0,0,0,1,1.11Z"/><path d="M106.58,427.25a.71.71,0,0,1-.25-.23.66.66,0,0,1-.07-.3,1,1,0,0,1,.11-.42l.25-.51a4.73,4.73,0,0,0,.24-.67,3.25,3.25,0,0,0,.11-.88,2.05,2.05,0,0,0-.34-1.24,1,1,0,0,0-.88-.45.85.85,0,0,0-.6.23,2.1,2.1,0,0,0-.42.62,4.92,4.92,0,0,0-.33.87c-.1.33-.21.66-.32,1s-.25.67-.4,1a3.25,3.25,0,0,1-.56.87,2.51,2.51,0,0,1-.82.62,2.54,2.54,0,0,1-1.15.24,3.74,3.74,0,0,1-1.47-.29,3.1,3.1,0,0,1-1.17-.85,4,4,0,0,1-.77-1.39,6.53,6.53,0,0,1-.18-3,6.73,6.73,0,0,1,.29-1.05,5.7,5.7,0,0,1,.43-.93,5.1,5.1,0,0,1,.54-.76l1,.62a.83.83,0,0,1,.28.28.76.76,0,0,1,.1.41.86.86,0,0,1-.14.47l-.3.52a4.54,4.54,0,0,0-.31.69,3.08,3.08,0,0,0-.14,1,2.43,2.43,0,0,0,.12.81,1.54,1.54,0,0,0,.3.57,1.18,1.18,0,0,0,.42.32,1.29,1.29,0,0,0,.51.1.88.88,0,0,0,.64-.23,2,2,0,0,0,.43-.62,6.12,6.12,0,0,0,.33-.87c.1-.33.2-.67.32-1a9.63,9.63,0,0,1,.4-1,3.34,3.34,0,0,1,.59-.87,2.55,2.55,0,0,1,.88-.62,3,3,0,0,1,1.25-.23,3.15,3.15,0,0,1,2.38,1.06,4,4,0,0,1,.74,1.31,6,6,0,0,1-.1,3.9,4.76,4.76,0,0,1-1,1.57Z"/><path d="M274.53,223.72,271,234.83h-2.14q-.37,0-.51-.48l-2-6.42c-.06-.21-.12-.43-.17-.64s-.1-.43-.14-.65q-.06.33-.15.66c-.05.22-.11.44-.17.65l-2,6.4a.55.55,0,0,1-.57.48h-2.06l-3.52-11.11h2.13a.89.89,0,0,1,.5.14.67.67,0,0,1,.27.36l1.6,5.93q.12.49.21,1c.06.31.11.62.16.93.07-.31.16-.62.25-.93s.18-.63.29-1l1.83-6a.68.68,0,0,1,.26-.36.76.76,0,0,1,.46-.14h1.18a.83.83,0,0,1,.48.14.69.69,0,0,1,.27.36l1.78,6c.1.33.19.64.27,1l.24.94c.1-.62.23-1.25.4-1.9l1.64-5.93a.69.69,0,0,1,.27-.36.78.78,0,0,1,.46-.14Z"/><path d="M280.77,223.54a6.17,6.17,0,0,1,2.25.4,4.92,4.92,0,0,1,1.73,1.14,5,5,0,0,1,1.11,1.8,7,7,0,0,1,.4,2.37,6.87,6.87,0,0,1-.39,2.38,5.11,5.11,0,0,1-1.11,1.81,4.88,4.88,0,0,1-1.73,1.14,6,6,0,0,1-2.25.41,6.23,6.23,0,0,1-2.26-.4,4.85,4.85,0,0,1-1.74-1.15,5.28,5.28,0,0,1-1.12-1.81,7.43,7.43,0,0,1,0-4.75,5.12,5.12,0,0,1,1.11-1.8,5,5,0,0,1,1.74-1.14A6.27,6.27,0,0,1,280.77,223.54Zm0,9.39a2.35,2.35,0,0,0,2.05-.93,4.7,4.7,0,0,0,.66-2.73,4.76,4.76,0,0,0-.66-2.74,2.34,2.34,0,0,0-2.05-.94,2.38,2.38,0,0,0-2.09.95,4.66,4.66,0,0,0-.67,2.73,4.61,4.61,0,0,0,.67,2.72A2.4,2.4,0,0,0,280.78,232.93Z"/><path d="M290.82,225.64a4.77,4.77,0,0,1,1.24-1.57,2.61,2.61,0,0,1,1.68-.57,2.09,2.09,0,0,1,1.24.34l-.17,2a.58.58,0,0,1-.16.28.47.47,0,0,1-.28.08,4.08,4.08,0,0,1-.48,0,3.34,3.34,0,0,0-.62-.06,2.38,2.38,0,0,0-.79.13,1.89,1.89,0,0,0-.62.38,2.37,2.37,0,0,0-.49.59,6.44,6.44,0,0,0-.4.79v6.84H288.3V223.71h1.57a.85.85,0,0,1,.57.15.87.87,0,0,1,.22.52Z"/><path d="M305.73,218.73v16.08H304.1a.63.63,0,0,1-.67-.48l-.23-1.07a5.72,5.72,0,0,1-1.54,1.24,4.14,4.14,0,0,1-2,.48,3.73,3.73,0,0,1-1.67-.38,3.6,3.6,0,0,1-1.3-1.1,5.17,5.17,0,0,1-.85-1.78,8.9,8.9,0,0,1-.3-2.42,7.39,7.39,0,0,1,.34-2.3,5.46,5.46,0,0,1,1-1.84,4.51,4.51,0,0,1,1.5-1.22,4.39,4.39,0,0,1,2-.44,4.08,4.08,0,0,1,1.6.29,4.28,4.28,0,0,1,1.18.79v-5.85Zm-2.67,7.81a2.94,2.94,0,0,0-1-.78,3,3,0,0,0-1.16-.22,2.42,2.42,0,0,0-1.09.23,2.17,2.17,0,0,0-.83.68,3.16,3.16,0,0,0-.53,1.17,6.42,6.42,0,0,0-.19,1.68,7.74,7.74,0,0,0,.16,1.65,3,3,0,0,0,.45,1.1,1.68,1.68,0,0,0,.71.62,2.44,2.44,0,0,0,1,.19,2.73,2.73,0,0,0,1.41-.35,4.21,4.21,0,0,0,1.11-1Z"/></svg>