<?xml version="1.0" encoding="UTF-8" standalone="no"?>
<!DOCTYPE svg PUBLIC "-//W3C//DTD SVG 1.1//EN" "http://www.w3.org/Graphics/SVG/1.1/DTD/svg11.dtd">
<!-- Generated by Microsoft Visio, SVG Export main-ospf-network-types.svg Page-1 -->
<svg xmlns="http://www.w3.org/2000/svg" xmlns:xlink="http://www.w3.org/1999/xlink" xmlns:ev="http://www.w3.org/2001/xml-events"
		xmlns:v="http://schemas.microsoft.com/visio/2003/SVGExtensions/" width="7.83222in" height="4.21669in"
		viewBox="0 0 563.92 303.601" xml:space="preserve" color-interpolation-filters="sRGB" class="st20">
	<v:documentProperties v:langID="1026" v:viewMarkup="false"/>

	<style type="text/css">
	<![CDATA[
		.st1 {fill:#dbeef3;stroke:none;stroke-linecap:round;stroke-linejoin:round;stroke-width:7}
		.st2 {fill:#000000;font-family:Arial;font-size:1.33333em;font-weight:bold}
		.st3 {stroke:#000000;stroke-linecap:round;stroke-linejoin:round;stroke-width:1}
		.st4 {fill:#0e6f9c;stroke:none;stroke-linecap:round;stroke-linejoin:round;stroke-width:0.75}
		.st5 {stroke:#f2f2f2;stroke-linecap:round;stroke-linejoin:round;stroke-width:0.594974}
		.st6 {fill:#1082b8;stroke:none;stroke-linecap:round;stroke-linejoin:round;stroke-width:0.75}
		.st7 {stroke:#ffffff;stroke-linecap:round;stroke-linejoin:round;stroke-width:1}
		.st8 {fill:#ffffff;stroke:none;stroke-linecap:round;stroke-linejoin:round;stroke-width:0.75}
		.st9 {fill:none;stroke:none;stroke-linecap:round;stroke-linejoin:round;stroke-width:0.75}
		.st10 {fill:#ffffff;font-family:Arial;font-size:0.499992em}
		.st11 {font-size:1em}
		.st12 {fill:#000000;font-family:Wingdings;font-size:0.833336em}
		.st13 {font-family:Arial;font-size:1em}
		.st14 {fill:#000000;stroke:none;stroke-linecap:round;stroke-linejoin:round;stroke-width:0.75}
		.st15 {fill:#ffffff;font-family:Arial;font-size:0.916672em;font-weight:bold}
		.st16 {font-size:1em;font-weight:normal}
		.st17 {fill:#000000;stroke:#ffffff;stroke-linecap:round;stroke-linejoin:round;stroke-width:0.75}
		.st18 {fill:#b7dde8;stroke:none;stroke-linecap:round;stroke-linejoin:round;stroke-width:7}
		.st19 {fill:#000000;font-family:Arial;font-size:1.5em;font-weight:bold}
		.st20 {fill:none;fill-rule:evenodd;font-size:12px;overflow:visible;stroke-linecap:square;stroke-miterlimit:3}
	]]>
	</style>

	<g v:mID="0" v:index="1" v:groupContext="foregroundPage">
		<title>Page-1</title>
		<v:pageProperties v:drawingScale="0.0393701" v:pageScale="0.0393701" v:drawingUnits="24" v:shadowOffsetX="9"
				v:shadowOffsetY="-9"/>
		<g id="group209-1" transform="translate(3.5,-0.375)" v:mID="209" v:groupContext="group">
			<title>Sheet.209</title>
			<g id="shape1-2" v:mID="1" v:groupContext="shape" transform="translate(0,-9.78272)">
				<title>Rectangle</title>
				<desc>Point-to-Point</desc>
				<v:userDefs>
					<v:ud v:nameU="visVersion" v:val="VT0(15):26"/>
				</v:userDefs>
				<v:textBlock v:margins="rect(6,4,4,4)" v:tabSpace="42.5197" v:verticalAlign="0"/>
				<v:textRect cx="89.6237" cy="178.472" width="179.25" height="250.259"/>
				<rect x="0" y="53.3428" width="179.247" height="250.259" class="st1"/>
				<text x="36.75" y="73.74" class="st2" v:langID="1033"><v:paragraph v:horizAlign="1"/><v:tabList/>Point-to-Point</text>			</g>
			<g id="shape174-5" v:mID="174" v:groupContext="shape" transform="translate(44.9415,-208.973)">
				<title>Sheet.174</title>
				<path d="M0 303.6 L77.24 303.6" class="st3"/>
			</g>
			<g id="group21-8" transform="translate(122.09,-201.53)" v:mID="21" v:groupContext="group">
				<title>Sheet.21</title>
				<g id="shape22-9" v:mID="22" v:groupContext="shape" transform="translate(0.0465515,1.13687E-013)">
					<title>Sheet.22</title>
					<path d="M30.49 298.11 C30.49 298.11 30.49 298.11 30.49 298.11 C30.49 301.15 23.65 303.6 15.27 303.6 C6.84 303.6
								 0 301.15 0 298.11 C0 295.07 6.84 292.62 15.27 292.62 C23.65 292.62 30.49 295.07 30.49 298.11 Z"
							class="st4"/>
				</g>
				<g id="shape23-11" v:mID="23" v:groupContext="shape" transform="translate(0.0465515,1.13687E-013)">
					<title>Sheet.23</title>
					<path d="M30.49 298.11 C30.49 298.11 30.49 298.11 30.49 298.11 C30.49 301.15 23.65 303.6 15.27 303.6 C6.84 303.6
								 0 301.15 0 298.11 C0 295.07 6.84 292.62 15.27 292.62 C23.65 292.62 30.49 295.07 30.49 298.11"
							class="st5"/>
				</g>
				<g id="shape24-14" v:mID="24" v:groupContext="shape" transform="translate(-7.99361E-015,-5.34402)">
					<title>Sheet.24</title>
					<path d="M0 295.76 L0 303.6 L30.54 303.6 L30.54 295.76 L0 295.76 L0 295.76 L0 295.76 Z" class="st4"/>
				</g>
				<g id="shape25-16" v:mID="25" v:groupContext="shape" transform="translate(0.0465515,-7.84444)">
					<title>Sheet.25</title>
					<path d="M30.49 298.11 C30.49 298.11 30.49 298.11 30.49 298.11 C30.49 301.15 23.65 303.6 15.27 303.6 C6.84 303.6
								 0 301.15 0 298.11 C0 295.07 6.84 292.62 15.27 292.62 C23.65 292.62 30.49 295.07 30.49 298.11 Z"
							class="st6"/>
				</g>
				<g id="shape26-18" v:mID="26" v:groupContext="shape" transform="translate(0.0465515,-7.84444)">
					<title>Sheet.26</title>
					<path d="M30.49 298.11 C30.49 298.11 30.49 298.11 30.49 298.11 C30.49 301.15 23.65 303.6 15.27 303.6 C6.84 303.6
								 0 301.15 0 298.11 C0 295.07 6.84 292.62 15.27 292.62 C23.65 292.62 30.49 295.07 30.49 298.11"
							class="st7"/>
				</g>
				<g id="shape27-21" v:mID="27" v:groupContext="shape" transform="translate(15.6878,-13.7768)">
					<title>Sheet.27</title>
					<path d="M0 302.82 L2.23 303.6 L7.54 301.4 L10.01 302.03 L8.71 300.02 L2.33 300.02 L4.98 300.71 L0 302.82 L0
								 302.82 L0 302.82 Z" class="st6"/>
				</g>
				<g id="shape28-23" v:mID="28" v:groupContext="shape" transform="translate(4.7017,-9.51138)">
					<title>Sheet.28</title>
					<path d="M10.06 300.81 L7.82 300.02 L2.51 302.28 L0 301.64 L1.35 303.6 L7.73 303.6 L5.03 302.92 L10.06 300.81
								 L10.06 300.81 L10.06 300.81 Z" class="st6"/>
				</g>
				<g id="shape29-25" v:mID="29" v:groupContext="shape" transform="translate(5.26032,-13.8749)">
					<title>Sheet.29</title>
					<path d="M0 300.81 L2.23 300.02 L7.54 302.28 L10.06 301.64 L8.75 303.6 L2.33 303.6 L5.03 302.92 L0 300.81 L0
								 300.81 L0 300.81 Z" class="st6"/>
				</g>
				<g id="shape30-27" v:mID="30" v:groupContext="shape" transform="translate(15.362,-9.26624)">
					<title>Sheet.30</title>
					<path d="M10.01 302.82 L7.77 303.6 L2.47 301.4 L0 302.03 L1.3 300.02 L7.68 300.02 L5.03 300.71 L10.01 302.82
								 L10.01 302.82 L10.01 302.82 Z" class="st6"/>
				</g>
				<g id="shape31-29" v:mID="31" v:groupContext="shape" transform="translate(15.8741,-13.5807)">
					<title>Sheet.31</title>
					<path d="M0 302.82 L2.23 303.6 L7.54 301.4 L10.01 302.03 L8.71 300.02 L2.33 300.02 L4.98 300.71 L0 302.82 L0
								 302.82 L0 302.82 Z" class="st8"/>
				</g>
				<g id="shape32-31" v:mID="32" v:groupContext="shape" transform="translate(4.8879,-9.31527)">
					<title>Sheet.32</title>
					<path d="M10.06 300.81 L7.82 300.02 L2.51 302.28 L0 301.64 L1.35 303.6 L7.73 303.6 L5.03 302.92 L10.06 300.81
								 L10.06 300.81 L10.06 300.81 Z" class="st8"/>
				</g>
				<g id="shape33-33" v:mID="33" v:groupContext="shape" transform="translate(5.44652,-13.6787)">
					<title>Sheet.33</title>
					<path d="M0 300.81 L2.23 300.02 L7.54 302.28 L10.06 301.64 L8.75 303.6 L2.33 303.6 L5.03 302.92 L0 300.81 L0
								 300.81 L0 300.81 Z" class="st8"/>
				</g>
				<g id="shape34-35" v:mID="34" v:groupContext="shape" transform="translate(15.5482,-9.07013)">
					<title>Sheet.34</title>
					<path d="M10.01 302.82 L7.77 303.6 L2.47 301.4 L0 302.03 L1.3 300.02 L7.68 300.02 L5.03 300.71 L10.01 302.82
								 L10.01 302.82 L10.01 302.82 Z" class="st8"/>
				</g>
				<g id="shape35-37" v:mID="35" v:groupContext="shape" transform="translate(0.0465515,-5.34402)">
					<title>Sheet.35</title>
					<path d="M0 295.71 L0 303.6" class="st5"/>
				</g>
				<g id="shape36-40" v:mID="36" v:groupContext="shape" transform="translate(30.5378,-5.34402)">
					<title>Sheet.36</title>
					<path d="M0 295.71 L0 303.6" class="st5"/>
				</g>
				<g id="shape37-43" v:mID="37" v:groupContext="shape" transform="translate(0.0884947,-0.259354)">
					<title>Sheet.37</title>
					<desc>SW1</desc>
					<v:userDefs/>
					<v:textBlock v:margins="rect(4,4,4,4)" v:tabSpace="42.5197"/>
					<v:textRect cx="15.3624" cy="300.009" width="30.73" height="7.1841"/>
					<rect x="0" y="296.417" width="30.7249" height="7.1841" class="st9"/>
					<text x="11.53" y="301.66" class="st10" v:langID="1026"><v:paragraph v:spLine="-1.1" v:horizAlign="1"/><v:tabList/>R<tspan
								class="st11" v:langID="1033">2</tspan></text>				</g>
			</g>
			<g id="shape188-47" v:mID="188" v:groupContext="shape" transform="translate(0,-50.2777)">
				<title>Sheet.188</title>
				<desc>Directly connected two routers. One to One connectivity. Defa...</desc>
				<v:textBlock v:margins="rect(4,4,4,1)" v:tabSpace="42.5197" v:verticalAlign="0"/>
				<v:textRect cx="89.6237" cy="260.885" width="179.25" height="85.4332"/>
				<rect x="0" y="218.168" width="179.247" height="85.4332" class="st9"/>
				<text x="7.66" y="231.3" class="st12" v:langID="1033"><v:paragraph v:indentFirst="-11.34" v:indentLeft="18"
							v:bullet="3"/><v:tabList/><tspan class="st11" v:isBullet="true">§</tspan> <tspan class="st13">Directly connected two routers</tspan><tspan
							class="st13">.<v:newlineChar/></tspan><tspan x="7.66" dy="1.217em" class="st11" v:isBullet="true">§</tspan> <tspan
							class="st13">One to One connectivity</tspan><tspan class="st13">.<v:newlineChar/></tspan><tspan
							x="7.66" dy="1.217em" class="st11" v:isBullet="true">§</tspan> <tspan class="st13">Default Hello interval </tspan><tspan
							class="st13">–</tspan><tspan class="st13"> </tspan><tspan class="st13">10 </tspan><tspan class="st13">sec</tspan><tspan
							class="st13">.<v:newlineChar/></tspan><tspan x="7.66" dy="1.217em" class="st11" v:isBullet="true">§</tspan> <tspan
							class="st13">Dynamic Discovery of Neighbors</tspan><tspan class="st13">. <v:newlineChar/></tspan><tspan
							x="7.66" dy="1.217em" class="st11" v:isBullet="true">§</tspan> <tspan class="st13">Don</tspan><tspan
							class="st13">’</tspan><tspan class="st13">t use DR</tspan><tspan class="st13">/</tspan><tspan
							class="st13">BDR</tspan><tspan class="st13">.<v:newlineChar/></tspan><tspan x="7.66" dy="1.217em"
							class="st11" v:isBullet="true">§</tspan> <tspan class="st13">Default type on Serial interfaces </tspan><tspan
							x="19" dy="1.204em" class="st13">and GRE </tspan><tspan class="st13">/ </tspan><tspan class="st13">IPsec tunnels</tspan><tspan
							class="st13">.</tspan></text>			</g>
			<g id="shape191-79" v:mID="191" v:groupContext="shape">
				<title>Sheet.191</title>
				<desc>Router(config-if)# ip ospf network point-to-point</desc>
				<v:textBlock v:margins="rect(4,4,4,4)" v:tabSpace="42.5197" v:verticalAlign="0"/>
				<v:textRect cx="89.6237" cy="283.354" width="179.25" height="40.4949"/>
				<rect x="0" y="263.107" width="179.247" height="40.4949" class="st14"/>
				<text x="4" y="277.01" class="st15" v:langID="1033"><v:paragraph/><v:tabList/>Router(config-if)#<v:newlineChar/><tspan
							x="4" dy="1.2em" class="st16"> </tspan><tspan class="st16">ip ospf network point</tspan><tspan
							class="st16">-</tspan><tspan class="st16">to</tspan><tspan class="st16">-</tspan><tspan class="st16">point</tspan></text>			</g>
			<g id="group195-88" transform="translate(14.1281,-201.53)" v:mID="195" v:groupContext="group">
				<title>Sheet.195</title>
				<g id="shape5-89" v:mID="5" v:groupContext="shape" transform="translate(0.0465515,5.68434E-014)">
					<title>Sheet.5</title>
					<path d="M30.49 298.11 C30.49 298.11 30.49 298.11 30.49 298.11 C30.49 301.15 23.65 303.6 15.27 303.6 C6.84 303.6
								 0 301.15 0 298.11 C0 295.07 6.84 292.62 15.27 292.62 C23.65 292.62 30.49 295.07 30.49 298.11 Z"
							class="st4"/>
				</g>
				<g id="shape6-91" v:mID="6" v:groupContext="shape" transform="translate(0.0465515,5.68434E-014)">
					<title>Sheet.6</title>
					<path d="M30.49 298.11 C30.49 298.11 30.49 298.11 30.49 298.11 C30.49 301.15 23.65 303.6 15.27 303.6 C6.84 303.6
								 0 301.15 0 298.11 C0 295.07 6.84 292.62 15.27 292.62 C23.65 292.62 30.49 295.07 30.49 298.11"
							class="st5"/>
				</g>
				<g id="shape7-94" v:mID="7" v:groupContext="shape" transform="translate(0,-5.34402)">
					<title>Sheet.7</title>
					<path d="M0 295.76 L0 303.6 L30.54 303.6 L30.54 295.76 L0 295.76 L0 295.76 L0 295.76 Z" class="st4"/>
				</g>
				<g id="shape8-96" v:mID="8" v:groupContext="shape" transform="translate(0.0465515,-7.84444)">
					<title>Sheet.8</title>
					<path d="M30.49 298.11 C30.49 298.11 30.49 298.11 30.49 298.11 C30.49 301.15 23.65 303.6 15.27 303.6 C6.84 303.6
								 0 301.15 0 298.11 C0 295.07 6.84 292.62 15.27 292.62 C23.65 292.62 30.49 295.07 30.49 298.11 Z"
							class="st6"/>
				</g>
				<g id="shape9-98" v:mID="9" v:groupContext="shape" transform="translate(0.0465515,-7.84444)">
					<title>Sheet.9</title>
					<path d="M30.49 298.11 C30.49 298.11 30.49 298.11 30.49 298.11 C30.49 301.15 23.65 303.6 15.27 303.6 C6.84 303.6
								 0 301.15 0 298.11 C0 295.07 6.84 292.62 15.27 292.62 C23.65 292.62 30.49 295.07 30.49 298.11"
							class="st7"/>
				</g>
				<g id="shape10-101" v:mID="10" v:groupContext="shape" transform="translate(15.6878,-13.7768)">
					<title>Sheet.10</title>
					<path d="M0 302.82 L2.23 303.6 L7.54 301.4 L10.01 302.03 L8.71 300.02 L2.33 300.02 L4.98 300.71 L0 302.82 L0
								 302.82 L0 302.82 Z" class="st6"/>
				</g>
				<g id="shape11-103" v:mID="11" v:groupContext="shape" transform="translate(4.7017,-9.51138)">
					<title>Sheet.11</title>
					<path d="M10.06 300.81 L7.82 300.02 L2.51 302.28 L0 301.64 L1.35 303.6 L7.73 303.6 L5.03 302.92 L10.06 300.81
								 L10.06 300.81 L10.06 300.81 Z" class="st6"/>
				</g>
				<g id="shape12-105" v:mID="12" v:groupContext="shape" transform="translate(5.26032,-13.8749)">
					<title>Sheet.12</title>
					<path d="M0 300.81 L2.23 300.02 L7.54 302.28 L10.06 301.64 L8.75 303.6 L2.33 303.6 L5.03 302.92 L0 300.81 L0
								 300.81 L0 300.81 Z" class="st6"/>
				</g>
				<g id="shape13-107" v:mID="13" v:groupContext="shape" transform="translate(15.362,-9.26624)">
					<title>Sheet.13</title>
					<path d="M10.01 302.82 L7.77 303.6 L2.47 301.4 L0 302.03 L1.3 300.02 L7.68 300.02 L5.03 300.71 L10.01 302.82
								 L10.01 302.82 L10.01 302.82 Z" class="st6"/>
				</g>
				<g id="shape14-109" v:mID="14" v:groupContext="shape" transform="translate(15.8741,-13.5807)">
					<title>Sheet.14</title>
					<path d="M0 302.82 L2.23 303.6 L7.54 301.4 L10.01 302.03 L8.71 300.02 L2.33 300.02 L4.98 300.71 L0 302.82 L0
								 302.82 L0 302.82 Z" class="st8"/>
				</g>
				<g id="shape15-111" v:mID="15" v:groupContext="shape" transform="translate(4.8879,-9.31527)">
					<title>Sheet.15</title>
					<path d="M10.06 300.81 L7.82 300.02 L2.51 302.28 L0 301.64 L1.35 303.6 L7.73 303.6 L5.03 302.92 L10.06 300.81
								 L10.06 300.81 L10.06 300.81 Z" class="st8"/>
				</g>
				<g id="shape16-113" v:mID="16" v:groupContext="shape" transform="translate(5.44652,-13.6787)">
					<title>Sheet.16</title>
					<path d="M0 300.81 L2.23 300.02 L7.54 302.28 L10.06 301.64 L8.75 303.6 L2.33 303.6 L5.03 302.92 L0 300.81 L0
								 300.81 L0 300.81 Z" class="st8"/>
				</g>
				<g id="shape17-115" v:mID="17" v:groupContext="shape" transform="translate(15.5482,-9.07013)">
					<title>Sheet.17</title>
					<path d="M10.01 302.82 L7.77 303.6 L2.47 301.4 L0 302.03 L1.3 300.02 L7.68 300.02 L5.03 300.71 L10.01 302.82
								 L10.01 302.82 L10.01 302.82 Z" class="st8"/>
				</g>
				<g id="shape18-117" v:mID="18" v:groupContext="shape" transform="translate(0.0465515,-5.34402)">
					<title>Sheet.18</title>
					<path d="M0 295.71 L0 303.6" class="st5"/>
				</g>
				<g id="shape19-120" v:mID="19" v:groupContext="shape" transform="translate(30.5378,-5.34402)">
					<title>Sheet.19</title>
					<path d="M0 295.71 L0 303.6" class="st5"/>
				</g>
				<g id="shape20-123" v:mID="20" v:groupContext="shape" transform="translate(0.0884947,-0.259354)">
					<title>Sheet.20</title>
					<desc>SW1</desc>
					<v:userDefs/>
					<v:textBlock v:margins="rect(4,4,4,4)" v:tabSpace="42.5197"/>
					<v:textRect cx="15.3624" cy="300.009" width="30.73" height="7.1841"/>
					<rect x="0" y="296.417" width="30.7249" height="7.1841" class="st9"/>
					<text x="11.53" y="301.66" class="st10" v:langID="1026"><v:paragraph v:spLine="-1.1" v:horizAlign="1"/><v:tabList/>R<tspan
								class="st11" v:langID="1033">1</tspan></text>				</g>
			</g>
			<g id="shape2-127" v:mID="2" v:groupContext="shape" transform="translate(188.253,-9.78272)">
				<title>Rectangle.2</title>
				<desc>Broadcast</desc>
				<v:userDefs>
					<v:ud v:nameU="visVersion" v:val="VT0(15):26"/>
				</v:userDefs>
				<v:textBlock v:margins="rect(6,4,4,4)" v:tabSpace="42.5197" v:verticalAlign="0"/>
				<v:textRect cx="89.6237" cy="178.472" width="179.25" height="250.259"/>
				<rect x="0" y="53.3428" width="179.247" height="250.259" class="st1"/>
				<text x="50.5" y="74.11" class="st2" v:langID="1033"><v:paragraph v:horizAlign="1"/><v:tabList/>Broadcast</text>			</g>
			<g id="shape175-130" v:mID="175" v:groupContext="shape" transform="translate(209.368,-180.671)">
				<title>Sheet.175</title>
				<path d="M0 303.6 L134.95 303.6" class="st3"/>
			</g>
			<g id="shape176-133" v:mID="176" v:groupContext="shape" transform="translate(524.485,101.812) rotate(90)">
				<title>Sheet.176</title>
				<path d="M0 303.6 L21.12 303.6" class="st3"/>
			</g>
			<g id="shape177-136" v:mID="177" v:groupContext="shape" transform="translate(532.402,122.912) rotate(89.9965)">
				<title>Sheet.177</title>
				<path d="M0 303.6 L19.09 303.6" class="st3"/>
			</g>
			<g id="shape178-139" v:mID="178" v:groupContext="shape" transform="translate(622.301,102.065) rotate(90)">
				<title>Sheet.178</title>
				<path d="M0 303.6 L20.87 303.6" class="st3"/>
			</g>
			<g id="shape181-142" v:mID="181" v:groupContext="shape" transform="translate(629.927,123.588) rotate(90.1241)">
				<title>Sheet.181</title>
				<path d="M0 303.6 L19.04 303.6" class="st3"/>
			</g>
			<g id="shape39-145" v:mID="39" v:groupContext="shape" transform="translate(206.715,-201.53)">
				<title>Sheet.39</title>
				<path d="M30.49 298.11 C30.49 298.11 30.49 298.11 30.49 298.11 C30.49 301.15 23.65 303.6 15.27 303.6 C6.84 303.6
							 0 301.15 0 298.11 C0 295.07 6.84 292.62 15.27 292.62 C23.65 292.62 30.49 295.07 30.49 298.11 Z"
						class="st4"/>
			</g>
			<g id="shape40-147" v:mID="40" v:groupContext="shape" transform="translate(206.715,-201.53)">
				<title>Sheet.40</title>
				<path d="M30.49 298.11 C30.49 298.11 30.49 298.11 30.49 298.11 C30.49 301.15 23.65 303.6 15.27 303.6 C6.84 303.6
							 0 301.15 0 298.11 C0 295.07 6.84 292.62 15.27 292.62 C23.65 292.62 30.49 295.07 30.49 298.11"
						class="st5"/>
			</g>
			<g id="shape41-150" v:mID="41" v:groupContext="shape" transform="translate(206.669,-206.874)">
				<title>Sheet.41</title>
				<path d="M0 295.76 L0 303.6 L30.54 303.6 L30.54 295.76 L0 295.76 L0 295.76 L0 295.76 Z" class="st4"/>
			</g>
			<g id="shape42-152" v:mID="42" v:groupContext="shape" transform="translate(206.715,-209.374)">
				<title>Sheet.42</title>
				<path d="M30.49 298.11 C30.49 298.11 30.49 298.11 30.49 298.11 C30.49 301.15 23.65 303.6 15.27 303.6 C6.84 303.6
							 0 301.15 0 298.11 C0 295.07 6.84 292.62 15.27 292.62 C23.65 292.62 30.49 295.07 30.49 298.11 Z"
						class="st6"/>
			</g>
			<g id="shape43-154" v:mID="43" v:groupContext="shape" transform="translate(206.715,-209.374)">
				<title>Sheet.43</title>
				<path d="M30.49 298.11 C30.49 298.11 30.49 298.11 30.49 298.11 C30.49 301.15 23.65 303.6 15.27 303.6 C6.84 303.6
							 0 301.15 0 298.11 C0 295.07 6.84 292.62 15.27 292.62 C23.65 292.62 30.49 295.07 30.49 298.11"
						class="st7"/>
			</g>
			<g id="shape44-157" v:mID="44" v:groupContext="shape" transform="translate(222.356,-215.307)">
				<title>Sheet.44</title>
				<path d="M0 302.82 L2.23 303.6 L7.54 301.4 L10.01 302.03 L8.71 300.02 L2.33 300.02 L4.98 300.71 L0 302.82 L0 302.82
							 L0 302.82 Z" class="st6"/>
			</g>
			<g id="shape45-159" v:mID="45" v:groupContext="shape" transform="translate(211.37,-211.041)">
				<title>Sheet.45</title>
				<path d="M10.06 300.81 L7.82 300.02 L2.51 302.28 L0 301.64 L1.35 303.6 L7.73 303.6 L5.03 302.92 L10.06 300.81 L10.06
							 300.81 L10.06 300.81 Z" class="st6"/>
			</g>
			<g id="shape46-161" v:mID="46" v:groupContext="shape" transform="translate(211.929,-215.405)">
				<title>Sheet.46</title>
				<path d="M0 300.81 L2.23 300.02 L7.54 302.28 L10.06 301.64 L8.75 303.6 L2.33 303.6 L5.03 302.92 L0 300.81 L0 300.81
							 L0 300.81 Z" class="st6"/>
			</g>
			<g id="shape47-163" v:mID="47" v:groupContext="shape" transform="translate(222.031,-210.796)">
				<title>Sheet.47</title>
				<path d="M10.01 302.82 L7.77 303.6 L2.47 301.4 L0 302.03 L1.3 300.02 L7.68 300.02 L5.03 300.71 L10.01 302.82 L10.01
							 302.82 L10.01 302.82 Z" class="st6"/>
			</g>
			<g id="shape48-165" v:mID="48" v:groupContext="shape" transform="translate(222.543,-215.11)">
				<title>Sheet.48</title>
				<path d="M0 302.82 L2.23 303.6 L7.54 301.4 L10.01 302.03 L8.71 300.02 L2.33 300.02 L4.98 300.71 L0 302.82 L0 302.82
							 L0 302.82 Z" class="st8"/>
			</g>
			<g id="shape49-167" v:mID="49" v:groupContext="shape" transform="translate(211.557,-210.845)">
				<title>Sheet.49</title>
				<path d="M10.06 300.81 L7.82 300.02 L2.51 302.28 L0 301.64 L1.35 303.6 L7.73 303.6 L5.03 302.92 L10.06 300.81 L10.06
							 300.81 L10.06 300.81 Z" class="st8"/>
			</g>
			<g id="shape50-169" v:mID="50" v:groupContext="shape" transform="translate(212.115,-215.208)">
				<title>Sheet.50</title>
				<path d="M0 300.81 L2.23 300.02 L7.54 302.28 L10.06 301.64 L8.75 303.6 L2.33 303.6 L5.03 302.92 L0 300.81 L0 300.81
							 L0 300.81 Z" class="st8"/>
			</g>
			<g id="shape51-171" v:mID="51" v:groupContext="shape" transform="translate(222.217,-210.6)">
				<title>Sheet.51</title>
				<path d="M10.01 302.82 L7.77 303.6 L2.47 301.4 L0 302.03 L1.3 300.02 L7.68 300.02 L5.03 300.71 L10.01 302.82 L10.01
							 302.82 L10.01 302.82 Z" class="st8"/>
			</g>
			<g id="shape52-173" v:mID="52" v:groupContext="shape" transform="translate(206.715,-206.874)">
				<title>Sheet.52</title>
				<path d="M0 295.71 L0 303.6" class="st5"/>
			</g>
			<g id="shape53-176" v:mID="53" v:groupContext="shape" transform="translate(237.206,-206.874)">
				<title>Sheet.53</title>
				<path d="M0 295.71 L0 303.6" class="st5"/>
			</g>
			<g id="shape54-179" v:mID="54" v:groupContext="shape" transform="translate(206.757,-201.789)">
				<title>Sheet.54</title>
				<desc>SW1</desc>
				<v:userDefs/>
				<v:textBlock v:margins="rect(4,4,4,4)" v:tabSpace="42.5197"/>
				<v:textRect cx="15.3624" cy="300.009" width="30.73" height="7.1841"/>
				<rect x="0" y="296.417" width="30.7249" height="7.1841" class="st9"/>
				<text x="11.53" y="301.66" class="st10" v:langID="1026"><v:paragraph v:spLine="-1.1" v:horizAlign="1"/><v:tabList/>R<tspan
							class="st11" v:langID="1033">1</tspan></text>			</g>
			<g id="shape56-183" v:mID="56" v:groupContext="shape" transform="translate(305.456,-201.53)">
				<title>Sheet.56</title>
				<path d="M30.49 298.11 C30.49 298.11 30.49 298.11 30.49 298.11 C30.49 301.15 23.65 303.6 15.27 303.6 C6.84 303.6
							 0 301.15 0 298.11 C0 295.07 6.84 292.62 15.27 292.62 C23.65 292.62 30.49 295.07 30.49 298.11 Z"
						class="st4"/>
			</g>
			<g id="shape57-185" v:mID="57" v:groupContext="shape" transform="translate(305.456,-201.53)">
				<title>Sheet.57</title>
				<path d="M30.49 298.11 C30.49 298.11 30.49 298.11 30.49 298.11 C30.49 301.15 23.65 303.6 15.27 303.6 C6.84 303.6
							 0 301.15 0 298.11 C0 295.07 6.84 292.62 15.27 292.62 C23.65 292.62 30.49 295.07 30.49 298.11"
						class="st5"/>
			</g>
			<g id="shape58-188" v:mID="58" v:groupContext="shape" transform="translate(305.409,-206.874)">
				<title>Sheet.58</title>
				<path d="M0 295.76 L0 303.6 L30.54 303.6 L30.54 295.76 L0 295.76 L0 295.76 L0 295.76 Z" class="st4"/>
			</g>
			<g id="shape59-190" v:mID="59" v:groupContext="shape" transform="translate(305.456,-209.374)">
				<title>Sheet.59</title>
				<path d="M30.49 298.11 C30.49 298.11 30.49 298.11 30.49 298.11 C30.49 301.15 23.65 303.6 15.27 303.6 C6.84 303.6
							 0 301.15 0 298.11 C0 295.07 6.84 292.62 15.27 292.62 C23.65 292.62 30.49 295.07 30.49 298.11 Z"
						class="st6"/>
			</g>
			<g id="shape60-192" v:mID="60" v:groupContext="shape" transform="translate(305.456,-209.374)">
				<title>Sheet.60</title>
				<path d="M30.49 298.11 C30.49 298.11 30.49 298.11 30.49 298.11 C30.49 301.15 23.65 303.6 15.27 303.6 C6.84 303.6
							 0 301.15 0 298.11 C0 295.07 6.84 292.62 15.27 292.62 C23.65 292.62 30.49 295.07 30.49 298.11"
						class="st7"/>
			</g>
			<g id="shape61-195" v:mID="61" v:groupContext="shape" transform="translate(321.097,-215.307)">
				<title>Sheet.61</title>
				<path d="M0 302.82 L2.23 303.6 L7.54 301.4 L10.01 302.03 L8.71 300.02 L2.33 300.02 L4.98 300.71 L0 302.82 L0 302.82
							 L0 302.82 Z" class="st6"/>
			</g>
			<g id="shape62-197" v:mID="62" v:groupContext="shape" transform="translate(310.111,-211.041)">
				<title>Sheet.62</title>
				<path d="M10.06 300.81 L7.82 300.02 L2.51 302.28 L0 301.64 L1.35 303.6 L7.73 303.6 L5.03 302.92 L10.06 300.81 L10.06
							 300.81 L10.06 300.81 Z" class="st6"/>
			</g>
			<g id="shape63-199" v:mID="63" v:groupContext="shape" transform="translate(310.67,-215.405)">
				<title>Sheet.63</title>
				<path d="M0 300.81 L2.23 300.02 L7.54 302.28 L10.06 301.64 L8.75 303.6 L2.33 303.6 L5.03 302.92 L0 300.81 L0 300.81
							 L0 300.81 Z" class="st6"/>
			</g>
			<g id="shape64-201" v:mID="64" v:groupContext="shape" transform="translate(320.771,-210.796)">
				<title>Sheet.64</title>
				<path d="M10.01 302.82 L7.77 303.6 L2.47 301.4 L0 302.03 L1.3 300.02 L7.68 300.02 L5.03 300.71 L10.01 302.82 L10.01
							 302.82 L10.01 302.82 Z" class="st6"/>
			</g>
			<g id="shape65-203" v:mID="65" v:groupContext="shape" transform="translate(321.283,-215.11)">
				<title>Sheet.65</title>
				<path d="M0 302.82 L2.23 303.6 L7.54 301.4 L10.01 302.03 L8.71 300.02 L2.33 300.02 L4.98 300.71 L0 302.82 L0 302.82
							 L0 302.82 Z" class="st8"/>
			</g>
			<g id="shape66-205" v:mID="66" v:groupContext="shape" transform="translate(310.297,-210.845)">
				<title>Sheet.66</title>
				<path d="M10.06 300.81 L7.82 300.02 L2.51 302.28 L0 301.64 L1.35 303.6 L7.73 303.6 L5.03 302.92 L10.06 300.81 L10.06
							 300.81 L10.06 300.81 Z" class="st8"/>
			</g>
			<g id="shape67-207" v:mID="67" v:groupContext="shape" transform="translate(310.856,-215.208)">
				<title>Sheet.67</title>
				<path d="M0 300.81 L2.23 300.02 L7.54 302.28 L10.06 301.64 L8.75 303.6 L2.33 303.6 L5.03 302.92 L0 300.81 L0 300.81
							 L0 300.81 Z" class="st8"/>
			</g>
			<g id="shape68-209" v:mID="68" v:groupContext="shape" transform="translate(320.957,-210.6)">
				<title>Sheet.68</title>
				<path d="M10.01 302.82 L7.77 303.6 L2.47 301.4 L0 302.03 L1.3 300.02 L7.68 300.02 L5.03 300.71 L10.01 302.82 L10.01
							 302.82 L10.01 302.82 Z" class="st8"/>
			</g>
			<g id="shape69-211" v:mID="69" v:groupContext="shape" transform="translate(305.456,-206.874)">
				<title>Sheet.69</title>
				<path d="M0 295.71 L0 303.6" class="st5"/>
			</g>
			<g id="shape70-214" v:mID="70" v:groupContext="shape" transform="translate(335.947,-206.874)">
				<title>Sheet.70</title>
				<path d="M0 295.71 L0 303.6" class="st5"/>
			</g>
			<g id="shape71-217" v:mID="71" v:groupContext="shape" transform="translate(305.498,-201.789)">
				<title>Sheet.71</title>
				<desc>SW1</desc>
				<v:userDefs/>
				<v:textBlock v:margins="rect(4,4,4,4)" v:tabSpace="42.5197"/>
				<v:textRect cx="15.3624" cy="300.009" width="30.73" height="7.1841"/>
				<rect x="0" y="296.417" width="30.7249" height="7.1841" class="st9"/>
				<text x="11.53" y="301.66" class="st10" v:langID="1026"><v:paragraph v:spLine="-1.1" v:horizAlign="1"/><v:tabList/>R<tspan
							class="st11" v:langID="1033">2</tspan></text>			</g>
			<g id="shape73-221" v:mID="73" v:groupContext="shape" transform="translate(211.034,-142.912)">
				<title>Sheet.73</title>
				<path d="M30.49 298.11 C30.49 298.11 30.49 298.11 30.49 298.11 C30.49 301.15 23.65 303.6 15.27 303.6 C6.84 303.6
							 0 301.15 0 298.11 C0 295.07 6.84 292.62 15.27 292.62 C23.65 292.62 30.49 295.07 30.49 298.11 Z"
						class="st4"/>
			</g>
			<g id="shape74-223" v:mID="74" v:groupContext="shape" transform="translate(211.034,-142.912)">
				<title>Sheet.74</title>
				<path d="M30.49 298.11 C30.49 298.11 30.49 298.11 30.49 298.11 C30.49 301.15 23.65 303.6 15.27 303.6 C6.84 303.6
							 0 301.15 0 298.11 C0 295.07 6.84 292.62 15.27 292.62 C23.65 292.62 30.49 295.07 30.49 298.11"
						class="st5"/>
			</g>
			<g id="shape75-226" v:mID="75" v:groupContext="shape" transform="translate(210.987,-148.256)">
				<title>Sheet.75</title>
				<path d="M0 295.76 L0 303.6 L30.54 303.6 L30.54 295.76 L0 295.76 L0 295.76 L0 295.76 Z" class="st4"/>
			</g>
			<g id="shape76-228" v:mID="76" v:groupContext="shape" transform="translate(211.034,-150.756)">
				<title>Sheet.76</title>
				<path d="M30.49 298.11 C30.49 298.11 30.49 298.11 30.49 298.11 C30.49 301.15 23.65 303.6 15.27 303.6 C6.84 303.6
							 0 301.15 0 298.11 C0 295.07 6.84 292.62 15.27 292.62 C23.65 292.62 30.49 295.07 30.49 298.11 Z"
						class="st6"/>
			</g>
			<g id="shape77-230" v:mID="77" v:groupContext="shape" transform="translate(211.034,-150.756)">
				<title>Sheet.77</title>
				<path d="M30.49 298.11 C30.49 298.11 30.49 298.11 30.49 298.11 C30.49 301.15 23.65 303.6 15.27 303.6 C6.84 303.6
							 0 301.15 0 298.11 C0 295.07 6.84 292.62 15.27 292.62 C23.65 292.62 30.49 295.07 30.49 298.11"
						class="st7"/>
			</g>
			<g id="shape78-233" v:mID="78" v:groupContext="shape" transform="translate(226.675,-156.688)">
				<title>Sheet.78</title>
				<path d="M0 302.82 L2.23 303.6 L7.54 301.4 L10.01 302.03 L8.71 300.02 L2.33 300.02 L4.98 300.71 L0 302.82 L0 302.82
							 L0 302.82 Z" class="st6"/>
			</g>
			<g id="shape79-235" v:mID="79" v:groupContext="shape" transform="translate(215.689,-152.423)">
				<title>Sheet.79</title>
				<path d="M10.06 300.81 L7.82 300.02 L2.51 302.28 L0 301.64 L1.35 303.6 L7.73 303.6 L5.03 302.92 L10.06 300.81 L10.06
							 300.81 L10.06 300.81 Z" class="st6"/>
			</g>
			<g id="shape80-237" v:mID="80" v:groupContext="shape" transform="translate(216.247,-156.786)">
				<title>Sheet.80</title>
				<path d="M0 300.81 L2.23 300.02 L7.54 302.28 L10.06 301.64 L8.75 303.6 L2.33 303.6 L5.03 302.92 L0 300.81 L0 300.81
							 L0 300.81 Z" class="st6"/>
			</g>
			<g id="shape81-239" v:mID="81" v:groupContext="shape" transform="translate(226.349,-152.178)">
				<title>Sheet.81</title>
				<path d="M10.01 302.82 L7.77 303.6 L2.47 301.4 L0 302.03 L1.3 300.02 L7.68 300.02 L5.03 300.71 L10.01 302.82 L10.01
							 302.82 L10.01 302.82 Z" class="st6"/>
			</g>
			<g id="shape82-241" v:mID="82" v:groupContext="shape" transform="translate(226.861,-156.492)">
				<title>Sheet.82</title>
				<path d="M0 302.82 L2.23 303.6 L7.54 301.4 L10.01 302.03 L8.71 300.02 L2.33 300.02 L4.98 300.71 L0 302.82 L0 302.82
							 L0 302.82 Z" class="st8"/>
			</g>
			<g id="shape83-243" v:mID="83" v:groupContext="shape" transform="translate(215.875,-152.227)">
				<title>Sheet.83</title>
				<path d="M10.06 300.81 L7.82 300.02 L2.51 302.28 L0 301.64 L1.35 303.6 L7.73 303.6 L5.03 302.92 L10.06 300.81 L10.06
							 300.81 L10.06 300.81 Z" class="st8"/>
			</g>
			<g id="shape84-245" v:mID="84" v:groupContext="shape" transform="translate(216.434,-156.59)">
				<title>Sheet.84</title>
				<path d="M0 300.81 L2.23 300.02 L7.54 302.28 L10.06 301.64 L8.75 303.6 L2.33 303.6 L5.03 302.92 L0 300.81 L0 300.81
							 L0 300.81 Z" class="st8"/>
			</g>
			<g id="shape85-247" v:mID="85" v:groupContext="shape" transform="translate(226.535,-151.982)">
				<title>Sheet.85</title>
				<path d="M10.01 302.82 L7.77 303.6 L2.47 301.4 L0 302.03 L1.3 300.02 L7.68 300.02 L5.03 300.71 L10.01 302.82 L10.01
							 302.82 L10.01 302.82 Z" class="st8"/>
			</g>
			<g id="shape86-249" v:mID="86" v:groupContext="shape" transform="translate(211.034,-148.256)">
				<title>Sheet.86</title>
				<path d="M0 295.71 L0 303.6" class="st5"/>
			</g>
			<g id="shape87-252" v:mID="87" v:groupContext="shape" transform="translate(241.525,-148.256)">
				<title>Sheet.87</title>
				<path d="M0 295.71 L0 303.6" class="st5"/>
			</g>
			<g id="shape88-255" v:mID="88" v:groupContext="shape" transform="translate(211.076,-143.171)">
				<title>Sheet.88</title>
				<desc>SW1</desc>
				<v:userDefs/>
				<v:textBlock v:margins="rect(4,4,4,4)" v:tabSpace="42.5197"/>
				<v:textRect cx="15.3624" cy="300.009" width="30.73" height="7.1841"/>
				<rect x="0" y="296.417" width="30.7249" height="7.1841" class="st9"/>
				<text x="11.53" y="301.66" class="st10" v:langID="1026"><v:paragraph v:spLine="-1.1" v:horizAlign="1"/><v:tabList/>R<tspan
							class="st11" v:langID="1033">3</tspan></text>			</g>
			<g id="shape90-259" v:mID="90" v:groupContext="shape" transform="translate(309.774,-142.912)">
				<title>Sheet.90</title>
				<path d="M30.49 298.11 C30.49 298.11 30.49 298.11 30.49 298.11 C30.49 301.15 23.65 303.6 15.27 303.6 C6.84 303.6
							 0 301.15 0 298.11 C0 295.07 6.84 292.62 15.27 292.62 C23.65 292.62 30.49 295.07 30.49 298.11 Z"
						class="st4"/>
			</g>
			<g id="shape91-261" v:mID="91" v:groupContext="shape" transform="translate(309.774,-142.912)">
				<title>Sheet.91</title>
				<path d="M30.49 298.11 C30.49 298.11 30.49 298.11 30.49 298.11 C30.49 301.15 23.65 303.6 15.27 303.6 C6.84 303.6
							 0 301.15 0 298.11 C0 295.07 6.84 292.62 15.27 292.62 C23.65 292.62 30.49 295.07 30.49 298.11"
						class="st5"/>
			</g>
			<g id="shape92-264" v:mID="92" v:groupContext="shape" transform="translate(309.728,-148.256)">
				<title>Sheet.92</title>
				<path d="M0 295.76 L0 303.6 L30.54 303.6 L30.54 295.76 L0 295.76 L0 295.76 L0 295.76 Z" class="st4"/>
			</g>
			<g id="shape93-266" v:mID="93" v:groupContext="shape" transform="translate(309.774,-150.756)">
				<title>Sheet.93</title>
				<path d="M30.49 298.11 C30.49 298.11 30.49 298.11 30.49 298.11 C30.49 301.15 23.65 303.6 15.27 303.6 C6.84 303.6
							 0 301.15 0 298.11 C0 295.07 6.84 292.62 15.27 292.62 C23.65 292.62 30.49 295.07 30.49 298.11 Z"
						class="st6"/>
			</g>
			<g id="shape94-268" v:mID="94" v:groupContext="shape" transform="translate(309.774,-150.756)">
				<title>Sheet.94</title>
				<path d="M30.49 298.11 C30.49 298.11 30.49 298.11 30.49 298.11 C30.49 301.15 23.65 303.6 15.27 303.6 C6.84 303.6
							 0 301.15 0 298.11 C0 295.07 6.84 292.62 15.27 292.62 C23.65 292.62 30.49 295.07 30.49 298.11"
						class="st7"/>
			</g>
			<g id="shape95-271" v:mID="95" v:groupContext="shape" transform="translate(325.416,-156.688)">
				<title>Sheet.95</title>
				<path d="M0 302.82 L2.23 303.6 L7.54 301.4 L10.01 302.03 L8.71 300.02 L2.33 300.02 L4.98 300.71 L0 302.82 L0 302.82
							 L0 302.82 Z" class="st6"/>
			</g>
			<g id="shape96-273" v:mID="96" v:groupContext="shape" transform="translate(314.429,-152.423)">
				<title>Sheet.96</title>
				<path d="M10.06 300.81 L7.82 300.02 L2.51 302.28 L0 301.64 L1.35 303.6 L7.73 303.6 L5.03 302.92 L10.06 300.81 L10.06
							 300.81 L10.06 300.81 Z" class="st6"/>
			</g>
			<g id="shape97-275" v:mID="97" v:groupContext="shape" transform="translate(314.988,-156.786)">
				<title>Sheet.97</title>
				<path d="M0 300.81 L2.23 300.02 L7.54 302.28 L10.06 301.64 L8.75 303.6 L2.33 303.6 L5.03 302.92 L0 300.81 L0 300.81
							 L0 300.81 Z" class="st6"/>
			</g>
			<g id="shape98-277" v:mID="98" v:groupContext="shape" transform="translate(325.09,-152.178)">
				<title>Sheet.98</title>
				<path d="M10.01 302.82 L7.77 303.6 L2.47 301.4 L0 302.03 L1.3 300.02 L7.68 300.02 L5.03 300.71 L10.01 302.82 L10.01
							 302.82 L10.01 302.82 Z" class="st6"/>
			</g>
			<g id="shape99-279" v:mID="99" v:groupContext="shape" transform="translate(325.602,-156.492)">
				<title>Sheet.99</title>
				<path d="M0 302.82 L2.23 303.6 L7.54 301.4 L10.01 302.03 L8.71 300.02 L2.33 300.02 L4.98 300.71 L0 302.82 L0 302.82
							 L0 302.82 Z" class="st8"/>
			</g>
			<g id="shape100-281" v:mID="100" v:groupContext="shape" transform="translate(314.616,-152.227)">
				<title>Sheet.100</title>
				<path d="M10.06 300.81 L7.82 300.02 L2.51 302.28 L0 301.64 L1.35 303.6 L7.73 303.6 L5.03 302.92 L10.06 300.81 L10.06
							 300.81 L10.06 300.81 Z" class="st8"/>
			</g>
			<g id="shape101-283" v:mID="101" v:groupContext="shape" transform="translate(315.174,-156.59)">
				<title>Sheet.101</title>
				<path d="M0 300.81 L2.23 300.02 L7.54 302.28 L10.06 301.64 L8.75 303.6 L2.33 303.6 L5.03 302.92 L0 300.81 L0 300.81
							 L0 300.81 Z" class="st8"/>
			</g>
			<g id="shape102-285" v:mID="102" v:groupContext="shape" transform="translate(325.276,-151.982)">
				<title>Sheet.102</title>
				<path d="M10.01 302.82 L7.77 303.6 L2.47 301.4 L0 302.03 L1.3 300.02 L7.68 300.02 L5.03 300.71 L10.01 302.82 L10.01
							 302.82 L10.01 302.82 Z" class="st8"/>
			</g>
			<g id="shape103-287" v:mID="103" v:groupContext="shape" transform="translate(309.774,-148.256)">
				<title>Sheet.103</title>
				<path d="M0 295.71 L0 303.6" class="st5"/>
			</g>
			<g id="shape104-290" v:mID="104" v:groupContext="shape" transform="translate(340.265,-148.256)">
				<title>Sheet.104</title>
				<path d="M0 295.71 L0 303.6" class="st5"/>
			</g>
			<g id="shape105-293" v:mID="105" v:groupContext="shape" transform="translate(309.816,-143.171)">
				<title>Sheet.105</title>
				<desc>SW1</desc>
				<v:userDefs/>
				<v:textBlock v:margins="rect(4,4,4,4)" v:tabSpace="42.5197"/>
				<v:textRect cx="15.3624" cy="300.009" width="30.73" height="7.1841"/>
				<rect x="0" y="296.417" width="30.7249" height="7.1841" class="st9"/>
				<text x="11.53" y="301.66" class="st10" v:langID="1026"><v:paragraph v:spLine="-1.1" v:horizAlign="1"/><v:tabList/>R<tspan
							class="st11" v:langID="1033">4</tspan></text>			</g>
			<g id="shape187-297" v:mID="187" v:groupContext="shape" transform="translate(188.253,-50.2777)">
				<title>Sheet.187</title>
				<desc>Multi-access network where multiple routers are connected. De...</desc>
				<v:textBlock v:margins="rect(4,4,4,1)" v:tabSpace="42.5197" v:verticalAlign="0"/>
				<v:textRect cx="89.6237" cy="260.885" width="179.25" height="85.4332"/>
				<rect x="0" y="218.168" width="179.247" height="85.4332" class="st9"/>
				<text x="7.66" y="231.3" class="st12" v:langID="1033"><v:paragraph v:indentFirst="-11.34" v:indentLeft="18"
							v:bullet="3"/><v:tabList/><tspan class="st11" v:isBullet="true">§</tspan> <tspan class="st13">Multi</tspan><tspan
							class="st13">-</tspan><tspan class="st13">access network where </tspan><tspan x="19" dy="1.204em"
							class="st13">multiple routers are connected</tspan><tspan class="st13">. <v:newlineChar/></tspan><tspan
							x="7.66" dy="1.213em" class="st11" v:isBullet="true">§</tspan> <tspan class="st13">Default Hello interval </tspan><tspan
							class="st13">–</tspan><tspan class="st13"> </tspan><tspan class="st13">10 </tspan><tspan class="st13">sec</tspan><tspan
							class="st13">.<v:newlineChar/></tspan><tspan x="7.66" dy="1.217em" class="st11" v:isBullet="true">§</tspan> <tspan
							class="st13">Any</tspan><tspan class="st13">-</tspan><tspan class="st13">to</tspan><tspan class="st13">-</tspan><tspan
							class="st13">Any connectivity</tspan><tspan class="st13">.<v:newlineChar/></tspan><tspan x="7.66"
							dy="1.217em" class="st11" v:isBullet="true">§</tspan> <tspan class="st13">Dynamic Discovery of Neighbors</tspan><tspan
							class="st13">. <v:newlineChar/></tspan><tspan x="7.66" dy="1.217em" class="st11" v:isBullet="true">§</tspan> <tspan
							class="st13">Uses DR</tspan><tspan class="st13">/</tspan><tspan class="st13">BDR</tspan><tspan
							class="st13">.<v:newlineChar/></tspan><tspan x="7.66" dy="1.217em" class="st11" v:isBullet="true">§</tspan> <tspan
							class="st13">Default on Ethernet interfaces</tspan><tspan class="st13">.</tspan></text>			</g>
			<g id="shape189-331" v:mID="189" v:groupContext="shape" transform="translate(188.253,5.68434E-014)">
				<title>Sheet.189</title>
				<desc>Router(config-if)# ip ospf network broadcast</desc>
				<v:textBlock v:margins="rect(4,4,4,4)" v:tabSpace="42.5197" v:verticalAlign="0"/>
				<v:textRect cx="89.6237" cy="283.354" width="179.25" height="40.4949"/>
				<rect x="0" y="263.107" width="179.247" height="40.4949" class="st17"/>
				<text x="4" y="277.01" class="st15" v:langID="1033"><v:paragraph/><v:tabList/>Router(config-if)#<v:newlineChar/><tspan
							x="4" dy="1.2em" class="st16"> </tspan><tspan class="st16">ip ospf network broadcast</tspan></text>			</g>
			<g id="shape3-336" v:mID="3" v:groupContext="shape" transform="translate(376.506,-9.78272)">
				<title>Rectangle.3</title>
				<desc>Point-to-Multipoint</desc>
				<v:userDefs>
					<v:ud v:nameU="visVersion" v:val="VT0(15):26"/>
				</v:userDefs>
				<v:textBlock v:margins="rect(6,4,4,4)" v:tabSpace="42.5197" v:verticalAlign="0"/>
				<v:textRect cx="89.6237" cy="178.472" width="179.25" height="250.259"/>
				<rect x="0" y="53.3428" width="179.247" height="250.259" class="st1"/>
				<text x="18.54" y="73.74" class="st2" v:langID="1033"><v:paragraph v:horizAlign="1"/><v:tabList/>Point-to-Multipoint</text>			</g>
			<g id="shape182-339" v:mID="182" v:groupContext="shape" transform="translate(430.022,-179.664)">
				<title>Sheet.182</title>
				<path d="M0 303.6 L78.81 303.6" class="st3"/>
			</g>
			<g id="shape183-342" v:mID="183" v:groupContext="shape" transform="translate(637.92,369.421) rotate(154.838)">
				<title>Sheet.183</title>
				<path d="M0 303.6 L68.93 303.6" class="st3"/>
			</g>
			<g id="shape184-345" v:mID="184" v:groupContext="shape" transform="translate(379.749,428.039) rotate(-154.838)">
				<title>Sheet.184</title>
				<path d="M0 303.6 L68.93 303.6" class="st3"/>
			</g>
			<g id="shape107-348" v:mID="107" v:groupContext="shape" transform="translate(399.256,-172.221)">
				<title>Sheet.107</title>
				<path d="M30.49 298.11 C30.49 298.11 30.49 298.11 30.49 298.11 C30.49 301.15 23.65 303.6 15.27 303.6 C6.84 303.6
							 0 301.15 0 298.11 C0 295.07 6.84 292.62 15.27 292.62 C23.65 292.62 30.49 295.07 30.49 298.11 Z"
						class="st4"/>
			</g>
			<g id="shape108-350" v:mID="108" v:groupContext="shape" transform="translate(399.256,-172.221)">
				<title>Sheet.108</title>
				<path d="M30.49 298.11 C30.49 298.11 30.49 298.11 30.49 298.11 C30.49 301.15 23.65 303.6 15.27 303.6 C6.84 303.6
							 0 301.15 0 298.11 C0 295.07 6.84 292.62 15.27 292.62 C23.65 292.62 30.49 295.07 30.49 298.11"
						class="st5"/>
			</g>
			<g id="shape109-353" v:mID="109" v:groupContext="shape" transform="translate(399.209,-177.565)">
				<title>Sheet.109</title>
				<path d="M0 295.76 L0 303.6 L30.54 303.6 L30.54 295.76 L0 295.76 L0 295.76 L0 295.76 Z" class="st4"/>
			</g>
			<g id="shape110-355" v:mID="110" v:groupContext="shape" transform="translate(399.256,-180.065)">
				<title>Sheet.110</title>
				<path d="M30.49 298.11 C30.49 298.11 30.49 298.11 30.49 298.11 C30.49 301.15 23.65 303.6 15.27 303.6 C6.84 303.6
							 0 301.15 0 298.11 C0 295.07 6.84 292.62 15.27 292.62 C23.65 292.62 30.49 295.07 30.49 298.11 Z"
						class="st6"/>
			</g>
			<g id="shape111-357" v:mID="111" v:groupContext="shape" transform="translate(399.256,-180.065)">
				<title>Sheet.111</title>
				<path d="M30.49 298.11 C30.49 298.11 30.49 298.11 30.49 298.11 C30.49 301.15 23.65 303.6 15.27 303.6 C6.84 303.6
							 0 301.15 0 298.11 C0 295.07 6.84 292.62 15.27 292.62 C23.65 292.62 30.49 295.07 30.49 298.11"
						class="st7"/>
			</g>
			<g id="shape112-360" v:mID="112" v:groupContext="shape" transform="translate(414.897,-185.997)">
				<title>Sheet.112</title>
				<path d="M0 302.82 L2.23 303.6 L7.54 301.4 L10.01 302.03 L8.71 300.02 L2.33 300.02 L4.98 300.71 L0 302.82 L0 302.82
							 L0 302.82 Z" class="st6"/>
			</g>
			<g id="shape113-362" v:mID="113" v:groupContext="shape" transform="translate(403.911,-181.732)">
				<title>Sheet.113</title>
				<path d="M10.06 300.81 L7.82 300.02 L2.51 302.28 L0 301.64 L1.35 303.6 L7.73 303.6 L5.03 302.92 L10.06 300.81 L10.06
							 300.81 L10.06 300.81 Z" class="st6"/>
			</g>
			<g id="shape114-364" v:mID="114" v:groupContext="shape" transform="translate(404.469,-186.096)">
				<title>Sheet.114</title>
				<path d="M0 300.81 L2.23 300.02 L7.54 302.28 L10.06 301.64 L8.75 303.6 L2.33 303.6 L5.03 302.92 L0 300.81 L0 300.81
							 L0 300.81 Z" class="st6"/>
			</g>
			<g id="shape115-366" v:mID="115" v:groupContext="shape" transform="translate(414.571,-181.487)">
				<title>Sheet.115</title>
				<path d="M10.01 302.82 L7.77 303.6 L2.47 301.4 L0 302.03 L1.3 300.02 L7.68 300.02 L5.03 300.71 L10.01 302.82 L10.01
							 302.82 L10.01 302.82 Z" class="st6"/>
			</g>
			<g id="shape116-368" v:mID="116" v:groupContext="shape" transform="translate(415.083,-185.801)">
				<title>Sheet.116</title>
				<path d="M0 302.82 L2.23 303.6 L7.54 301.4 L10.01 302.03 L8.71 300.02 L2.33 300.02 L4.98 300.71 L0 302.82 L0 302.82
							 L0 302.82 Z" class="st8"/>
			</g>
			<g id="shape117-370" v:mID="117" v:groupContext="shape" transform="translate(404.097,-181.536)">
				<title>Sheet.117</title>
				<path d="M10.06 300.81 L7.82 300.02 L2.51 302.28 L0 301.64 L1.35 303.6 L7.73 303.6 L5.03 302.92 L10.06 300.81 L10.06
							 300.81 L10.06 300.81 Z" class="st8"/>
			</g>
			<g id="shape118-372" v:mID="118" v:groupContext="shape" transform="translate(404.656,-185.899)">
				<title>Sheet.118</title>
				<path d="M0 300.81 L2.23 300.02 L7.54 302.28 L10.06 301.64 L8.75 303.6 L2.33 303.6 L5.03 302.92 L0 300.81 L0 300.81
							 L0 300.81 Z" class="st8"/>
			</g>
			<g id="shape119-374" v:mID="119" v:groupContext="shape" transform="translate(414.757,-181.291)">
				<title>Sheet.119</title>
				<path d="M10.01 302.82 L7.77 303.6 L2.47 301.4 L0 302.03 L1.3 300.02 L7.68 300.02 L5.03 300.71 L10.01 302.82 L10.01
							 302.82 L10.01 302.82 Z" class="st8"/>
			</g>
			<g id="shape120-376" v:mID="120" v:groupContext="shape" transform="translate(399.256,-177.565)">
				<title>Sheet.120</title>
				<path d="M0 295.71 L0 303.6" class="st5"/>
			</g>
			<g id="shape121-379" v:mID="121" v:groupContext="shape" transform="translate(429.747,-177.565)">
				<title>Sheet.121</title>
				<path d="M0 295.71 L0 303.6" class="st5"/>
			</g>
			<g id="shape122-382" v:mID="122" v:groupContext="shape" transform="translate(399.298,-172.48)">
				<title>Sheet.122</title>
				<desc>SW1</desc>
				<v:userDefs/>
				<v:textBlock v:margins="rect(4,4,4,4)" v:tabSpace="42.5197"/>
				<v:textRect cx="15.3624" cy="300.009" width="30.73" height="7.1841"/>
				<rect x="0" y="296.417" width="30.7249" height="7.1841" class="st9"/>
				<text x="11.53" y="301.66" class="st10" v:langID="1026"><v:paragraph v:spLine="-1.1" v:horizAlign="1"/><v:tabList/>R<tspan
							class="st11" v:langID="1033">1</tspan></text>			</g>
			<g id="group123-386" transform="translate(508.746,-201.53)" v:mID="123" v:groupContext="group">
				<title>Sheet.123</title>
				<g id="shape124-387" v:mID="124" v:groupContext="shape" transform="translate(0.0465515,1.13687E-013)">
					<title>Sheet.124</title>
					<path d="M30.49 298.11 C30.49 298.11 30.49 298.11 30.49 298.11 C30.49 301.15 23.65 303.6 15.27 303.6 C6.84 303.6
								 0 301.15 0 298.11 C0 295.07 6.84 292.62 15.27 292.62 C23.65 292.62 30.49 295.07 30.49 298.11 Z"
							class="st4"/>
				</g>
				<g id="shape125-389" v:mID="125" v:groupContext="shape" transform="translate(0.0465515,1.13687E-013)">
					<title>Sheet.125</title>
					<path d="M30.49 298.11 C30.49 298.11 30.49 298.11 30.49 298.11 C30.49 301.15 23.65 303.6 15.27 303.6 C6.84 303.6
								 0 301.15 0 298.11 C0 295.07 6.84 292.62 15.27 292.62 C23.65 292.62 30.49 295.07 30.49 298.11"
							class="st5"/>
				</g>
				<g id="shape126-392" v:mID="126" v:groupContext="shape" transform="translate(-7.99361E-015,-5.34402)">
					<title>Sheet.126</title>
					<path d="M0 295.76 L0 303.6 L30.54 303.6 L30.54 295.76 L0 295.76 L0 295.76 L0 295.76 Z" class="st4"/>
				</g>
				<g id="shape127-394" v:mID="127" v:groupContext="shape" transform="translate(0.0465515,-7.84444)">
					<title>Sheet.127</title>
					<path d="M30.49 298.11 C30.49 298.11 30.49 298.11 30.49 298.11 C30.49 301.15 23.65 303.6 15.27 303.6 C6.84 303.6
								 0 301.15 0 298.11 C0 295.07 6.84 292.62 15.27 292.62 C23.65 292.62 30.49 295.07 30.49 298.11 Z"
							class="st6"/>
				</g>
				<g id="shape128-396" v:mID="128" v:groupContext="shape" transform="translate(0.0465515,-7.84444)">
					<title>Sheet.128</title>
					<path d="M30.49 298.11 C30.49 298.11 30.49 298.11 30.49 298.11 C30.49 301.15 23.65 303.6 15.27 303.6 C6.84 303.6
								 0 301.15 0 298.11 C0 295.07 6.84 292.62 15.27 292.62 C23.65 292.62 30.49 295.07 30.49 298.11"
							class="st7"/>
				</g>
				<g id="shape129-399" v:mID="129" v:groupContext="shape" transform="translate(15.6878,-13.7768)">
					<title>Sheet.129</title>
					<path d="M0 302.82 L2.23 303.6 L7.54 301.4 L10.01 302.03 L8.71 300.02 L2.33 300.02 L4.98 300.71 L0 302.82 L0
								 302.82 L0 302.82 Z" class="st6"/>
				</g>
				<g id="shape130-401" v:mID="130" v:groupContext="shape" transform="translate(4.7017,-9.51138)">
					<title>Sheet.130</title>
					<path d="M10.06 300.81 L7.82 300.02 L2.51 302.28 L0 301.64 L1.35 303.6 L7.73 303.6 L5.03 302.92 L10.06 300.81
								 L10.06 300.81 L10.06 300.81 Z" class="st6"/>
				</g>
				<g id="shape131-403" v:mID="131" v:groupContext="shape" transform="translate(5.26032,-13.8749)">
					<title>Sheet.131</title>
					<path d="M0 300.81 L2.23 300.02 L7.54 302.28 L10.06 301.64 L8.75 303.6 L2.33 303.6 L5.03 302.92 L0 300.81 L0
								 300.81 L0 300.81 Z" class="st6"/>
				</g>
				<g id="shape132-405" v:mID="132" v:groupContext="shape" transform="translate(15.362,-9.26624)">
					<title>Sheet.132</title>
					<path d="M10.01 302.82 L7.77 303.6 L2.47 301.4 L0 302.03 L1.3 300.02 L7.68 300.02 L5.03 300.71 L10.01 302.82
								 L10.01 302.82 L10.01 302.82 Z" class="st6"/>
				</g>
				<g id="shape133-407" v:mID="133" v:groupContext="shape" transform="translate(15.8741,-13.5807)">
					<title>Sheet.133</title>
					<path d="M0 302.82 L2.23 303.6 L7.54 301.4 L10.01 302.03 L8.71 300.02 L2.33 300.02 L4.98 300.71 L0 302.82 L0
								 302.82 L0 302.82 Z" class="st8"/>
				</g>
				<g id="shape134-409" v:mID="134" v:groupContext="shape" transform="translate(4.8879,-9.31527)">
					<title>Sheet.134</title>
					<path d="M10.06 300.81 L7.82 300.02 L2.51 302.28 L0 301.64 L1.35 303.6 L7.73 303.6 L5.03 302.92 L10.06 300.81
								 L10.06 300.81 L10.06 300.81 Z" class="st8"/>
				</g>
				<g id="shape135-411" v:mID="135" v:groupContext="shape" transform="translate(5.44652,-13.6787)">
					<title>Sheet.135</title>
					<path d="M0 300.81 L2.23 300.02 L7.54 302.28 L10.06 301.64 L8.75 303.6 L2.33 303.6 L5.03 302.92 L0 300.81 L0
								 300.81 L0 300.81 Z" class="st8"/>
				</g>
				<g id="shape136-413" v:mID="136" v:groupContext="shape" transform="translate(15.5482,-9.07013)">
					<title>Sheet.136</title>
					<path d="M10.01 302.82 L7.77 303.6 L2.47 301.4 L0 302.03 L1.3 300.02 L7.68 300.02 L5.03 300.71 L10.01 302.82
								 L10.01 302.82 L10.01 302.82 Z" class="st8"/>
				</g>
				<g id="shape137-415" v:mID="137" v:groupContext="shape" transform="translate(0.0465515,-5.34402)">
					<title>Sheet.137</title>
					<path d="M0 295.71 L0 303.6" class="st5"/>
				</g>
				<g id="shape138-418" v:mID="138" v:groupContext="shape" transform="translate(30.5378,-5.34402)">
					<title>Sheet.138</title>
					<path d="M0 295.71 L0 303.6" class="st5"/>
				</g>
				<g id="shape139-421" v:mID="139" v:groupContext="shape" transform="translate(0.0884947,-0.259354)">
					<title>Sheet.139</title>
					<desc>SW1</desc>
					<v:userDefs/>
					<v:textBlock v:margins="rect(4,4,4,4)" v:tabSpace="42.5197"/>
					<v:textRect cx="15.3624" cy="300.009" width="30.73" height="7.1841"/>
					<rect x="0" y="296.417" width="30.7249" height="7.1841" class="st9"/>
					<text x="11.53" y="301.66" class="st10" v:langID="1026"><v:paragraph v:spLine="-1.1" v:horizAlign="1"/><v:tabList/>R<tspan
								class="st11" v:langID="1033">2</tspan></text>				</g>
			</g>
			<g id="shape141-425" v:mID="141" v:groupContext="shape" transform="translate(508.792,-172.221)">
				<title>Sheet.141</title>
				<path d="M30.49 298.11 C30.49 298.11 30.49 298.11 30.49 298.11 C30.49 301.15 23.65 303.6 15.27 303.6 C6.84 303.6
							 0 301.15 0 298.11 C0 295.07 6.84 292.62 15.27 292.62 C23.65 292.62 30.49 295.07 30.49 298.11 Z"
						class="st4"/>
			</g>
			<g id="shape142-427" v:mID="142" v:groupContext="shape" transform="translate(508.792,-172.221)">
				<title>Sheet.142</title>
				<path d="M30.49 298.11 C30.49 298.11 30.49 298.11 30.49 298.11 C30.49 301.15 23.65 303.6 15.27 303.6 C6.84 303.6
							 0 301.15 0 298.11 C0 295.07 6.84 292.62 15.27 292.62 C23.65 292.62 30.49 295.07 30.49 298.11"
						class="st5"/>
			</g>
			<g id="shape143-430" v:mID="143" v:groupContext="shape" transform="translate(508.746,-177.565)">
				<title>Sheet.143</title>
				<path d="M0 295.76 L0 303.6 L30.54 303.6 L30.54 295.76 L0 295.76 L0 295.76 L0 295.76 Z" class="st4"/>
			</g>
			<g id="shape144-432" v:mID="144" v:groupContext="shape" transform="translate(508.792,-180.065)">
				<title>Sheet.144</title>
				<path d="M30.49 298.11 C30.49 298.11 30.49 298.11 30.49 298.11 C30.49 301.15 23.65 303.6 15.27 303.6 C6.84 303.6
							 0 301.15 0 298.11 C0 295.07 6.84 292.62 15.27 292.62 C23.65 292.62 30.49 295.07 30.49 298.11 Z"
						class="st6"/>
			</g>
			<g id="shape145-434" v:mID="145" v:groupContext="shape" transform="translate(508.792,-180.065)">
				<title>Sheet.145</title>
				<path d="M30.49 298.11 C30.49 298.11 30.49 298.11 30.49 298.11 C30.49 301.15 23.65 303.6 15.27 303.6 C6.84 303.6
							 0 301.15 0 298.11 C0 295.07 6.84 292.62 15.27 292.62 C23.65 292.62 30.49 295.07 30.49 298.11"
						class="st7"/>
			</g>
			<g id="shape146-437" v:mID="146" v:groupContext="shape" transform="translate(524.434,-185.997)">
				<title>Sheet.146</title>
				<path d="M0 302.82 L2.23 303.6 L7.54 301.4 L10.01 302.03 L8.71 300.02 L2.33 300.02 L4.98 300.71 L0 302.82 L0 302.82
							 L0 302.82 Z" class="st6"/>
			</g>
			<g id="shape147-439" v:mID="147" v:groupContext="shape" transform="translate(513.448,-181.732)">
				<title>Sheet.147</title>
				<path d="M10.06 300.81 L7.82 300.02 L2.51 302.28 L0 301.64 L1.35 303.6 L7.73 303.6 L5.03 302.92 L10.06 300.81 L10.06
							 300.81 L10.06 300.81 Z" class="st6"/>
			</g>
			<g id="shape148-441" v:mID="148" v:groupContext="shape" transform="translate(514.006,-186.096)">
				<title>Sheet.148</title>
				<path d="M0 300.81 L2.23 300.02 L7.54 302.28 L10.06 301.64 L8.75 303.6 L2.33 303.6 L5.03 302.92 L0 300.81 L0 300.81
							 L0 300.81 Z" class="st6"/>
			</g>
			<g id="shape149-443" v:mID="149" v:groupContext="shape" transform="translate(524.108,-181.487)">
				<title>Sheet.149</title>
				<path d="M10.01 302.82 L7.77 303.6 L2.47 301.4 L0 302.03 L1.3 300.02 L7.68 300.02 L5.03 300.71 L10.01 302.82 L10.01
							 302.82 L10.01 302.82 Z" class="st6"/>
			</g>
			<g id="shape150-445" v:mID="150" v:groupContext="shape" transform="translate(524.62,-185.801)">
				<title>Sheet.150</title>
				<path d="M0 302.82 L2.23 303.6 L7.54 301.4 L10.01 302.03 L8.71 300.02 L2.33 300.02 L4.98 300.71 L0 302.82 L0 302.82
							 L0 302.82 Z" class="st8"/>
			</g>
			<g id="shape151-447" v:mID="151" v:groupContext="shape" transform="translate(513.634,-181.536)">
				<title>Sheet.151</title>
				<path d="M10.06 300.81 L7.82 300.02 L2.51 302.28 L0 301.64 L1.35 303.6 L7.73 303.6 L5.03 302.92 L10.06 300.81 L10.06
							 300.81 L10.06 300.81 Z" class="st8"/>
			</g>
			<g id="shape152-449" v:mID="152" v:groupContext="shape" transform="translate(514.192,-185.899)">
				<title>Sheet.152</title>
				<path d="M0 300.81 L2.23 300.02 L7.54 302.28 L10.06 301.64 L8.75 303.6 L2.33 303.6 L5.03 302.92 L0 300.81 L0 300.81
							 L0 300.81 Z" class="st8"/>
			</g>
			<g id="shape153-451" v:mID="153" v:groupContext="shape" transform="translate(524.294,-181.291)">
				<title>Sheet.153</title>
				<path d="M10.01 302.82 L7.77 303.6 L2.47 301.4 L0 302.03 L1.3 300.02 L7.68 300.02 L5.03 300.71 L10.01 302.82 L10.01
							 302.82 L10.01 302.82 Z" class="st8"/>
			</g>
			<g id="shape154-453" v:mID="154" v:groupContext="shape" transform="translate(508.792,-177.565)">
				<title>Sheet.154</title>
				<path d="M0 295.71 L0 303.6" class="st5"/>
			</g>
			<g id="shape155-456" v:mID="155" v:groupContext="shape" transform="translate(539.284,-177.565)">
				<title>Sheet.155</title>
				<path d="M0 295.71 L0 303.6" class="st5"/>
			</g>
			<g id="shape156-459" v:mID="156" v:groupContext="shape" transform="translate(508.834,-172.48)">
				<title>Sheet.156</title>
				<desc>SW1</desc>
				<v:userDefs/>
				<v:textBlock v:margins="rect(4,4,4,4)" v:tabSpace="42.5197"/>
				<v:textRect cx="15.3624" cy="300.009" width="30.73" height="7.1841"/>
				<rect x="0" y="296.417" width="30.7249" height="7.1841" class="st9"/>
				<text x="11.53" y="301.66" class="st10" v:langID="1026"><v:paragraph v:spLine="-1.1" v:horizAlign="1"/><v:tabList/>R<tspan
							class="st11" v:langID="1033">3</tspan></text>			</g>
			<g id="shape158-463" v:mID="158" v:groupContext="shape" transform="translate(508.792,-142.912)">
				<title>Sheet.158</title>
				<path d="M30.49 298.11 C30.49 298.11 30.49 298.11 30.49 298.11 C30.49 301.15 23.65 303.6 15.27 303.6 C6.84 303.6
							 0 301.15 0 298.11 C0 295.07 6.84 292.62 15.27 292.62 C23.65 292.62 30.49 295.07 30.49 298.11 Z"
						class="st4"/>
			</g>
			<g id="shape159-465" v:mID="159" v:groupContext="shape" transform="translate(508.792,-142.912)">
				<title>Sheet.159</title>
				<path d="M30.49 298.11 C30.49 298.11 30.49 298.11 30.49 298.11 C30.49 301.15 23.65 303.6 15.27 303.6 C6.84 303.6
							 0 301.15 0 298.11 C0 295.07 6.84 292.62 15.27 292.62 C23.65 292.62 30.49 295.07 30.49 298.11"
						class="st5"/>
			</g>
			<g id="shape160-468" v:mID="160" v:groupContext="shape" transform="translate(508.746,-148.256)">
				<title>Sheet.160</title>
				<path d="M0 295.76 L0 303.6 L30.54 303.6 L30.54 295.76 L0 295.76 L0 295.76 L0 295.76 Z" class="st4"/>
			</g>
			<g id="shape161-470" v:mID="161" v:groupContext="shape" transform="translate(508.792,-150.756)">
				<title>Sheet.161</title>
				<path d="M30.49 298.11 C30.49 298.11 30.49 298.11 30.49 298.11 C30.49 301.15 23.65 303.6 15.27 303.6 C6.84 303.6
							 0 301.15 0 298.11 C0 295.07 6.84 292.62 15.27 292.62 C23.65 292.62 30.49 295.07 30.49 298.11 Z"
						class="st6"/>
			</g>
			<g id="shape162-472" v:mID="162" v:groupContext="shape" transform="translate(508.792,-150.756)">
				<title>Sheet.162</title>
				<path d="M30.49 298.11 C30.49 298.11 30.49 298.11 30.49 298.11 C30.49 301.15 23.65 303.6 15.27 303.6 C6.84 303.6
							 0 301.15 0 298.11 C0 295.07 6.84 292.62 15.27 292.62 C23.65 292.62 30.49 295.07 30.49 298.11"
						class="st7"/>
			</g>
			<g id="shape163-475" v:mID="163" v:groupContext="shape" transform="translate(524.434,-156.688)">
				<title>Sheet.163</title>
				<path d="M0 302.82 L2.23 303.6 L7.54 301.4 L10.01 302.03 L8.71 300.02 L2.33 300.02 L4.98 300.71 L0 302.82 L0 302.82
							 L0 302.82 Z" class="st6"/>
			</g>
			<g id="shape164-477" v:mID="164" v:groupContext="shape" transform="translate(513.448,-152.423)">
				<title>Sheet.164</title>
				<path d="M10.06 300.81 L7.82 300.02 L2.51 302.28 L0 301.64 L1.35 303.6 L7.73 303.6 L5.03 302.92 L10.06 300.81 L10.06
							 300.81 L10.06 300.81 Z" class="st6"/>
			</g>
			<g id="shape165-479" v:mID="165" v:groupContext="shape" transform="translate(514.006,-156.786)">
				<title>Sheet.165</title>
				<path d="M0 300.81 L2.23 300.02 L7.54 302.28 L10.06 301.64 L8.75 303.6 L2.33 303.6 L5.03 302.92 L0 300.81 L0 300.81
							 L0 300.81 Z" class="st6"/>
			</g>
			<g id="shape166-481" v:mID="166" v:groupContext="shape" transform="translate(524.108,-152.178)">
				<title>Sheet.166</title>
				<path d="M10.01 302.82 L7.77 303.6 L2.47 301.4 L0 302.03 L1.3 300.02 L7.68 300.02 L5.03 300.71 L10.01 302.82 L10.01
							 302.82 L10.01 302.82 Z" class="st6"/>
			</g>
			<g id="shape167-483" v:mID="167" v:groupContext="shape" transform="translate(524.62,-156.492)">
				<title>Sheet.167</title>
				<path d="M0 302.82 L2.23 303.6 L7.54 301.4 L10.01 302.03 L8.71 300.02 L2.33 300.02 L4.98 300.71 L0 302.82 L0 302.82
							 L0 302.82 Z" class="st8"/>
			</g>
			<g id="shape168-485" v:mID="168" v:groupContext="shape" transform="translate(513.634,-152.227)">
				<title>Sheet.168</title>
				<path d="M10.06 300.81 L7.82 300.02 L2.51 302.28 L0 301.64 L1.35 303.6 L7.73 303.6 L5.03 302.92 L10.06 300.81 L10.06
							 300.81 L10.06 300.81 Z" class="st8"/>
			</g>
			<g id="shape169-487" v:mID="169" v:groupContext="shape" transform="translate(514.192,-156.59)">
				<title>Sheet.169</title>
				<path d="M0 300.81 L2.23 300.02 L7.54 302.28 L10.06 301.64 L8.75 303.6 L2.33 303.6 L5.03 302.92 L0 300.81 L0 300.81
							 L0 300.81 Z" class="st8"/>
			</g>
			<g id="shape170-489" v:mID="170" v:groupContext="shape" transform="translate(524.294,-151.982)">
				<title>Sheet.170</title>
				<path d="M10.01 302.82 L7.77 303.6 L2.47 301.4 L0 302.03 L1.3 300.02 L7.68 300.02 L5.03 300.71 L10.01 302.82 L10.01
							 302.82 L10.01 302.82 Z" class="st8"/>
			</g>
			<g id="shape171-491" v:mID="171" v:groupContext="shape" transform="translate(508.792,-148.256)">
				<title>Sheet.171</title>
				<path d="M0 295.71 L0 303.6" class="st5"/>
			</g>
			<g id="shape172-494" v:mID="172" v:groupContext="shape" transform="translate(539.284,-148.256)">
				<title>Sheet.172</title>
				<path d="M0 295.71 L0 303.6" class="st5"/>
			</g>
			<g id="shape173-497" v:mID="173" v:groupContext="shape" transform="translate(508.834,-143.171)">
				<title>Sheet.173</title>
				<desc>SW1</desc>
				<v:userDefs/>
				<v:textBlock v:margins="rect(4,4,4,4)" v:tabSpace="42.5197"/>
				<v:textRect cx="15.3624" cy="300.009" width="30.73" height="7.1841"/>
				<rect x="0" y="296.417" width="30.7249" height="7.1841" class="st9"/>
				<text x="11.53" y="301.66" class="st10" v:langID="1026"><v:paragraph v:spLine="-1.1" v:horizAlign="1"/><v:tabList/>R<tspan
							class="st11" v:langID="1033">4</tspan></text>			</g>
			<g id="shape186-501" v:mID="186" v:groupContext="shape" transform="translate(376.506,-50.2777)">
				<title>Sheet.186</title>
				<desc>A single interface connects to multiple remote routers. Defau...</desc>
				<v:textBlock v:margins="rect(4,4,4,1)" v:tabSpace="42.5197" v:verticalAlign="0"/>
				<v:textRect cx="89.6237" cy="260.885" width="179.25" height="85.4332"/>
				<rect x="0" y="218.168" width="179.247" height="85.4332" class="st9"/>
				<text x="7.66" y="231.3" class="st12" v:langID="1033"><v:paragraph v:indentFirst="-11.34" v:indentLeft="18"
							v:bullet="3"/><v:tabList/><tspan class="st11" v:isBullet="true">§</tspan> <tspan class="st13">A single interface connects to </tspan><tspan
							x="19" dy="1.204em" class="st13">multiple remote routers</tspan><tspan class="st13">.<v:newlineChar/></tspan><tspan
							x="7.66" dy="1.213em" class="st11" v:isBullet="true">§</tspan> <tspan class="st13">Default Hello interval </tspan><tspan
							class="st13">–</tspan><tspan class="st13"> </tspan><tspan class="st13">30 </tspan><tspan class="st13">sec</tspan><tspan
							class="st13">.<v:newlineChar/></tspan><tspan x="7.66" dy="1.217em" class="st11" v:isBullet="true">§</tspan> <tspan
							class="st13">One</tspan><tspan class="st13">-</tspan><tspan class="st13">to</tspan><tspan class="st13">-</tspan><tspan
							class="st13">Any connectivity</tspan><tspan class="st13">.<v:newlineChar/></tspan><tspan x="7.66"
							dy="1.217em" class="st11" v:isBullet="true">§</tspan> <tspan class="st13">Dynamic Discovery of Neighbors</tspan><tspan
							class="st13">. <v:newlineChar/></tspan><tspan x="7.66" dy="1.217em" class="st11" v:isBullet="true">§</tspan> <tspan
							class="st13">Don</tspan><tspan class="st13">’</tspan><tspan class="st13">t use DR</tspan><tspan
							class="st13">/</tspan><tspan class="st13">BDR </tspan><tspan class="st13">(</tspan><tspan class="st13">the hub is </tspan><tspan
							x="19" dy="1.204em" class="st13">basically the DR</tspan><tspan class="st13">).</tspan></text>			</g>
			<g id="shape190-535" v:mID="190" v:groupContext="shape" transform="translate(376.506,5.68434E-014)">
				<title>Sheet.190</title>
				<desc>Router(config-if)# ip ospf network point-to-multipoint</desc>
				<v:textBlock v:margins="rect(4,4,4,4)" v:tabSpace="42.5197" v:verticalAlign="0"/>
				<v:textRect cx="89.6237" cy="283.354" width="179.25" height="40.4949"/>
				<rect x="0" y="263.107" width="179.247" height="40.4949" class="st17"/>
				<text x="4" y="277.01" class="st15" v:langID="1033"><v:paragraph/><v:tabList/>Router(config-if)#<v:newlineChar/><tspan
							x="4" dy="1.2em" class="st16"> </tspan><tspan class="st16">ip ospf network point</tspan><tspan
							class="st16">-</tspan><tspan class="st16">to</tspan><tspan class="st16">-</tspan><tspan class="st16">multipoint</tspan></text>			</g>
			<g id="shape202-544" v:mID="202" v:groupContext="shape" transform="translate(0,-267.501)">
				<title>Rectangle.196</title>
				<desc>OSPF Network Types</desc>
				<v:userDefs>
					<v:ud v:nameU="visVersion" v:val="VT0(15):26"/>
				</v:userDefs>
				<v:textBlock v:margins="rect(6,4,4,4)" v:tabSpace="42.5197" v:verticalAlign="0"/>
				<v:textRect cx="278.46" cy="287.489" width="556.92" height="32.2254"/>
				<rect x="0" y="271.376" width="556.92" height="32.2254" class="st18"/>
				<text x="187.44" y="293.58" class="st19" v:langID="1033"><v:paragraph v:horizAlign="1"/><v:tabList/>OSPF Network Types</text>			</g>
		</g>
	</g>
</svg>
